<svg class="animated" id="freepik_stories-work-chat" xmlns="http://www.w3.org/2000/svg" xmlns:xlink="http://www.w3.org/1999/xlink" viewBox="0 0 500 500" version="1.1" xmlns:svgjs="http://svgjs.com/svgjs"><style>svg#freepik_stories-work-chat:not(.animated) .animable {opacity: 0;}svg#freepik_stories-work-chat.animated #freepik--background-complete--inject-90 {animation: 1s 1 forwards cubic-bezier(.36,-0.01,.5,1.38) slideRight;animation-delay: 0s;}svg#freepik_stories-work-chat.animated #freepik--Desk--inject-90 {animation: 1s 1 forwards cubic-bezier(.36,-0.01,.5,1.38) slideLeft;animation-delay: 0s;}svg#freepik_stories-work-chat.animated #freepik--Device--inject-90 {animation: 1s 1 forwards cubic-bezier(.36,-0.01,.5,1.38) lightSpeedRight;animation-delay: 0s;}svg#freepik_stories-work-chat.animated #freepik--Mug--inject-90 {animation: 1s 1 forwards cubic-bezier(.36,-0.01,.5,1.38) lightSpeedLeft;animation-delay: 0s;}svg#freepik_stories-work-chat.animated #elx9owe9ceyw {animation: 1s 1 forwards cubic-bezier(.36,-0.01,.5,1.38) zoomIn;animation-delay: 0s;}svg#freepik_stories-work-chat.animated #elsvamwqthwob {animation: 1s 1 forwards cubic-bezier(.36,-0.01,.5,1.38) zoomIn;animation-delay: 0.037037037037037035s;opacity: 0}svg#freepik_stories-work-chat.animated #elta2fy73qwyq {animation: 1s 1 forwards cubic-bezier(.36,-0.01,.5,1.38) zoomIn;animation-delay: 0.07407407407407407s;opacity: 0}svg#freepik_stories-work-chat.animated #elwh6hf4p23i {animation: 1s 1 forwards cubic-bezier(.36,-0.01,.5,1.38) zoomIn;animation-delay: 0.1111111111111111s;opacity: 0}svg#freepik_stories-work-chat.animated #elcpcrm2jtn5u {animation: 1s 1 forwards cubic-bezier(.36,-0.01,.5,1.38) zoomIn;animation-delay: 0.14814814814814814s;opacity: 0}svg#freepik_stories-work-chat.animated #el435if9rqcdr {animation: 1s 1 forwards cubic-bezier(.36,-0.01,.5,1.38) zoomIn;animation-delay: 0.18518518518518517s;opacity: 0}svg#freepik_stories-work-chat.animated #eltvrfl4ncdif {animation: 1s 1 forwards cubic-bezier(.36,-0.01,.5,1.38) zoomIn;animation-delay: 0.2222222222222222s;opacity: 0}svg#freepik_stories-work-chat.animated #elpgsce35ibqn {animation: 1s 1 forwards cubic-bezier(.36,-0.01,.5,1.38) zoomIn;animation-delay: 0.25925925925925924s;opacity: 0}svg#freepik_stories-work-chat.animated #ele90jai1kgss {animation: 1s 1 forwards cubic-bezier(.36,-0.01,.5,1.38) zoomIn;animation-delay: 0.2962962962962963s;opacity: 0}svg#freepik_stories-work-chat.animated #elmmn3h0n06r {animation: 1s 1 forwards cubic-bezier(.36,-0.01,.5,1.38) zoomIn;animation-delay: 0.3333333333333333s;opacity: 0}svg#freepik_stories-work-chat.animated #elz4ud3rrqqa {animation: 1s 1 forwards cubic-bezier(.36,-0.01,.5,1.38) zoomIn;animation-delay: 0.37037037037037035s;opacity: 0}svg#freepik_stories-work-chat.animated #el2z63b80xhwa {animation: 1s 1 forwards cubic-bezier(.36,-0.01,.5,1.38) zoomIn;animation-delay: 0.4074074074074074s;opacity: 0}svg#freepik_stories-work-chat.animated #elemnrjd7hj6b {animation: 1s 1 forwards cubic-bezier(.36,-0.01,.5,1.38) zoomIn;animation-delay: 0.4444444444444444s;opacity: 0}svg#freepik_stories-work-chat.animated #elpnx6a4p74ne {animation: 1s 1 forwards cubic-bezier(.36,-0.01,.5,1.38) zoomIn;animation-delay: 0.48148148148148145s;opacity: 0}svg#freepik_stories-work-chat.animated #el3jmlwvyg1p6 {animation: 1s 1 forwards cubic-bezier(.36,-0.01,.5,1.38) zoomIn;animation-delay: 0.5185185185185185s;opacity: 0}svg#freepik_stories-work-chat.animated #elpo3n7dc6bli {animation: 1s 1 forwards cubic-bezier(.36,-0.01,.5,1.38) zoomIn;animation-delay: 0.5555555555555556s;opacity: 0}svg#freepik_stories-work-chat.animated #eld7zlcs525bp {animation: 1s 1 forwards cubic-bezier(.36,-0.01,.5,1.38) zoomIn;animation-delay: 0.5925925925925926s;opacity: 0}svg#freepik_stories-work-chat.animated #elx3i89f61kia {animation: 1s 1 forwards cubic-bezier(.36,-0.01,.5,1.38) zoomIn;animation-delay: 0.6296296296296295s;opacity: 0}svg#freepik_stories-work-chat.animated #ellfhqjqdngqd {animation: 1s 1 forwards cubic-bezier(.36,-0.01,.5,1.38) zoomIn;animation-delay: 0.6666666666666666s;opacity: 0}svg#freepik_stories-work-chat.animated #el3q79ul0ii2v {animation: 1s 1 forwards cubic-bezier(.36,-0.01,.5,1.38) zoomIn;animation-delay: 0.7037037037037037s;opacity: 0}svg#freepik_stories-work-chat.animated #elwik9xaw64il {animation: 1s 1 forwards cubic-bezier(.36,-0.01,.5,1.38) zoomIn;animation-delay: 0.7407407407407407s;opacity: 0}svg#freepik_stories-work-chat.animated #elrawhdw4v80k {animation: 1s 1 forwards cubic-bezier(.36,-0.01,.5,1.38) zoomIn;animation-delay: 0.7777777777777777s;opacity: 0}svg#freepik_stories-work-chat.animated #elelc4jverj2k {animation: 1s 1 forwards cubic-bezier(.36,-0.01,.5,1.38) zoomIn;animation-delay: 0.8148148148148148s;opacity: 0}svg#freepik_stories-work-chat.animated #el239jr1g2hjg {animation: 1s 1 forwards cubic-bezier(.36,-0.01,.5,1.38) zoomIn;animation-delay: 0.8518518518518519s;opacity: 0}svg#freepik_stories-work-chat.animated #eljbagi1g0ixs {animation: 1s 1 forwards cubic-bezier(.36,-0.01,.5,1.38) zoomIn;animation-delay: 0.8888888888888888s;opacity: 0}svg#freepik_stories-work-chat.animated #elsn959tp84lp {animation: 1s 1 forwards cubic-bezier(.36,-0.01,.5,1.38) zoomIn;animation-delay: 0.9259259259259258s;opacity: 0}svg#freepik_stories-work-chat.animated #el699ajw82m2 {animation: 1s 1 forwards cubic-bezier(.36,-0.01,.5,1.38) zoomIn;animation-delay: 0.9629629629629629s;opacity: 0}svg#freepik_stories-work-chat.animated #freepik--speech-bubbles--inject-90 {animation: 1s 1 forwards cubic-bezier(.36,-0.01,.5,1.38) zoomIn,1.5s Infinite  linear floating;animation-delay: 0s,1s;}svg#freepik_stories-work-chat.animated #freepik--character-3--inject-90 {animation: 1s 1 forwards cubic-bezier(.36,-0.01,.5,1.38) lightSpeedLeft;animation-delay: 0s;}svg#freepik_stories-work-chat.animated #freepik--character-2--inject-90 {animation: 1s 1 forwards cubic-bezier(.36,-0.01,.5,1.38) slideUp;animation-delay: 0s;}svg#freepik_stories-work-chat.animated #freepik--character-1--inject-90 {animation: 1s 1 forwards cubic-bezier(.36,-0.01,.5,1.38) zoomIn;animation-delay: 0s;}            @keyframes slideRight {                0% {                    opacity: 0;                    transform: translateX(30px);                }                100% {                    opacity: 1;                    transform: translateX(0);                }            }                    @keyframes slideLeft {                0% {                    opacity: 0;                    transform: translateX(-30px);                }                100% {                    opacity: 1;                    transform: translateX(0);                }            }                    @keyframes lightSpeedRight {              from {                transform: translate3d(50%, 0, 0) skewX(-20deg);                opacity: 0;              }              60% {                transform: skewX(10deg);                opacity: 1;              }              80% {                transform: skewX(-2deg);              }              to {                opacity: 1;                transform: translate3d(0, 0, 0);              }            }                    @keyframes lightSpeedLeft {              from {                transform: translate3d(-50%, 0, 0) skewX(20deg);                opacity: 0;              }              60% {                transform: skewX(-10deg);                opacity: 1;              }              80% {                transform: skewX(2deg);              }              to {                opacity: 1;                transform: translate3d(0, 0, 0);              }            }                    @keyframes zoomIn {                0% {                    opacity: 0;                    transform: scale(0.5);                }                100% {                    opacity: 1;                    transform: scale(1);                }            }                    @keyframes floating {                0% {                    opacity: 1;                    transform: translateY(0px);                }                50% {                    transform: translateY(-10px);                }                100% {                    opacity: 1;                    transform: translateY(0px);                }            }                    @keyframes slideUp {                0% {                    opacity: 0;                    transform: translateY(30px);                }                100% {                    opacity: 1;                    transform: inherit;                }            }        </style><g id="freepik--background-complete--inject-90" class="animable" style="transform-origin: 257.344px 219px;"><rect x="340.61" width="1.77" height="94.41" style="fill: rgb(235, 235, 235); transform-origin: 341.495px 47.205px;" id="el3xtpgk8wkgp" class="animable"></rect><rect x="336.58" y="86.54" width="9.82" height="6.64" style="fill: rgb(219, 219, 219); transform-origin: 341.49px 89.86px;" id="elpss3uw9nopq" class="animable"></rect><rect x="336.58" y="88.75" width="9.82" height="4.43" style="fill: rgb(199, 199, 199); transform-origin: 341.49px 90.965px;" id="eljt7qk2g5rem" class="animable"></rect><g id="el4k37h4c3s2v"><circle cx="341.49" cy="137.12" r="7.56" style="fill: rgb(235, 235, 235); transform-origin: 341.49px 137.12px; transform: rotate(-13.24deg);" class="animable"></circle></g><polygon points="366.1 137.12 316.89 137.12 325.8 121.33 333.07 92 349.92 92 357.19 121.33 366.1 137.12" style="fill: rgb(219, 219, 219); transform-origin: 341.495px 114.56px;" id="eljnnl137070e" class="animable"></polygon><rect x="249.11" width="1.77" height="78.88" style="fill: rgb(235, 235, 235); transform-origin: 249.995px 39.44px;" id="elxyahbtwnk3i" class="animable"></rect><rect x="245.09" y="71.01" width="9.82" height="6.64" style="fill: rgb(219, 219, 219); transform-origin: 250px 74.33px;" id="elbpg8h976n8r" class="animable"></rect><rect x="245.09" y="73.22" width="9.82" height="4.43" style="fill: rgb(199, 199, 199); transform-origin: 250px 75.435px;" id="elsji9th6r55" class="animable"></rect><path d="M257.56,121.59A7.56,7.56,0,1,1,250,114,7.55,7.55,0,0,1,257.56,121.59Z" style="fill: rgb(235, 235, 235); transform-origin: 250px 121.56px;" id="el7ctjtxxc5fx" class="animable"></path><polygon points="274.6 121.59 225.4 121.59 234.31 105.8 241.58 76.47 258.42 76.47 265.69 105.8 274.6 121.59" style="fill: rgb(219, 219, 219); transform-origin: 250px 99.03px;" id="el2iconoa457j" class="animable"></polygon><rect x="161.35" width="1.77" height="62.66" style="fill: rgb(235, 235, 235); transform-origin: 162.235px 31.33px;" id="ell4z9op5qub" class="animable"></rect><rect x="157.32" y="54.79" width="9.82" height="6.64" style="fill: rgb(219, 219, 219); transform-origin: 162.23px 58.11px;" id="elez3k02fmdr" class="animable"></rect><rect x="157.32" y="57" width="9.82" height="4.43" style="fill: rgb(199, 199, 199); transform-origin: 162.23px 59.215px;" id="el2zwux6bcwvc" class="animable"></rect><path d="M169.79,105.37a7.56,7.56,0,1,1-7.56-7.56A7.56,7.56,0,0,1,169.79,105.37Z" style="fill: rgb(235, 235, 235); transform-origin: 162.23px 105.37px;" id="elo1vcfluvktf" class="animable"></path><polygon points="186.84 105.37 137.63 105.37 146.54 89.57 153.81 60.25 170.66 60.25 177.93 89.57 186.84 105.37" style="fill: rgb(219, 219, 219); transform-origin: 162.235px 82.81px;" id="el0j6hl1dai186" class="animable"></polygon><path d="M440.23,334.74C426.11,353.85,411.4,376,407.81,400c0,.37.54.49.63.13a141.55,141.55,0,0,1,6.24-19.2c9.28-2.55,18.38-4.65,23.26-13.86,5-9.46,4.33-21.81,3.39-32.12C441.26,334.4,440.51,334.37,440.23,334.74Z" style="fill: rgb(235, 235, 235); transform-origin: 424.899px 367.42px;" id="elvjaxynoczql" class="animable"></path><path d="M414.82,380.75c6.34-14.22,14.48-28.51,24.82-40.21.07-.08.18,0,.12.12-6.78,8.33-11.92,17.4-16.95,26.64,4.67-4.75,9.79-9,14.22-14,.09-.1.22.05.14.14-4.39,5.28-9.2,11-14.92,14.91-1.54,2.84-3.08,5.68-4.65,8.52.38-.22.78-.41,1.17-.6.07,0,.13.07.06.1-.43.22-.87.45-1.32.65-.74,1.34-1.48,2.69-2.24,4C415.1,381.32,414.68,381.05,414.82,380.75Z" style="fill: rgb(166, 166, 166); transform-origin: 427.285px 360.829px;" id="el76mmlvk6qxk" class="animable"></path><path d="M419.53,375.79a83.75,83.75,0,0,0,10.84-7.23c.09-.08.22.05.13.13a57.65,57.65,0,0,1-10.81,7.37C419.51,376.15,419.36,375.89,419.53,375.79Z" style="fill: rgb(166, 166, 166); transform-origin: 424.993px 372.307px;" id="elex02w9f1ms" class="animable"></path><path d="M406.18,396.44c0,.29.52.29.52,0,.07-7.9,0-15.83.12-23.75,2-4.09,6.37-6.34,9.38-9.61a42,42,0,0,0,5.63-7.84,56.06,56.06,0,0,0,6.53-21.78c.84-8.44-2.37-36.3-5.93-35.34-1.84.51-7.81,14.31-9.4,18.87a132,132,0,0,0-5.62,23.13C404.53,358.67,404.77,377.75,406.18,396.44Z" style="fill: rgb(235, 235, 235); transform-origin: 416.83px 347.377px;" id="el2rwwazl8ai6" class="animable"></path><path d="M406.12,362.39l0,0c.43-10,2.68-20.07,4.79-29.76,2.27-10.44,4.92-20.26,10.29-29.57a.15.15,0,0,1,.27.15,109.71,109.71,0,0,0-8.27,22.7c.36-.56.8-1.09,1.17-1.63.15-.21.49,0,.35.21a15.16,15.16,0,0,1-1.68,2.37s-.05,0-.07,0c-1.85,7.46-3.18,15.09-4.31,22.7l.25-.3a.08.08,0,0,1,.12.09c-.14.26-.3.51-.45.76-.58,3.86-1.11,7.72-1.64,11.54,6.88-5.88,12.75-12.81,16.06-21.35,0,0,.08,0,.07,0-3.25,8.86-8.36,16.73-16.24,22.1-.14,1-.29,2.06-.43,3.09,0,.21-.37.15-.37-.05,0-.91,0-1.83.08-2.74A.21.21,0,0,1,406.12,362.39Z" style="fill: rgb(166, 166, 166); transform-origin: 414.55px 334.302px;" id="el080r7v49xrox" class="animable"></path><path d="M409.36,347.92c5.26-7.85,10.17-15.47,14-24.14,0-.09.21,0,.17.08-3.24,8.61-7.78,17.34-13.92,24.26C409.5,348.26,409.26,348.08,409.36,347.92Z" style="fill: rgb(166, 166, 166); transform-origin: 416.436px 335.956px;" id="elqd1pdqt69ni" class="animable"></path><path d="M416.35,321.85c2.18-3.86,4.47-7.61,6.52-11.53.06-.11.21,0,.17.09A60.14,60.14,0,0,1,416.69,322C416.54,322.24,416.22,322.07,416.35,321.85Z" style="fill: rgb(166, 166, 166); transform-origin: 419.683px 316.195px;" id="elsa63z7s70im" class="animable"></path><path d="M415.5,323.52s0,.07,0,.07S415.46,323.52,415.5,323.52Z" style="fill: rgb(166, 166, 166); transform-origin: 415.491px 323.555px;" id="el0pab1ygdb3c" class="animable"></path><path d="M400.84,373.61A80.47,80.47,0,0,1,399,389.17c.09.56.17,1.12.25,1.7A74.08,74.08,0,0,0,402,373.53a.52.52,0,0,0,0-.53v0a114.36,114.36,0,0,0-1.74-23.49c-2.44-14.5-7.78-28.43-17.9-39.3a.73.73,0,0,0-1.12.23c-4.08,10.38-2.66,22.77.82,33.12a60.58,60.58,0,0,0,8,15.74C393.6,364.16,398,368.28,400.84,373.61Z" style="fill: rgb(235, 235, 235); transform-origin: 390.413px 350.455px;" id="el5d4e9y2r3he" class="animable"></path><path d="M383.6,315.05c9.58,15.56,16.26,34,17.07,52.39,0,.33-.53.41-.58.08-.22-1.65-.48-3.29-.74-4.92h0c-4-3.8-8-7.81-10.88-12.56a.09.09,0,0,1,.14-.1c3.45,3.94,6.67,8,10.57,11.5-.69-4.07-1.5-8.07-2.47-12l-.76-.89c-.16-.19.12-.48.29-.28l.23.25a139.8,139.8,0,0,0-5-15.91c-2.44-2.92-5.17-5.43-6.95-8.94-.05-.09.07-.15.13-.07,1.43,2,2.81,4,4.43,5.88.65.74,1.36,1.44,2,2.16a124.28,124.28,0,0,0-7.85-16.36A.22.22,0,0,1,383.6,315.05Z" style="fill: rgb(166, 166, 166); transform-origin: 391.941px 341.351px;" id="el3vsl6os44jt" class="animable"></path><path d="M385.53,334.25c3.1,4.17,6.64,8.15,9.52,12.46.08.12-.1.25-.2.15-3.71-3.47-6.84-8.21-9.52-12.49C385.24,334.23,385.44,334.12,385.53,334.25Z" style="fill: rgb(166, 166, 166); transform-origin: 390.189px 340.544px;" id="elgiq16hyto67" class="animable"></path><path d="M395.48,347.67l.13.13c.09.1-.05.24-.14.15l-.13-.14A.1.1,0,0,1,395.48,347.67Z" style="fill: rgb(166, 166, 166); transform-origin: 395.48px 347.814px;" id="elnel3zly4grm" class="animable"></path><path d="M368.57,345c.77,8,5,17.57,10.12,23.74a25.11,25.11,0,0,0,8.21,6.4c3.55,1.76,7.27,3.79,11,5.23a71.55,71.55,0,0,1,3.87,13.77l.36-1.22c-2.36-20.27-15.48-37.59-32.25-48.71A.82.82,0,0,0,368.57,345Z" style="fill: rgb(235, 235, 235); transform-origin: 385.344px 369.089px;" id="el0y3hennbhesi" class="animable"></path><path d="M374.37,351c-.12-.1,0-.31.17-.22a68.71,68.71,0,0,1,21.38,26.35c.12.28-.26.52-.42.24q-1.17-2-2.38-4h0c-3.83-.72-7.46-3.41-10.3-6-.08-.07,0-.18.11-.12a23.69,23.69,0,0,0,4.85,3.41c1.56.79,3.24,1.29,4.86,1.93-1.42-2.26-2.89-4.42-4.44-6.51a45.12,45.12,0,0,1-11.51-6.47c-.11-.08,0-.26.11-.19a112.37,112.37,0,0,0,10.7,5.72,95.07,95.07,0,0,0-7.55-8.8c-1.31-.69-2.63-1.38-3.89-2.12a.11.11,0,0,1,.09-.19,13.86,13.86,0,0,1,3,1.46C377.6,353.94,376,352.43,374.37,351Z" style="fill: rgb(166, 166, 166); transform-origin: 385.132px 364.126px;" id="elhznfgpciitm" class="animable"></path><path d="M374.73,358a5,5,0,0,1,.64.46.07.07,0,0,1-.08.11,5.51,5.51,0,0,1-.67-.38A.11.11,0,0,1,374.73,358Z" style="fill: rgb(166, 166, 166); transform-origin: 374.979px 358.282px;" id="eldbynelvk0i" class="animable"></path><polygon points="428.26 438 382.29 438 386 396.13 386.81 386.9 423.74 386.9 424.55 396.13 428.26 438" style="fill: rgb(199, 199, 199); transform-origin: 405.275px 412.45px;" id="el7sxux9zdox" class="animable"></polygon><polygon points="424.55 396.13 386 396.13 386.81 386.9 423.74 386.9 424.55 396.13" style="fill: rgb(166, 166, 166); transform-origin: 405.275px 391.515px;" id="el1c1y8ccokcv" class="animable"></polygon><rect x="384.62" y="380.44" width="41.32" height="9.14" style="fill: rgb(199, 199, 199); transform-origin: 405.28px 385.01px;" id="elfef8a4et3zs" class="animable"></rect><path d="M199.34,316.33H72.7V229.69H199.34Zm-125.64-1H198.34V230.69H73.7Z" style="fill: rgb(235, 235, 235); transform-origin: 136.02px 273.01px;" id="elztambib5cbf" class="animable"></path><path d="M82.6,235.27a2.52,2.52,0,1,1-2.52-2.52A2.52,2.52,0,0,1,82.6,235.27Z" style="fill: rgb(166, 166, 166); transform-origin: 80.08px 235.27px;" id="elxeh3sh6l1gm" class="animable"></path><path d="M92.89,235.27a2.52,2.52,0,1,1-2.52-2.52A2.52,2.52,0,0,1,92.89,235.27Z" style="fill: rgb(235, 235, 235); transform-origin: 90.37px 235.27px;" id="ely1w1ozunel9" class="animable"></path><path d="M103.18,235.27a2.52,2.52,0,1,1-2.52-2.52A2.51,2.51,0,0,1,103.18,235.27Z" style="fill: rgb(20, 162, 184); transform-origin: 100.66px 235.27px;" id="elmshcgwve5c" class="animable"></path><rect x="73.2" y="239.71" width="125.64" height="1" style="fill: rgb(235, 235, 235); transform-origin: 136.02px 240.21px;" id="eltnjnd44npqf" class="animable"></rect><path d="M389.29,273.45a21.71,21.71,0,0,1-6.42,2.69,22.26,22.26,0,1,1,6.42-2.69Z" style="fill: rgb(235, 235, 235); transform-origin: 377.583px 254.517px;" id="el8toxfvn1wrk" class="animable"></path><path d="M384.36,252a6.77,6.77,0,1,1-6.77-6.77A6.78,6.78,0,0,1,384.36,252Z" style="fill: rgb(255, 255, 255); transform-origin: 377.59px 252px;" id="el7q86govsc" class="animable"></path><path d="M389.29,270.66v2.79a21.71,21.71,0,0,1-6.42,2.69,22.13,22.13,0,0,1-17-2.7v-2.78a11.7,11.7,0,0,1,23.4,0Z" style="fill: rgb(255, 255, 255); transform-origin: 377.58px 267.88px;" id="els9xqaqjfrw" class="animable"></path></g><g id="freepik--Desk--inject-90" class="animable" style="transform-origin: 250px 438.3px;"><polygon points="26.18 438.3 82.14 438.06 138.09 437.97 250 437.8 361.91 437.97 417.87 438.06 473.82 438.3 417.87 438.55 361.91 438.63 250 438.8 138.09 438.63 82.14 438.55 26.18 438.3" style="fill: rgb(38, 50, 56); transform-origin: 250px 438.3px;" id="elg9okm9kfvlw" class="animable"></polygon></g><g id="freepik--Device--inject-90" class="animable" style="transform-origin: 243.08px 355.23px;"><rect x="74.63" y="427.74" width="127.4" height="10.55" style="fill: rgb(69, 90, 100); transform-origin: 138.33px 433.015px;" id="ela932w471ox" class="animable"></rect><rect x="202.02" y="427.74" width="242.58" height="10.55" style="fill: rgb(55, 71, 79); transform-origin: 323.31px 433.015px;" id="eldbto1v8jvdl" class="animable"></rect><polygon points="317.23 427.74 74.63 427.74 41.56 272.17 284.16 272.17 317.23 427.74" style="fill: rgb(38, 50, 56); transform-origin: 179.395px 349.955px;" id="elyqf0quwk47q" class="animable"></polygon><polygon points="151.25 417.91 82.36 417.91 53.47 281.99 122.36 281.99 151.25 417.91" style="fill: rgb(255, 255, 255); transform-origin: 102.36px 349.95px;" id="elwm5sd70kzi" class="animable"></polygon><path d="M80.92,333a4.6,4.6,0,0,1-1.6.73,6.55,6.55,0,0,1-4.78-.73,8.2,8.2,0,0,1-3.5-3.72c-1.48-3.26-.19-6.54,2.9-7.33s6.79,1.2,8.28,4.45C83.42,329.06,82.81,331.7,80.92,333Z" style="fill: rgb(199, 199, 199); transform-origin: 76.6323px 327.837px;" id="elqrsv5izui8g" class="animable"></path><path d="M78.33,327.19A1.44,1.44,0,0,1,76.88,329a2.39,2.39,0,0,1-2.24-1.84,1.45,1.45,0,0,1,1.45-1.85A2.41,2.41,0,0,1,78.33,327.19Z" style="fill: rgb(255, 255, 255); transform-origin: 76.481px 327.155px;" id="ellkzgahri81" class="animable"></path><path d="M80.76,332.28l.16.76a4.6,4.6,0,0,1-1.6.73,6.55,6.55,0,0,1-4.78-.73l-.16-.76a2.5,2.5,0,0,1,2.51-3.19A4.17,4.17,0,0,1,80.76,332.28Z" style="fill: rgb(255, 255, 255); transform-origin: 77.6011px 331.513px;" id="eltqhtypvapgl" class="animable"></path><polygon points="113.87 324.19 86.24 324.19 85.73 321.81 113.36 321.81 113.87 324.19" style="fill: rgb(199, 199, 199); transform-origin: 99.8px 323px;" id="elka29ivbqb7" class="animable"></polygon><polygon points="124.92 328.56 87.17 328.56 86.87 327.19 124.63 327.19 124.92 328.56" style="fill: rgb(199, 199, 199); transform-origin: 105.895px 327.875px;" id="elf2h2s55fm7l" class="animable"></polygon><polygon points="125.55 331.52 87.79 331.52 87.5 330.15 125.25 330.15 125.55 331.52" style="fill: rgb(199, 199, 199); transform-origin: 106.525px 330.835px;" id="el7xxh3rdyaz" class="animable"></polygon><path d="M85,352a4.64,4.64,0,0,1-1.59.73,6.57,6.57,0,0,1-4.79-.73,8.13,8.13,0,0,1-3.49-3.72c-1.49-3.26-.2-6.54,2.89-7.33s6.79,1.2,8.28,4.45C87.45,348,86.84,350.67,85,352Z" style="fill: rgb(20, 162, 184); transform-origin: 80.6971px 346.837px;" id="elhwidj7lu1vk" class="animable"></path><path d="M82.36,346.16A1.44,1.44,0,0,1,80.91,348a2.4,2.4,0,0,1-2.24-1.84,1.45,1.45,0,0,1,1.45-1.85A2.41,2.41,0,0,1,82.36,346.16Z" style="fill: rgb(255, 255, 255); transform-origin: 80.5153px 346.155px;" id="elbqk4vs3ey6b" class="animable"></path><path d="M84.79,351.25,85,352a4.64,4.64,0,0,1-1.59.73,6.57,6.57,0,0,1-4.79-.73l-.16-.76a2.5,2.5,0,0,1,2.51-3.19A4.17,4.17,0,0,1,84.79,351.25Z" style="fill: rgb(255, 255, 255); transform-origin: 81.6811px 350.473px;" id="el7hannnr54vd" class="animable"></path><polygon points="117.9 343.17 90.27 343.17 89.76 340.78 117.4 340.78 117.9 343.17" style="fill: rgb(199, 199, 199); transform-origin: 103.83px 341.975px;" id="elqvjc8vdu7o" class="animable"></polygon><polygon points="128.95 347.53 91.2 347.53 90.91 346.16 128.66 346.16 128.95 347.53" style="fill: rgb(199, 199, 199); transform-origin: 109.93px 346.845px;" id="elm5a0tm8oab" class="animable"></polygon><polygon points="129.58 350.49 91.83 350.49 91.53 349.12 129.29 349.12 129.58 350.49" style="fill: rgb(199, 199, 199); transform-origin: 110.555px 349.805px;" id="el1mk412esz0v" class="animable"></polygon><path d="M89,371a4.64,4.64,0,0,1-1.59.73A6.57,6.57,0,0,1,82.6,371a8.13,8.13,0,0,1-3.49-3.72c-1.49-3.25-.19-6.54,2.89-7.33s6.8,1.2,8.29,4.45C91.48,367,90.87,369.64,89,371Z" style="fill: rgb(69, 90, 100); transform-origin: 84.6968px 365.839px;" id="el3h8iru45m0h" class="animable"></path><path d="M86.39,365.13A1.44,1.44,0,0,1,84.94,367a2.4,2.4,0,0,1-2.24-1.84,1.45,1.45,0,0,1,1.46-1.85A2.4,2.4,0,0,1,86.39,365.13Z" style="fill: rgb(255, 255, 255); transform-origin: 84.5498px 365.155px;" id="elq92fyqm4t89" class="animable"></path><path d="M88.82,370.22,89,371a4.64,4.64,0,0,1-1.59.73A6.57,6.57,0,0,1,82.6,371l-.16-.76A2.51,2.51,0,0,1,85,367,4.16,4.16,0,0,1,88.82,370.22Z" style="fill: rgb(255, 255, 255); transform-origin: 85.665px 369.448px;" id="el9siz2vgm56b" class="animable"></path><polygon points="121.94 362.14 94.3 362.14 93.8 359.75 121.43 359.75 121.94 362.14" style="fill: rgb(199, 199, 199); transform-origin: 107.87px 360.945px;" id="eld1paaznrrnp" class="animable"></polygon><polygon points="132.98 366.5 95.23 366.5 94.94 365.13 132.69 365.13 132.98 366.5" style="fill: rgb(199, 199, 199); transform-origin: 113.96px 365.815px;" id="el0hmlzk9uo2wc" class="animable"></polygon><polygon points="133.61 369.46 95.86 369.46 95.57 368.09 133.32 368.09 133.61 369.46" style="fill: rgb(199, 199, 199); transform-origin: 114.59px 368.775px;" id="el5kvpiyz4h8o" class="animable"></polygon><path d="M93,390a4.75,4.75,0,0,1-1.59.74,6.63,6.63,0,0,1-4.79-.74,8.23,8.23,0,0,1-3.49-3.72C81.65,383,83,379.69,86,378.9s6.79,1.2,8.28,4.45C95.51,386,94.91,388.61,93,390Z" style="fill: rgb(38, 50, 56); transform-origin: 88.7239px 384.814px;" id="elbl4r0y5ylre" class="animable"></path><path d="M90.43,384.1A1.46,1.46,0,0,1,89,386a2.41,2.41,0,0,1-2.24-1.85,1.46,1.46,0,0,1,1.46-1.85A2.41,2.41,0,0,1,90.43,384.1Z" style="fill: rgb(255, 255, 255); transform-origin: 88.6024px 384.15px;" id="ela85xekjx2c6" class="animable"></path><path d="M92.85,389.19,93,390a4.75,4.75,0,0,1-1.59.74,6.63,6.63,0,0,1-4.79-.74l-.16-.76A2.51,2.51,0,0,1,89,386,4.15,4.15,0,0,1,92.85,389.19Z" style="fill: rgb(255, 255, 255); transform-origin: 89.6752px 388.449px;" id="elxzbzrj51bme" class="animable"></path><polygon points="125.97 381.11 98.33 381.11 97.83 378.72 125.46 378.72 125.97 381.11" style="fill: rgb(199, 199, 199); transform-origin: 111.9px 379.915px;" id="ellbxsr5tpmen" class="animable"></polygon><polygon points="137.01 385.47 99.26 385.47 98.97 384.1 136.72 384.1 137.01 385.47" style="fill: rgb(199, 199, 199); transform-origin: 117.99px 384.785px;" id="elw0qv3trt11" class="animable"></polygon><polygon points="137.64 388.43 99.89 388.43 99.6 387.06 137.35 387.06 137.64 388.43" style="fill: rgb(199, 199, 199); transform-origin: 118.62px 387.745px;" id="el355vovertz2" class="animable"></polygon><path d="M97.05,408.92a4.8,4.8,0,0,1-1.6.74,6.6,6.6,0,0,1-4.78-.74,8.2,8.2,0,0,1-3.5-3.72c-1.48-3.25-.19-6.54,2.9-7.33s6.79,1.2,8.28,4.46C99.55,405,98.94,407.58,97.05,408.92Z" style="fill: rgb(199, 199, 199); transform-origin: 92.7623px 403.759px;" id="elcd1qgs4x22m" class="animable"></path><path d="M94.46,403.07A1.45,1.45,0,0,1,93,404.92a2.4,2.4,0,0,1-2.23-1.85,1.45,1.45,0,0,1,1.45-1.85A2.41,2.41,0,0,1,94.46,403.07Z" style="fill: rgb(255, 255, 255); transform-origin: 92.6151px 403.07px;" id="elw55ze3mt8xq" class="animable"></path><path d="M96.89,408.16l.16.76a4.8,4.8,0,0,1-1.6.74,6.6,6.6,0,0,1-4.78-.74l-.17-.76A2.51,2.51,0,0,1,93,405,4.18,4.18,0,0,1,96.89,408.16Z" style="fill: rgb(255, 255, 255); transform-origin: 93.732px 407.41px;" id="elfuygqjrgutd" class="animable"></path><polygon points="130 400.08 102.37 400.08 101.86 397.69 129.5 397.69 130 400.08" style="fill: rgb(199, 199, 199); transform-origin: 115.93px 398.885px;" id="elnjxihg4ybah" class="animable"></polygon><polygon points="141.05 404.44 103.3 404.44 103 403.07 140.75 403.07 141.05 404.44" style="fill: rgb(199, 199, 199); transform-origin: 122.025px 403.755px;" id="eljofg03tvhmf" class="animable"></polygon><polygon points="141.68 407.4 103.92 407.4 103.63 406.03 141.38 406.03 141.68 407.4" style="fill: rgb(199, 199, 199); transform-origin: 122.655px 406.715px;" id="elq3t0ggzl1u" class="animable"></polygon><path d="M70.55,300.68a3,3,0,0,1-1,.46,4.1,4.1,0,0,1-3-.46,5.07,5.07,0,0,1-2.17-2.31c-.93-2-.12-4.07,1.8-4.57a4.76,4.76,0,0,1,5.16,2.78A3.24,3.24,0,0,1,70.55,300.68Z" style="fill: rgb(199, 199, 199); transform-origin: 67.8731px 297.489px;" id="elzn0pdyuabs" class="animable"></path><path d="M68.93,297a.9.9,0,0,1-.9,1.15A1.49,1.49,0,0,1,66.64,297a.9.9,0,0,1,.9-1.15A1.5,1.5,0,0,1,68.93,297Z" style="fill: rgb(255, 255, 255); transform-origin: 67.785px 297px;" id="el2j5vq25omjz" class="animable"></path><path d="M70.44,300.21l.11.47a3,3,0,0,1-1,.46,4.1,4.1,0,0,1-3-.46l-.1-.47a1.57,1.57,0,0,1,1.57-2A2.59,2.59,0,0,1,70.44,300.21Z" style="fill: rgb(255, 255, 255); transform-origin: 68.4698px 299.727px;" id="el1xsqlpsohkn" class="animable"></path><path d="M117.85,298.3a.24.24,0,0,1,.25-.31.42.42,0,0,1,.39.31.26.26,0,0,1-.26.32A.4.4,0,0,1,117.85,298.3Z" style="fill: rgb(199, 199, 199); transform-origin: 118.168px 298.305px;" id="elyhwq47m6rsc" class="animable"></path><path d="M117.58,297a.25.25,0,0,1,.25-.32.41.41,0,0,1,.39.32.25.25,0,0,1-.25.32A.41.41,0,0,1,117.58,297Z" style="fill: rgb(199, 199, 199); transform-origin: 117.9px 297px;" id="elakg28z8iyw5" class="animable"></path><path d="M117.31,295.78a.25.25,0,0,1,.25-.32.41.41,0,0,1,.39.32.25.25,0,0,1-.25.32A.43.43,0,0,1,117.31,295.78Z" style="fill: rgb(199, 199, 199); transform-origin: 117.63px 295.78px;" id="elxu0lgyi2jmi" class="animable"></path><polygon points="113.2 297.85 109.55 297.85 109.04 295.46 112.69 295.46 113.2 297.85" style="fill: rgb(199, 199, 199); transform-origin: 111.12px 296.655px;" id="el5gkxve4zpn3" class="animable"></polygon><polygon points="109.55 297.85 109.71 298.62 110.34 297.85 109.55 297.85" style="fill: rgb(199, 199, 199); transform-origin: 109.945px 298.235px;" id="el05bmqyudmppn" class="animable"></polygon><polygon points="112.13 296.1 109.87 296.1 109.82 295.87 112.08 295.87 112.13 296.1" style="fill: rgb(255, 255, 255); transform-origin: 110.975px 295.985px;" id="elcj0fk0qel1s" class="animable"></polygon><polygon points="112.23 296.57 109.97 296.57 109.92 296.35 112.19 296.35 112.23 296.57" style="fill: rgb(255, 255, 255); transform-origin: 111.075px 296.46px;" id="el2mw9rrddn2q" class="animable"></polygon><polygon points="112.33 297.04 110.07 297.04 110.03 296.82 112.29 296.82 112.33 297.04" style="fill: rgb(255, 255, 255); transform-origin: 111.18px 296.93px;" id="elvf1he3288oh" class="animable"></polygon><polygon points="277.99 289.34 55.03 289.34 53.47 281.99 276.43 281.99 277.99 289.34" style="fill: rgb(55, 71, 79); transform-origin: 165.73px 285.665px;" id="elvk55kgqsgb" class="animable"></polygon><path d="M60.09,285.66a1.43,1.43,0,0,1-1.43,1.83,2.37,2.37,0,0,1-2.21-1.83,1.43,1.43,0,0,1,1.43-1.82A2.37,2.37,0,0,1,60.09,285.66Z" style="fill: rgb(199, 199, 199); transform-origin: 58.2715px 285.665px;" id="elpt163ld581l" class="animable"></path><path d="M67.54,285.66a1.44,1.44,0,0,1-1.44,1.83,2.39,2.39,0,0,1-2.21-1.83,1.43,1.43,0,0,1,1.44-1.82A2.37,2.37,0,0,1,67.54,285.66Z" style="fill: rgb(255, 255, 255); transform-origin: 65.7147px 285.665px;" id="elzenibx0ibu" class="animable"></path><path d="M75,285.66a1.43,1.43,0,0,1-1.43,1.83,2.37,2.37,0,0,1-2.21-1.83,1.43,1.43,0,0,1,1.43-1.82A2.37,2.37,0,0,1,75,285.66Z" style="fill: rgb(20, 162, 184); transform-origin: 73.1815px 285.665px;" id="elccbi3gehbki" class="animable"></path><polygon points="277.99 289.34 123.92 289.34 151.25 417.91 305.32 417.91 277.99 289.34" style="fill: rgb(235, 235, 235); transform-origin: 214.62px 353.625px;" id="elq7a28hqpq8" class="animable"></polygon><polygon points="292.01 411.71 164.07 411.71 162.47 404.22 290.42 404.22 292.01 411.71" style="fill: rgb(255, 255, 255); transform-origin: 227.24px 407.965px;" id="elghb6s0wpzhc" class="animable"></polygon><path d="M289.45,408.06a1.45,1.45,0,0,1-1.45,1.85,2.42,2.42,0,0,1-2.24-1.85,1.45,1.45,0,0,1,1.46-1.84A2.4,2.4,0,0,1,289.45,408.06Z" style="fill: rgb(20, 162, 184); transform-origin: 287.606px 408.065px;" id="elemcib44z278" class="animable"></path><polygon points="287.04 407 288.41 408.06 287.5 409.13 287.21 408.88 287.9 408.06 286.86 407.25 287.04 407" style="fill: rgb(255, 255, 255); transform-origin: 287.635px 408.065px;" id="elkkrcy8gw3no" class="animable"></polygon><polygon points="165.85 410.2 165.36 410.2 164.41 405.73 164.9 405.73 165.85 410.2" style="fill: rgb(38, 50, 56); transform-origin: 165.13px 407.965px;" id="ell4ainnsp7dl" class="animable"></polygon><path d="M297,411.77a.2.2,0,0,1-.19-.15l-.38-1.8a.12.12,0,0,1,.12-.16.21.21,0,0,1,.19.16l.38,1.8A.12.12,0,0,1,297,411.77Z" style="fill: rgb(166, 166, 166); transform-origin: 296.773px 410.715px;" id="el57b5tl2mv43" class="animable"></path><path d="M298,411.77h-2a.2.2,0,0,1-.19-.15.13.13,0,0,1,.12-.16h2a.2.2,0,0,1,.19.16A.12.12,0,0,1,298,411.77Z" style="fill: rgb(166, 166, 166); transform-origin: 296.965px 411.615px;" id="elhibf43feyc5" class="animable"></path><path d="M297,405.49l.55,2.61a1,1,0,0,1-1,1.27,1.62,1.62,0,0,1-1.28-.71,1.49,1.49,0,0,1-.25-.56l-.56-2.61a1,1,0,0,1,1-1.27,1.52,1.52,0,0,1,1,.37,1.57,1.57,0,0,1,.55.84S297,405.47,297,405.49Z" style="fill: rgb(166, 166, 166); transform-origin: 296.005px 406.795px;" id="elp6gw71sqcse" class="animable"></path><path d="M296.64,410a2.24,2.24,0,0,1-1.38-.51,2.35,2.35,0,0,1-.85-1.33l-.23-1.1a.12.12,0,0,1,.12-.16.19.19,0,0,1,.18.16l.24,1.1a2,2,0,0,0,.71,1.11,1.83,1.83,0,0,0,1.22.42,1.23,1.23,0,0,0,1.12-1.58l-.22-1.05a.12.12,0,0,1,.12-.16.19.19,0,0,1,.18.16l.23,1.05a1.47,1.47,0,0,1-1.36,1.89Z" style="fill: rgb(166, 166, 166); transform-origin: 296.157px 408.45px;" id="el2tlbgzefatx" class="animable"></path><path d="M160.55,408a3,3,0,0,1-2.93,3.77,4.9,4.9,0,0,1-4.55-3.73,3,3,0,0,1,2.93-3.77A4.88,4.88,0,0,1,160.55,408Z" style="fill: rgb(255, 255, 255); transform-origin: 156.81px 408.02px;" id="elzs0fzschy2i" class="animable"></path><path d="M155.39,407.23a.41.41,0,0,1-.41.53.69.69,0,0,1-.65-.52.42.42,0,0,1,.42-.53A.68.68,0,0,1,155.39,407.23Z" style="fill: rgb(166, 166, 166); transform-origin: 154.862px 407.235px;" id="elm85qb12jdhn" class="animable"></path><path d="M159,407.22a.41.41,0,0,1-.41.53.69.69,0,0,1-.64-.53.41.41,0,0,1,.41-.53A.69.69,0,0,1,159,407.22Z" style="fill: rgb(166, 166, 166); transform-origin: 158.475px 407.22px;" id="elwb0npyzu89t" class="animable"></path><path d="M157.41,407.06a.69.69,0,0,1-.07.5.62.62,0,0,1-.55.3,1,1,0,0,1-.69-.29,1,1,0,0,1-.28-.5Z" style="fill: rgb(166, 166, 166); transform-origin: 156.625px 407.46px;" id="elww8tcwvedm" class="animable"></path><path d="M157.34,407.56a.62.62,0,0,1-.55.3,1,1,0,0,1-.69-.29.77.77,0,0,1,.57-.23A1.14,1.14,0,0,1,157.34,407.56Z" style="fill: rgb(219, 219, 219); transform-origin: 156.72px 407.6px;" id="elitme7g4pgk" class="animable"></path><path d="M71.33,313.54l-.47.43-1.32-1.37-.48-.5a.55.55,0,0,0,.19-.12.69.69,0,0,0,.21-.37l.51.53Z" style="fill: rgb(166, 166, 166); transform-origin: 70.195px 312.79px;" id="el7gwdbs2cram" class="animable"></path><path d="M69.55,310.34a1.61,1.61,0,0,0-2.19-.29,1.5,1.5,0,0,0,.17,2.14,1.68,1.68,0,0,0,2,.41.83.83,0,0,0,.18-.13,1.11,1.11,0,0,0,.25-.33A1.62,1.62,0,0,0,69.55,310.34Zm-.3,1.64a.55.55,0,0,1-.19.12,1,1,0,0,1-1.12-.29.89.89,0,0,1-.11-1.27,1,1,0,0,1,1.32.17,1.06,1.06,0,0,1,.31.9A.69.69,0,0,1,69.25,312Z" style="fill: rgb(166, 166, 166); transform-origin: 68.5332px 311.257px;" id="elyj995p63yed" class="animable"></path><path d="M77.32,312.52a.08.08,0,0,1,.12,0,1.75,1.75,0,0,0,1,.35.83.83,0,0,0,.56-.18.39.39,0,0,0,.15-.4.54.54,0,0,0-.3-.37,2.08,2.08,0,0,0-.68-.23h0a1.81,1.81,0,0,1-.69-.23.73.73,0,0,1-.38-.47.51.51,0,0,1,.18-.51.9.9,0,0,1,.61-.2,1.93,1.93,0,0,1,.91.31.11.11,0,0,1,0,.13.07.07,0,0,1-.11,0,1.69,1.69,0,0,0-.81-.29.85.85,0,0,0-.52.16.39.39,0,0,0-.14.38.55.55,0,0,0,.28.33,2,2,0,0,0,.62.21h0a2.14,2.14,0,0,1,.75.25.8.8,0,0,1,.41.51.57.57,0,0,1-.2.55,1,1,0,0,1-.65.21,2.07,2.07,0,0,1-1.09-.39A.1.1,0,0,1,77.32,312.52Z" style="fill: rgb(166, 166, 166); transform-origin: 78.189px 311.655px;" id="elc0wtikcw5yh" class="animable"></path><path d="M79.77,312.07a.74.74,0,0,1,.73-.95,1.21,1.21,0,0,1,1.1.89h0a.08.08,0,0,1-.08.09H80a1,1,0,0,0,.89.73.54.54,0,0,0,.54-.35.09.09,0,0,1,.12,0,.11.11,0,0,1,.06.13.72.72,0,0,1-.68.44A1.23,1.23,0,0,1,79.77,312.07Zm.17-.15h1.44a1,1,0,0,0-.84-.62A.58.58,0,0,0,79.94,311.92Z" style="fill: rgb(166, 166, 166); transform-origin: 80.6768px 312.085px;" id="eld4o340qk79" class="animable"></path><path d="M83.7,311.21l.36,1.72a.08.08,0,0,1-.07.1.13.13,0,0,1-.11-.1l-.06-.28a.72.72,0,0,1-.64.38,1.22,1.22,0,0,1-1.1-1,.72.72,0,0,1,.69-.95,1.14,1.14,0,0,1,.8.37l-.06-.28c0-.06,0-.09.07-.09A.11.11,0,0,1,83.7,311.21Zm0,.86a1,1,0,0,0-.88-.77.59.59,0,0,0-.55.77,1,1,0,0,0,.88.77A.59.59,0,0,0,83.69,312.07Z" style="fill: rgb(166, 166, 166); transform-origin: 83.0524px 312.055px;" id="elry14wmdgfjb" class="animable"></path><path d="M84.51,311.21a.07.07,0,0,1,.08-.09.13.13,0,0,1,.11.09l.09.42a.06.06,0,0,1,0,0,.71.71,0,0,1,.67-.47.12.12,0,0,1,.11.09c0,.06,0,.1-.07.1a.54.54,0,0,0-.49.31,1.41,1.41,0,0,0-.13.44v0l.18.84c0,.06,0,.1-.07.1a.14.14,0,0,1-.12-.1Z" style="fill: rgb(166, 166, 166); transform-origin: 85.0383px 312.079px;" id="el4v07csxd1i" class="animable"></path><path d="M86.17,312.07a.75.75,0,0,1,.78-.95,1.14,1.14,0,0,1,.65.21.11.11,0,0,1,0,.13.1.1,0,0,1-.13,0,.93.93,0,0,0-.53-.17.61.61,0,0,0-.63.77,1,1,0,0,0,1,.77.67.67,0,0,0,.46-.17.1.1,0,0,1,.13,0s0,.1,0,.13a.8.8,0,0,1-.56.21A1.25,1.25,0,0,1,86.17,312.07Z" style="fill: rgb(166, 166, 166); transform-origin: 87.0211px 312.059px;" id="elleop8b1dauo" class="animable"></path><path d="M89.89,311.87a.75.75,0,0,0-.73-.56.44.44,0,0,0-.48.56l.22,1.06h0a0,0,0,0,1,0,0v0a.07.07,0,0,1-.05,0h0l-.08,0,0,0v0l-.22-1.06v0l-.31-1.45a.07.07,0,0,1,.07-.09.12.12,0,0,1,.12.09l.22,1a.61.61,0,0,1,.54-.28,1,1,0,0,1,1,.75l.22,1.06a.08.08,0,0,1-.07.1.13.13,0,0,1-.12-.1Z" style="fill: rgb(166, 166, 166); transform-origin: 89.3248px 311.69px;" id="el8xv1s2dqodi" class="animable"></path><path d="M92,312.07a.75.75,0,0,1,.78-.95,1.14,1.14,0,0,1,.65.21.11.11,0,0,1,0,.13.1.1,0,0,1-.13,0,.93.93,0,0,0-.53-.17.61.61,0,0,0-.63.77,1,1,0,0,0,1,.77.67.67,0,0,0,.46-.17.1.1,0,0,1,.13,0s0,.1,0,.13a.8.8,0,0,1-.56.21A1.25,1.25,0,0,1,92,312.07Z" style="fill: rgb(166, 166, 166); transform-origin: 92.8511px 312.059px;" id="elxdicxu1j36" class="animable"></path><path d="M95.67,311.87a.75.75,0,0,0-.73-.56.44.44,0,0,0-.48.56l.22,1.06h0a0,0,0,0,1,0,0v0a.07.07,0,0,1-.05,0h0l-.08,0,0,0a0,0,0,0,1,0,0l-.23-1.06v0L94,310.39a.07.07,0,0,1,.07-.09.12.12,0,0,1,.12.09l.21,1a.64.64,0,0,1,.55-.28,1,1,0,0,1,1,.75l.22,1.06a.08.08,0,0,1-.08.1.13.13,0,0,1-.11-.1Z" style="fill: rgb(166, 166, 166); transform-origin: 95.0848px 311.66px;" id="eli6q03ajhb3" class="animable"></path><path d="M98.27,311.21l.36,1.72a.08.08,0,0,1-.07.1.13.13,0,0,1-.11-.1l-.06-.28a.72.72,0,0,1-.64.38,1.24,1.24,0,0,1-1.11-1,.73.73,0,0,1,.7-.95,1.14,1.14,0,0,1,.8.37l-.06-.28c0-.06,0-.09.07-.09A.13.13,0,0,1,98.27,311.21Zm0,.86a1,1,0,0,0-.88-.77.59.59,0,0,0-.55.77,1,1,0,0,0,.88.77A.59.59,0,0,0,98.26,312.07Z" style="fill: rgb(166, 166, 166); transform-origin: 97.6193px 312.055px;" id="eltc227s94b2n" class="animable"></path><path d="M99.74,311.21a.07.07,0,0,1-.07.09h-.24l.29,1.39a.18.18,0,0,0,.17.14.15.15,0,0,1,.12.1.08.08,0,0,1-.08.1.41.41,0,0,1-.4-.34l-.3-1.39H99c-.09,0-.1,0-.11-.09s0-.09.07-.09h.24l-.15-.71a.08.08,0,0,1,.07-.1s.12.05.12.1l.16.71h.24A.12.12,0,0,1,99.74,311.21Z" style="fill: rgb(166, 166, 166); transform-origin: 99.4496px 311.67px;" id="el34uzfe206lo" class="animable"></path><rect x="61.04" y="317.49" width="68.89" height="0.25" style="fill: rgb(166, 166, 166); transform-origin: 95.485px 317.615px;" id="elmeow17m3ibq" class="animable"></rect><rect x="58.55" y="305.75" width="68.89" height="0.25" style="fill: rgb(166, 166, 166); transform-origin: 92.995px 305.875px;" id="elcqnx7hu593q" class="animable"></rect></g><g id="freepik--Mug--inject-90" class="animable" style="transform-origin: 70.8239px 413.885px;"><rect x="65.19" y="434.56" width="23.89" height="3.73" style="fill: rgb(20, 162, 184); transform-origin: 77.135px 436.425px;" id="elrar0pxtl1fi" class="animable"></rect><g id="elcmbi1j9l4wf"><rect x="65.19" y="434.56" width="23.89" height="2.46" style="opacity: 0.1; transform-origin: 77.135px 435.79px;" class="animable"></rect></g><path d="M36.83,424.54a13.18,13.18,0,0,0,15.88,5,17.75,17.75,0,0,0,3.38-1.77l-3-4.5a10.65,10.65,0,0,1-1.79,1c-5.69,2.58-9.29-1.9-10-2.93-3.28-4.6-4.45-15.11-1.13-19.15.22-.3,1.18-.78,5,0,.71.16,1.51.34,2.42.59a9.41,9.41,0,0,0,2.19.47l.09-2.7.27-2.7c-.25,0-.64-.15-1.14-.29a35.1,35.1,0,0,0-5.44-1.13c-2.83-.29-5.79,0-7.61,2.28C30.55,405.41,32.73,418.77,36.83,424.54Z" style="fill: rgb(20, 162, 184); transform-origin: 44.4139px 413.405px;" id="eljb3i23fo24" class="animable"></path><g id="ela8h1iyxng6n"><path d="M53.05,423.32a10.65,10.65,0,0,1-1.79,1l1.45,5.26a17.75,17.75,0,0,0,3.38-1.77Z" style="opacity: 0.1; transform-origin: 53.675px 426.45px;" class="animable"></path></g><g id="el0k2u3npzhje"><path d="M43.55,396.53l1.61,5.76c.71.16,1.51.34,2.42.59a9.41,9.41,0,0,0,2.19.47l.09-2.7.27-2.7c-.25,0-.64-.15-1.14-.29A35.1,35.1,0,0,0,43.55,396.53Z" style="opacity: 0.1; transform-origin: 46.84px 399.94px;" class="animable"></path></g><path d="M108.91,389.48s-2.86,24.35-7.81,34.61-11.86,11.38-16.16,11.38H69.33c-4.3,0-11.21-1.14-16.16-11.38s-7.81-34.61-7.81-34.61Z" style="fill: rgb(20, 162, 184); transform-origin: 77.135px 412.475px;" id="elkvqf7e1vw0a" class="animable"></path></g><g id="freepik--speech-bubbles--inject-90" class="animable animator-active" style="transform-origin: 298.51px 270.075px;"><polygon points="238.67 330.1 377.32 330.1 377.32 272.15 238.67 272.15 238.67 272.15 238.67 330.1 238.67 330.1" style="fill: rgb(69, 90, 100); transform-origin: 307.995px 301.125px;" id="elx9owe9ceyw" class="animable"></polygon><polygon points="377.32 289.24 377.32 272.15 395.11 272.15 377.32 289.24" style="fill: rgb(69, 90, 100); transform-origin: 386.215px 280.695px;" id="elsvamwqthwob" class="animable"></polygon><rect x="249.24" y="282.17" width="117.5" height="1.1" style="fill: rgb(255, 255, 255); transform-origin: 307.99px 282.72px;" id="elta2fy73qwyq" class="animable"></rect><rect x="249.24" y="288.11" width="83.58" height="1.1" style="fill: rgb(255, 255, 255); transform-origin: 291.03px 288.66px;" id="elwh6hf4p23i" class="animable"></rect><rect x="249.24" y="300.01" width="104.07" height="1.1" style="fill: rgb(255, 255, 255); transform-origin: 301.275px 300.56px;" id="elcpcrm2jtn5u" class="animable"></rect><rect x="249.24" y="305.95" width="117.5" height="1.1" style="fill: rgb(255, 255, 255); transform-origin: 307.99px 306.5px;" id="el435if9rqcdr" class="animable"></rect><rect x="249.24" y="311.9" width="117.5" height="1.1" style="fill: rgb(255, 255, 255); transform-origin: 307.99px 312.45px;" id="eltvrfl4ncdif" class="animable"></rect><rect x="249.24" y="317.85" width="72.24" height="1.1" style="fill: rgb(255, 255, 255); transform-origin: 285.36px 318.4px;" id="elpgsce35ibqn" class="animable"></rect><rect x="219.71" y="165.33" width="138.65" height="48.9" style="fill: rgb(20, 162, 184); transform-origin: 289.035px 189.78px;" id="ele90jai1kgss" class="animable"></rect><polygon points="219.73 182.43 219.73 165.33 201.93 165.33 219.73 182.43" style="fill: rgb(20, 162, 184); transform-origin: 210.83px 173.88px;" id="elmmn3h0n06r" class="animable"></polygon><rect x="230.49" y="174.36" width="90.19" height="1.1" style="fill: rgb(255, 255, 255); transform-origin: 275.585px 174.91px;" id="elz4ud3rrqqa" class="animable"></rect><rect x="230.49" y="180.31" width="117.5" height="1.1" style="fill: rgb(255, 255, 255); transform-origin: 289.24px 180.86px;" id="el2z63b80xhwa" class="animable"></rect><rect x="230.49" y="186.26" width="117.5" height="1.1" style="fill: rgb(255, 255, 255); transform-origin: 289.24px 186.81px;" id="elemnrjd7hj6b" class="animable"></rect><rect x="230.49" y="192.2" width="104.56" height="1.1" style="fill: rgb(255, 255, 255); transform-origin: 282.77px 192.75px;" id="elpnx6a4p74ne" class="animable"></rect><rect x="230.49" y="198.15" width="117.5" height="1.1" style="fill: rgb(255, 255, 255); transform-origin: 289.24px 198.7px;" id="el3jmlwvyg1p6" class="animable"></rect><rect x="230.49" y="204.1" width="74.83" height="1.1" style="fill: rgb(255, 255, 255); transform-origin: 267.905px 204.65px;" id="elpo3n7dc6bli" class="animable"></rect><rect x="219.71" y="222.14" width="138.65" height="36.26" style="fill: rgb(20, 162, 184); transform-origin: 289.035px 240.27px;" id="eld7zlcs525bp" class="animable"></rect><polygon points="219.73 239.23 219.73 222.14 201.93 222.14 219.73 239.23" style="fill: rgb(20, 162, 184); transform-origin: 210.83px 230.685px;" id="elx3i89f61kia" class="animable"></polygon><rect x="230.49" y="231.17" width="117.21" height="1.1" style="fill: rgb(255, 255, 255); transform-origin: 289.095px 231.72px;" id="ellfhqjqdngqd" class="animable"></rect><rect x="230.49" y="237.12" width="88.35" height="1.1" style="fill: rgb(255, 255, 255); transform-origin: 274.665px 237.67px;" id="el3q79ul0ii2v" class="animable"></rect><rect x="230.49" y="243.06" width="101.84" height="1.1" style="fill: rgb(255, 255, 255); transform-origin: 281.41px 243.61px;" id="elwik9xaw64il" class="animable"></rect><rect x="230.49" y="249.01" width="68.06" height="1.1" style="fill: rgb(255, 255, 255); transform-origin: 264.52px 249.56px;" id="elrawhdw4v80k" class="animable"></rect><rect x="219.71" y="341.37" width="138.65" height="33.45" style="fill: rgb(20, 162, 184); transform-origin: 289.035px 358.095px;" id="elelc4jverj2k" class="animable"></rect><polygon points="219.71 358.46 219.71 341.37 201.91 341.37 219.71 358.46" style="fill: rgb(20, 162, 184); transform-origin: 210.81px 349.915px;" id="el239jr1g2hjg" class="animable"></polygon><rect x="230.49" y="350.4" width="108.42" height="1.1" style="fill: rgb(255, 255, 255); transform-origin: 284.7px 350.95px;" id="eljbagi1g0ixs" class="animable"></rect><rect x="230.49" y="356.34" width="80.34" height="1.1" style="fill: rgb(255, 255, 255); transform-origin: 270.66px 356.89px;" id="elsn959tp84lp" class="animable"></rect><rect x="230.49" y="362.29" width="100.88" height="1.1" style="fill: rgb(255, 255, 255); transform-origin: 280.93px 362.84px;" id="el699ajw82m2" class="animable"></rect></g><g id="freepik--character-3--inject-90" class="animable" style="transform-origin: 432.67px 275.951px;"><circle cx="432.67" cy="273.55" r="32.02" style="fill: rgb(166, 166, 166); transform-origin: 432.67px 273.55px;" id="eljtq15iea2t" class="animable"></circle><path d="M441.84,283.91s0,0,0,0" style="fill: none; stroke: rgb(245, 167, 158); stroke-linecap: round; stroke-linejoin: round; stroke-width: 0px; transform-origin: 441.84px 283.91px;" id="elpnuhtxla6ud" class="animable"></path><g style="clip-path: url(&quot;#freepik--clip-path--inject-90&quot;); transform-origin: 432.319px 275.951px;" id="elwnp5beahtid" class="animable"><path d="M423.51,294.77l2.83,12.84,20.72-15.31,7.43,6.84s-16.64,19.41-30.14,19.41c-7.08,0-8.47-16.25-8.47-16.25Z" style="fill: rgb(20, 162, 184); transform-origin: 435.185px 305.425px;" id="elv0yozztlkc" class="animable"></path><path d="M426.75,309.37c5.21,1.62,14.86-5.84,18.9-12.15.27-.43-.09-5.22-.25-11.05-.09-3.54-.1-7.49.15-11.09.06-.74-23,3.92-23,3.92a57.26,57.26,0,0,1,1.22,14,7.51,7.51,0,0,1-.26,1.47c0,.06,0,.15,0,.24C422.85,297.46,421.72,307.8,426.75,309.37Z" style="fill: rgb(221, 106, 87); transform-origin: 434.149px 292.298px;" id="elnnc7jrkc5l9" class="animable"></path><path d="M444.23,275.06c-1.57,6.28-6.52,20.56-18.41,20a14.13,14.13,0,0,1-2.31-.29c0-.09,0-.18,0-.24a6.73,6.73,0,0,0,.26-1.47V293a42,42,0,0,0-.16-7,68.24,68.24,0,0,0-1.06-6.89h0l.15-.1C424.51,278.62,439.61,275.58,444.23,275.06Z" style="fill: rgb(38, 50, 56); transform-origin: 433.39px 285.068px;" id="elss5c401we2m" class="animable"></path><path d="M447.51,246.41c2.78,7.92-.47,31.26-5.95,36.67-7.95,7.84-21.46,9.13-28.24-.54-6.58-9.37-1.81-39.72,4.36-44.69C426.78,230.54,443.39,234.72,447.51,246.41Z" style="fill: rgb(221, 106, 87); transform-origin: 429.339px 261.801px;" id="elotzjwaq7r2k" class="animable"></path><path d="M445.45,266c-5.47-.83-5.06-10.92-5.06-10.92s-9.17-2.94-9.49-10.21c0,0-9.76,4.37-16.39.79s-4-11.29-3-12.87,4.44,2.14,4.44,2.14,1.11-4.42,2.38-4.7,2.17,2.63,2.17,2.63,9.48-1.69,17.64-.25,11,10.32,11,10.32,4.24,1.58,5.21,4.86S448.93,266.49,445.45,266Z" style="fill: rgb(38, 50, 56); transform-origin: 432.298px 248.111px;" id="elnm5d7g23dm9" class="animable"></path><path d="M441.84,283.91s0,0,0,0" style="fill: none; stroke: rgb(245, 167, 158); stroke-linecap: round; stroke-linejoin: round; stroke-width: 0px; transform-origin: 441.84px 283.91px;" id="elhqvb4wkr5ye" class="animable"></path><path d="M425,262.59c0-.06.11.09.1.15-.26,1.57-.3,3.41,1.06,4.12,0,0,0,.1,0,.09C424.47,266.47,424.54,264,425,262.59Z" style="fill: rgb(38, 50, 56); transform-origin: 425.439px 264.763px;" id="eliv3y5cyflr" class="animable"></path><path d="M426.66,261.13c2.56.15,2.08,5.25-.29,5.12S424.52,261,426.66,261.13Z" style="fill: rgb(38, 50, 56); transform-origin: 426.593px 263.69px;" id="el3bi8h1bsbj" class="animable"></path><path d="M415.86,262c0-.06-.13.06-.13.13-.1,1.58-.48,3.38-2,3.77,0,0,0,.09,0,.09C415.54,265.89,416,263.5,415.86,262Z" style="fill: rgb(38, 50, 56); transform-origin: 414.807px 263.987px;" id="el1zlgku3if4h" class="animable"></path><path d="M414.61,260.19c-2.53-.43-3.21,4.65-.87,5.05S416.72,260.56,414.61,260.19Z" style="fill: rgb(38, 50, 56); transform-origin: 414.097px 262.713px;" id="elhal7c0al13w" class="animable"></path><path d="M428.9,259a20.71,20.71,0,0,1-1.91-.88,3.4,3.4,0,0,1-1.78-1.28,1.08,1.08,0,0,1,.3-1.29,2.7,2.7,0,0,1,2.72,0,4,4,0,0,1,2.11,1.92A1.16,1.16,0,0,1,428.9,259Z" style="fill: rgb(38, 50, 56); transform-origin: 427.766px 257.12px;" id="elud85q7d883l" class="animable"></path><path d="M412.88,257.44a18.39,18.39,0,0,0,2.08-.34,3.36,3.36,0,0,0,2.05-.74,1.07,1.07,0,0,0,.06-1.32,2.68,2.68,0,0,0-2.61-.76,4,4,0,0,0-2.55,1.28A1.16,1.16,0,0,0,412.88,257.44Z" style="fill: rgb(38, 50, 56); transform-origin: 414.464px 255.82px;" id="elsd6fkboxfy" class="animable"></path><path d="M425.11,277.4c-.41.33-.84.8-1.42.8a4.36,4.36,0,0,1-1.66-.56s-.1,0-.07.07a2.12,2.12,0,0,0,1.92,1.05,1.69,1.69,0,0,0,1.38-1.28C425.29,277.39,425.17,277.35,425.11,277.4Z" style="fill: rgb(38, 50, 56); transform-origin: 423.61px 278.07px;" id="elvlgs2d3532" class="animable"></path><path d="M423.91,272.6a5.4,5.4,0,0,1-3.85,2,7.09,7.09,0,0,1-1.95-.11l-.37-.08-.34-.09a.41.41,0,0,1-.28-.39h0a.75.75,0,0,1,0-.16v0l0-.13c.09-1.23.41-3.07.41-3.07-.47.18-2.85,1-2.75.33.88-5.24,1.85-11.06,3.82-16.08a.15.15,0,0,1,.29.07c-.64,5.06-2.17,10-2.89,15.06a9.45,9.45,0,0,1,2.62-.51c.17.07-.67,3.55-.67,4.1v.06c2,.48,3.63,0,5.76-1.14C423.9,272.36,424,272.48,423.91,272.6Z" style="fill: rgb(38, 50, 56); transform-origin: 419.36px 264.672px;" id="ely7k4rxbf8os" class="animable"></path><path d="M418.91,274.15a6.39,6.39,0,0,0,2.45,2.15,2.84,2.84,0,0,0,1.74.22c1.29-.26,1.39-1.42,1.22-2.43a7.18,7.18,0,0,0-.47-1.56A8.33,8.33,0,0,1,418.91,274.15Z" style="fill: rgb(38, 50, 56); transform-origin: 421.647px 274.55px;" id="elpgvhyakvwfh" class="animable"></path><path d="M421.36,276.3a2.84,2.84,0,0,0,1.74.22c1.29-.26,1.39-1.42,1.22-2.43A3,3,0,0,0,421.36,276.3Z" style="fill: rgb(255, 153, 186); transform-origin: 422.872px 275.33px;" id="elr3g9r1nvhb8" class="animable"></path><path d="M443.36,265.5s5.07-7.61,8.51-5.82-.25,12.75-4.21,14.33a4.07,4.07,0,0,1-5.49-2.07Z" style="fill: rgb(221, 106, 87); transform-origin: 447.702px 266.906px;" id="elw5egiq92qx" class="animable"></path><path d="M450.74,262.88c.06,0,.07.08,0,.11-2.78,1.19-4.19,3.82-5.16,6.54.81-1.06,1.93-1.65,3.34-.69.07.05,0,.17-.07.15a2.49,2.49,0,0,0-2.73.94,11.32,11.32,0,0,0-1.27,2.25c-.13.25-.58.13-.49-.16a.19.19,0,0,1,0-.07C444.25,268.38,446.91,263.33,450.74,262.88Z" style="fill: rgb(38, 50, 56); transform-origin: 447.568px 267.598px;" id="elmjcjoacbfkq" class="animable"></path><path d="M423.77,293.15l2.78,13.28,19.11-17.07,4.76,5.36s-18.64,27-18.76,25.79L426,309.08l-7.85,8.08,3.15-20.08Z" style="fill: rgb(255, 255, 255); transform-origin: 434.285px 304.955px;" id="elru1qf8gqbe" class="animable"></path><path d="M421.17,297.27c0-.12.23-.18.23,0-.18,4.1-2.79,15.86-2.74,18.9l0,0c.33-.35,7.27-7.12,7.35-7,1.21,1.81,5.34,10.13,5.62,10.89,2.64-3.89,14.9-19.88,17.89-23.94a.11.11,0,0,1,.2.11c-2.22,4.52-17.71,25.52-17.91,25.46A127.32,127.32,0,0,1,426,309.52c-1.17,1.47-8.17,9.1-8.2,8.61C417.55,314.81,420.05,301.38,421.17,297.27Z" style="fill: rgb(38, 50, 56); transform-origin: 433.758px 308.875px;" id="elhzp2rz3pkuc" class="animable"></path></g></g><g id="freepik--character-2--inject-90" class="animable" style="transform-origin: 164.81px 337.13px;"><g id="el6dit0msnj2m"><circle cx="164.81" cy="337.13" r="32.58" style="fill: rgb(166, 166, 166); transform-origin: 164.81px 337.13px; transform: rotate(-45deg);" class="animable"></circle></g><path d="M155.49,347.68s0,0,0,0" style="fill: none; stroke: rgb(245, 167, 158); stroke-linecap: round; stroke-linejoin: round; stroke-width: 0px; transform-origin: 155.49px 347.68px;" id="elnt8rnjpb1af" class="animable"></path><g style="clip-path: url(&quot;#freepik--clip-path-2--inject-90&quot;); transform-origin: 165.835px 339.687px;" id="elx4ek9b9ati7" class="animable"><path d="M174.14,358.73l-2.89,13-19.7-13.52-4.89,7.22s12.89,17.44,26.62,17.44c7.21,0,8.62-16.53,8.62-16.53Z" style="fill: rgb(20, 162, 184); transform-origin: 164.28px 370.54px;" id="elhcx2b0p69ja" class="animable"></path><path d="M170.84,373.58c-5.3,1.65-15.12-5.94-19.23-12.36-.28-.44.09-5.31.26-11.25.08-3.6.1-7.61-.16-11.27-.05-.76,2.6.45,2.6.45l4.82.81,15.94,2.73s-1.72,7.83-1.24,14.21a7.69,7.69,0,0,0,.26,1.5c0,.07,0,.15,0,.24C174.8,361.47,176,372,170.84,373.58Z" style="fill: rgb(235, 148, 129); transform-origin: 163.289px 356.129px;" id="el68otdr8ydh6" class="animable"></path><path d="M174.09,358.48c0,.07,0,.15,0,.25a14.65,14.65,0,0,1-2.35.29c-15.5.73-18.79-18.81-18.79-18.81l6.13-.16,15.94,2.72s-1.72,7.84-1.24,14.22A7.46,7.46,0,0,0,174.09,358.48Z" style="fill: rgb(38, 50, 56); transform-origin: 163.985px 349.545px;" id="eluijuw9wtomq" class="animable"></path><path d="M149.72,309.53c-2.83,8.05.47,31.8,6.05,37.31,8.09,8,21.83,9.29,28.74-.55,6.69-9.54,1.83-40.42-4.45-45.47C170.81,293.38,153.91,297.63,149.72,309.53Z" style="fill: rgb(235, 148, 129); transform-origin: 168.207px 325.192px;" id="el2inlw5u8n4j" class="animable"></path><path d="M155.49,347.68s0,0,0,0" style="fill: none; stroke: rgb(245, 167, 158); stroke-linecap: round; stroke-linejoin: round; stroke-width: 0px; transform-origin: 155.49px 347.68px;" id="elrq4a6s6lcbe" class="animable"></path><path d="M172.58,326c0-.06-.11.09-.1.15.26,1.6.3,3.47-1.08,4.19,0,0,0,.11,0,.09C173.16,329.94,173.09,327.45,172.58,326Z" style="fill: rgb(38, 50, 56); transform-origin: 172.147px 328.209px;" id="el5wu1pec2uly" class="animable"></path><path d="M170.93,324.51c-2.6.15-2.11,5.34.3,5.2S173.11,324.38,170.93,324.51Z" style="fill: rgb(38, 50, 56); transform-origin: 171.002px 327.11px;" id="elmca4bv5w5g" class="animable"></path><path d="M181.91,325.37c0-.07.14.06.14.13.1,1.61.49,3.44,2,3.84,0,0,0,.09,0,.09C182.24,329.35,181.75,326.91,181.91,325.37Z" style="fill: rgb(38, 50, 56); transform-origin: 182.966px 327.39px;" id="elz2frlo6wdx" class="animable"></path><path d="M183.19,323.55c2.57-.44,3.26,4.73.88,5.14S181,323.92,183.19,323.55Z" style="fill: rgb(38, 50, 56); transform-origin: 183.699px 326.118px;" id="elp15hlumdhwr" class="animable"></path><path d="M168.65,322.33c.69-.25,1.29-.59,1.95-.9a3.45,3.45,0,0,0,1.8-1.3,1.1,1.1,0,0,0-.3-1.31,2.74,2.74,0,0,0-2.77,0,4,4,0,0,0-2.14,1.95A1.18,1.18,0,0,0,168.65,322.33Z" style="fill: rgb(38, 50, 56); transform-origin: 169.803px 320.416px;" id="elowi3n0c40j" class="animable"></path><path d="M185,320.75a21.08,21.08,0,0,1-2.11-.34,3.47,3.47,0,0,1-2.09-.76,1.11,1.11,0,0,1-.07-1.35,2.74,2.74,0,0,1,2.67-.76,3.94,3.94,0,0,1,2.58,1.29A1.18,1.18,0,0,1,185,320.75Z" style="fill: rgb(38, 50, 56); transform-origin: 183.388px 319.102px;" id="elhor4uypbqle" class="animable"></path><path d="M172.51,341.05c.42.34.85.82,1.44.82a4.29,4.29,0,0,0,1.69-.57.05.05,0,0,1,.08.07,2.17,2.17,0,0,1-2,1.07,1.72,1.72,0,0,1-1.4-1.3C172.33,341.05,172.45,341,172.51,341.05Z" style="fill: rgb(38, 50, 56); transform-origin: 174.027px 341.737px;" id="el9ih74dg1off" class="animable"></path><path d="M173.49,336.77c1.64,1.33,7.12,1.33,7.14,1.15l-.45-3.85c.48.19,2.88,1,2.78.36-.82-5.32-1.74-11.24-3.69-16.37a.15.15,0,0,0-.29.07c.59,5.15,2.08,10.16,2.76,15.32a9.75,9.75,0,0,0-2.66-.54c-.17.07.64,3.61.64,4.17a16.84,16.84,0,0,1-5.9-.79C173.19,336.09,173.05,336.42,173.49,336.77Z" style="fill: rgb(38, 50, 56); transform-origin: 178.099px 327.982px;" id="ellthvpmopurq" class="animable"></path><path d="M152.61,328.71c2-.51,3.94-7.16,4-13.62,0-4.15,1.7-9.39,6.33-10.95,3.08-1,8.44,1.5,11.5.75s3.63-2.5,5.44-2.45,3.83,4.5,3.83,4.5-3.23-14.06-21.31-9.54c-19,4.77-15.22,21.08-13.39,26.31C150.43,327.75,152.61,328.71,152.61,328.71Z" style="fill: rgb(38, 50, 56); transform-origin: 165.57px 312.607px;" id="el88gewxdzq3v" class="animable"></path><path d="M154,329s-5.17-7.74-8.67-5.92.26,13,4.29,14.57a4.12,4.12,0,0,0,5.58-2.09Z" style="fill: rgb(235, 148, 129); transform-origin: 149.572px 330.431px;" id="elpteok4oj0v" class="animable"></path><path d="M146.44,326.28a.06.06,0,0,0,0,.11c2.83,1.22,4.27,3.9,5.26,6.66-.83-1.07-2-1.68-3.4-.7-.08,0,0,.17.07.15a2.56,2.56,0,0,1,2.78.95,13.2,13.2,0,0,1,1.29,2.29c.12.26.59.14.5-.16a.14.14,0,0,1,0-.07C153,331.88,150.33,326.74,146.44,326.28Z" style="fill: rgb(38, 50, 56); transform-origin: 149.678px 331.081px;" id="eljcmphl41hx" class="animable"></path></g></g><g id="freepik--character-1--inject-90" class="animable" style="transform-origin: 160.577px 173.301px;"><circle cx="159.77" cy="172.15" r="33.89" style="fill: rgb(166, 166, 166); transform-origin: 159.77px 172.15px;" id="elkh59ufabah" class="animable"></circle><path d="M195.25,198h-2.89c-.3-3.69-2.64-9.33-2-6.49a28.26,28.26,0,0,1,.37,6.49H141.77c-.57-5.55,1.91-14.68,1.91-14.68-2.83,4.59-3.92,11.1-4.33,14.68h-4.62c-.48-3.32.7-9,.7-9-1.27,2.23-2,6.42-2.37,9H127.8c-.2-5.55,1.69-12.85,6.12-19.47,3.55-5.31-.85-8.4-.76-18.74.09-13.76,9.53-19,11.1-20.48,21.35-19.78,40.73-1.42,42.81,11.65,2,12.78-1.67,14.47,4.27,26.08C195.83,185.71,195.25,198,195.25,198Z" style="fill: rgb(38, 50, 56); transform-origin: 161.53px 164.307px;" id="elddqx1fpwlb" class="animable"></path><path d="M137.7,205.13s.1.06.14.1c7.1,4.84,21.12,13.35,28.62,10.65,5.77-2.08,9.15-8,9.54-9.91-3-2.7-7.35-5.16-9.27-6.44C155.66,192.17,145.69,196.58,137.7,205.13Z" style="fill: rgb(69, 90, 100); transform-origin: 156.85px 206.099px;" id="el7y3tsvhvngq" class="animable"></path><path d="M148.39,200.94c.5,1.64,9.17,11.91,16.75,11.05,2.47-.29,1.51-13.84,1.51-13.84l.16-1,2.2-14.23-17.17-9.47-2.48-1.24s-.34,3.93-.72,8.83l-.06.7c0,.28-.06.54-.07.8-.07.73-.13,1.48-.18,2.22,0,.57-.08,1.12-.1,1.72s-.06,1.18-.09,1.78A93.18,93.18,0,0,0,148.39,200.94Z" style="fill: rgb(173, 99, 89); transform-origin: 158.52px 192.126px;" id="elxrhcmffc9ki" class="animable"></path><path d="M148.64,181a28.91,28.91,0,0,0,18.17,16.11l2.2-14.23-17.17-9.47-2.48-1.24S149,176.13,148.64,181Z" style="fill: rgb(38, 50, 56); transform-origin: 158.825px 184.64px;" id="elb3kj627h00k" class="animable"></path><path d="M186.6,159.22c4,25-10.53,30.15-15.92,31-4.88.77-21.62,2.78-28.14-21.64s3.83-34.14,14.91-36.5S182.64,134.27,186.6,159.22Z" style="fill: rgb(173, 99, 89); transform-origin: 163.901px 161.072px;" id="eloqhj9hmipd" class="animable"></path><path d="M144.58,170.34c6.25-.75,6.48-20.17,6.48-22.56.07,1.51.51,9.46,1.15,9.73a6.24,6.24,0,0,0,1.93-.54h0a19.45,19.45,0,0,1,0-2.86c0-.44.25.94.63,2.64.35-.13.72-.28,1.13-.42a22.86,22.86,0,0,1,.1-6.09c.12-.76.6,2.6,1.56,5.48a76.49,76.49,0,0,1,16.18-4.25c1.55-.19,2.91-.28,4.11-.32-.19-2.35-.67-4.82-.45-4.3a23,23,0,0,1,1.34,4.27c.65,0,1.25,0,1.79,0-.11-3.32-2.12-8.47-1.53-7.71a23.46,23.46,0,0,1,3.88,7.88c2.29.25,3,.64,3,.05,0-1.06-2-10.21-9.81-16.41-8.45-6.72-24.24-7.28-32.11,4.82,0,0-6.86,5.34-7.37,13.07S141,170.76,144.58,170.34Z" style="fill: rgb(38, 50, 56); transform-origin: 161.217px 150.272px;" id="eldawtdz8hkwc" class="animable"></path><path d="M176.18,173.76a7.06,7.06,0,0,1-2.33,2.7,3.23,3.23,0,0,1-1.87.5c-1.44-.09-1.73-1.33-1.69-2.46a7.88,7.88,0,0,1,.28-1.76A9.1,9.1,0,0,0,176.18,173.76Z" style="fill: rgb(255, 255, 255); transform-origin: 173.233px 174.851px;" id="elqmg7uqkbjnn" class="animable"></path><path d="M181.39,156.16c-.59,0-1.14-.14-1.73-.21a2.83,2.83,0,0,1-1.72-.55.9.9,0,0,1-.1-1.1,2.23,2.23,0,0,1,2.14-.71,3.26,3.26,0,0,1,2.15,1A1,1,0,0,1,181.39,156.16Z" style="fill: rgb(38, 50, 56); transform-origin: 180.004px 154.851px;" id="elrawajzaarv9" class="animable"></path><path d="M165.19,158.22c.58-.12,1.1-.33,1.66-.5a2.88,2.88,0,0,0,1.61-.85.9.9,0,0,0-.1-1.09,2.23,2.23,0,0,0-2.23-.33,3.28,3.28,0,0,0-1.95,1.34A1,1,0,0,0,165.19,158.22Z" style="fill: rgb(38, 50, 56); transform-origin: 166.339px 156.757px;" id="elsvw0rwl05q8" class="animable"></path><path d="M169.1,164.28c0-.06-.13.1-.12.17.25,1.7.24,3.69-1.24,4.43-.05,0,0,.11,0,.1C169.62,168.5,169.6,165.85,169.1,164.28Z" style="fill: rgb(38, 50, 56); transform-origin: 168.553px 166.624px;" id="elh9s6rpljhkv" class="animable"></path><path d="M167.37,162.66c-2.77.1-2.37,5.64.2,5.55S169.7,162.58,167.37,162.66Z" style="fill: rgb(38, 50, 56); transform-origin: 167.388px 165.435px;" id="el23iqqh473g4" class="animable"></path><path d="M166.3,163c-.46.34-.89.93-1.47,1s-1.22-.43-1.7-.95c0-.06-.1,0-.09.07.06,1.06.54,2.12,1.69,2.2s1.73-.93,1.92-2C166.68,163.17,166.49,162.9,166.3,163Z" style="fill: rgb(38, 50, 56); transform-origin: 164.846px 164.151px;" id="elhqox02yvr4m" class="animable"></path><path d="M178.63,162.72c0-.06.14.08.14.15,0,1.72.41,3.68,2,4.15,0,0,0,.1,0,.09C178.85,167,178.4,164.36,178.63,162.72Z" style="fill: rgb(38, 50, 56); transform-origin: 179.673px 164.908px;" id="elkngu4hb5b2" class="animable"></path><path d="M180,160.83c2.75-.39,3.33,5.14.78,5.5S177.74,161.16,180,160.83Z" style="fill: rgb(38, 50, 56); transform-origin: 180.482px 163.579px;" id="eloiwm7y7ach" class="animable"></path><path d="M181.23,161.08c.47.24,1,.73,1.48.71s1-.67,1.32-1.28c0-.06.09,0,.1.05.13,1.05-.1,2.19-1.09,2.5s-1.68-.56-2-1.58C180.93,161.29,181.05,161,181.23,161.08Z" style="fill: rgb(38, 50, 56); transform-origin: 182.581px 161.804px;" id="elj4aondh6fod" class="animable"></path><path d="M169.73,177.38c.42.4.84.94,1.47,1a4.63,4.63,0,0,0,1.84-.49.06.06,0,0,1,.07.09,2.29,2.29,0,0,1-2.15,1,1.83,1.83,0,0,1-1.4-1.48C169.53,177.37,169.66,177.33,169.73,177.38Z" style="fill: rgb(38, 50, 56); transform-origin: 171.338px 178.176px;" id="elxmvoqe9hg6" class="animable"></path><path d="M176.37,170.59s.57,2.53.67,3.73c0,.12-.27.2-.68.25,0,0,0,0-.05,0a5.76,5.76,0,0,1-5.76-1.68c-.09-.11,0-.25.17-.18a8.64,8.64,0,0,0,5.37,1.06c.06-.34-1.12-4.3-.93-4.33a10.82,10.82,0,0,1,2.8.39c-1-5.31-2.91-10.4-3.86-15.7a.17.17,0,0,1,.31-.11c2.34,5.21,3.66,11.29,4.87,16.74C179.44,171.45,176.87,170.75,176.37,170.59Z" style="fill: rgb(38, 50, 56); transform-origin: 174.901px 164.358px;" id="elahh0l7r9oxt" class="animable"></path><path d="M166.22,172.86a7.53,7.53,0,1,1,7.36-9.34h0a7.54,7.54,0,0,1-5.5,9.12A7.88,7.88,0,0,1,166.22,172.86Zm.09-14.05a6.38,6.38,0,0,0-1.61.19,6.53,6.53,0,1,0,1.61-.19Z" style="fill: rgb(20, 162, 184); transform-origin: 166.27px 165.33px;" id="eljhjmpedh7ki" class="animable"></path><path d="M183.38,170.86c-2.88,0-5.47-3-5.9-6.89a8.92,8.92,0,0,1,1-5.4,4.7,4.7,0,0,1,8-.89,9,9,0,0,1,2.16,5.06c.45,4.12-1.67,7.76-4.74,8.1A2.79,2.79,0,0,1,183.38,170.86Zm-.67-14a2.36,2.36,0,0,0-.38,0,4,4,0,0,0-3,2.19,8,8,0,0,0-.88,4.79c.4,3.58,2.77,6.26,5.29,6s4.25-3.42,3.86-7a8.06,8.06,0,0,0-1.91-4.49A4.14,4.14,0,0,0,182.71,156.86Z" style="fill: rgb(20, 162, 184); transform-origin: 183.053px 163.351px;" id="elxxh5wlw5bb" class="animable"></path><path d="M173.42,164.41l-.72-.69c1-1.08,3.51-2.65,5.55-.9l-.66.76C175.77,162,173.52,164.32,173.42,164.41Z" style="fill: rgb(20, 162, 184); transform-origin: 175.475px 163.222px;" id="el3jdg29e729a" class="animable"></path><path d="M140.3,170l-.94-.36c.17-.43,1.71-4.29,3.9-4.9s15.6-.8,16.18-.81v1c-3.88.06-14.33.33-15.92.77S140.71,169,140.3,170Z" style="fill: rgb(20, 162, 184); transform-origin: 149.4px 166.965px;" id="elzldtuomzr7m" class="animable"></path><path d="M146.81,169.87s-6.06-7.48-9.49-5.26,1.52,13.33,5.82,14.59a4.28,4.28,0,0,0,5.55-2.7Z" style="fill: rgb(173, 99, 89); transform-origin: 142.431px 171.831px;" id="ellgf661cta2h" class="animable"></path><path d="M138.82,167.76a.06.06,0,0,0,0,.11c3,1,4.77,3.6,6,6.35-.95-1-2.18-1.54-3.56-.4a.09.09,0,0,0,.09.16,2.62,2.62,0,0,1,3,.71,12.29,12.29,0,0,1,1.54,2.23c.16.25.62.08.5-.21l0-.07C146.15,172.89,142.87,167.85,138.82,167.76Z" style="fill: rgb(38, 50, 56); transform-origin: 142.597px 172.401px;" id="eltp1mzvyllaf" class="animable"></path><g style="clip-path: url(&quot;#freepik--clip-path-3--inject-90&quot;); transform-origin: 156.85px 208.745px;" id="eldzj296u389c" class="animable"><path d="M176,206c-.39,1.88-3.77,7.82-9.54,9.89-7.5,2.71-21.53-5.8-28.63-10.63l-.13-.1a39.7,39.7,0,0,1,4.39-4.08,33.15,33.15,0,0,0,9.48,4,34,34,0,0,0,8.19,1,32.91,32.91,0,0,0,7.06-.76,32.21,32.21,0,0,0,5.94-1.83A34.53,34.53,0,0,1,176,206Z" style="fill: rgb(69, 90, 100); transform-origin: 156.85px 208.745px;" id="el8nbc61xo7lc" class="animable"></path><path d="M166.82,205.28c-.07,3.32-.48,6.57-1.68,6.7-4.9.56-10.25-3.53-13.57-6.94a34,34,0,0,0,8.19,1A32.91,32.91,0,0,0,166.82,205.28Z" style="fill: rgb(221, 106, 87); transform-origin: 159.195px 208.536px;" id="elsuzt1jo4ggk" class="animable"></path></g></g><defs>     <filter id="active" height="200%">         <feMorphology in="SourceAlpha" result="DILATED" operator="dilate" radius="2"></feMorphology>                <feFlood flood-color="#32DFEC" flood-opacity="1" result="PINK"></feFlood>        <feComposite in="PINK" in2="DILATED" operator="in" result="OUTLINE"></feComposite>        <feMerge>            <feMergeNode in="OUTLINE"></feMergeNode>            <feMergeNode in="SourceGraphic"></feMergeNode>        </feMerge>    </filter>    <filter id="hover" height="200%">        <feMorphology in="SourceAlpha" result="DILATED" operator="dilate" radius="2"></feMorphology>                <feFlood flood-color="#ff0000" flood-opacity="0.5" result="PINK"></feFlood>        <feComposite in="PINK" in2="DILATED" operator="in" result="OUTLINE"></feComposite>        <feMerge>            <feMergeNode in="OUTLINE"></feMergeNode>            <feMergeNode in="SourceGraphic"></feMergeNode>        </feMerge>            <feColorMatrix type="matrix" values="0   0   0   0   0                0   1   0   0   0                0   0   0   0   0                0   0   0   1   0 "></feColorMatrix>    </filter></defs><defs><clipPath id="freepik--clip-path--inject-90"><path id="freepik--SVGID--inject-90" d="M464.7,273.55a31.88,31.88,0,0,1-11.41,24.5,32.29,32.29,0,0,1-7.84,4.87c-.33.15-.67.29-1,.42l-.55.21a29.07,29.07,0,0,1-5.6,1.51,29.61,29.61,0,0,1-5.6.51,30.73,30.73,0,0,1-3.34-.18,13.78,13.78,0,0,1-1.42-.18c-.56-.08-1.12-.17-1.68-.3a2.89,2.89,0,0,1-.51-.11c-.84-.17-1.68-.39-2.5-.64s-1.76-.59-2.62-.94l-.21-.1a2.86,2.86,0,0,1-.48-.2,26.88,26.88,0,0,1-3.08-1.55,32,32,0,0,1-4.23-52.78c.33-1.23.67-2.41,1-3.49-5.53-3.75-3.08-10.85-2.1-12.35s4.44,2.14,4.44,2.14,1.11-4.42,2.38-4.7,2.17,2.63,2.17,2.63,9.47-1.7,17.65-.25,11,10.32,11,10.32,4.25,1.57,5.2,4.85a5.52,5.52,0,0,1,0,2.23A32,32,0,0,1,464.7,273.55Z" style="fill:none"></path></clipPath><clipPath id="freepik--clip-path-2--inject-90"><path id="freepik--svgid--inject-90" d="M197.4,337.13a32.59,32.59,0,1,1-49.18-28c1.51-4.86,5.44-9.49,14.18-11.68,17.12-4.28,20.92,8.07,21.28,9.41,0,0,0,0,0,.05h0a.11.11,0,0,1,0,.05,46.75,46.75,0,0,1,1.53,4.83A32.48,32.48,0,0,1,197.4,337.13Z" style="fill:none"></path></clipPath><clipPath id="freepik--clip-path-3--inject-90"><path id="freepik--svgid--inject-90" d="M195.25,198h-2.89c-.29-3.69-2.63-9.33-2-6.48a28.23,28.23,0,0,1,.38,6.48h-9a33.6,33.6,0,0,1-9,5.5,32.21,32.21,0,0,1-5.94,1.83,32.91,32.91,0,0,1-7.06.76,34,34,0,0,1-8.19-1,33.15,33.15,0,0,1-9.48-4,30.53,30.53,0,0,1-4.3-3.11h-3a15.62,15.62,0,0,1-.09-3c-.3-.35-.59-.68-.88-1-.32,1.46-.55,2.92-.71,4H127.8a30.34,30.34,0,0,1,1.7-10.54,33.89,33.89,0,0,1,6.68-39.6c2.93-5.18,7.09-7.64,8.07-8.55l.05,0c6.35-9.21,17.44-10.67,25.9-7.53l.22.07c9.1,3.14,15.5,11.95,16.65,19.15.07.51.14,1,.21,1.48a33.78,33.78,0,0,1,5.41,27.74C195.7,188.36,195.25,198,195.25,198Z" style="fill:none"></path></clipPath></defs></svg>