<svg class="animated" id="freepik_stories-share-link" xmlns="http://www.w3.org/2000/svg" viewBox="0 0 500 500" version="1.1" xmlns:xlink="http://www.w3.org/1999/xlink" xmlns:svgjs="http://svgjs.com/svgjs"><style>svg#freepik_stories-share-link:not(.animated) .animable {opacity: 0;}svg#freepik_stories-share-link.animated #freepik--background-simple--inject-133 {animation: 1s 1 forwards cubic-bezier(.36,-0.01,.5,1.38) lightSpeedRight;animation-delay: 0s;}svg#freepik_stories-share-link.animated #freepik--Shadow--inject-133 {animation: 1s 1 forwards cubic-bezier(.36,-0.01,.5,1.38) slideUp;animation-delay: 0s;}svg#freepik_stories-share-link.animated #freepik--Device--inject-133 {animation: 1s 1 forwards cubic-bezier(.36,-0.01,.5,1.38) lightSpeedRight;animation-delay: 0s;}svg#freepik_stories-share-link.animated #freepik--Window--inject-133 {animation: 1s 1 forwards cubic-bezier(.36,-0.01,.5,1.38) zoomOut,1.5s Infinite  linear heartbeat;animation-delay: 0s,1s;}svg#freepik_stories-share-link.animated #freepik--speech-bubble--inject-133 {animation: 1s 1 forwards cubic-bezier(.36,-0.01,.5,1.38) lightSpeedLeft,1.5s Infinite  linear heartbeat;animation-delay: 0s,1s;}svg#freepik_stories-share-link.animated #freepik--Character--inject-133 {animation: 1s 1 forwards cubic-bezier(.36,-0.01,.5,1.38) slideLeft;animation-delay: 0s;}            @keyframes lightSpeedRight {              from {                transform: translate3d(50%, 0, 0) skewX(-20deg);                opacity: 0;              }              60% {                transform: skewX(10deg);                opacity: 1;              }              80% {                transform: skewX(-2deg);              }              to {                opacity: 1;                transform: translate3d(0, 0, 0);              }            }                    @keyframes slideUp {                0% {                    opacity: 0;                    transform: translateY(30px);                }                100% {                    opacity: 1;                    transform: inherit;                }            }                    @keyframes zoomOut {                0% {                    opacity: 0;                    transform: scale(1.5);                }                100% {                    opacity: 1;                    transform: scale(1);                }            }                    @keyframes heartbeat {                0% {                    transform: scale(1);                }                10% {                    transform: scale(1.1);                }                30% {                    transform: scale(1);                }                40% {                    transform: scale(1);                }                50% {                    transform: scale(1.1);                }                60% {                    transform: scale(1);                }                100% {                    transform: scale(1);                }            }                    @keyframes lightSpeedLeft {              from {                transform: translate3d(-50%, 0, 0) skewX(20deg);                opacity: 0;              }              60% {                transform: skewX(-10deg);                opacity: 1;              }              80% {                transform: skewX(2deg);              }              to {                opacity: 1;                transform: translate3d(0, 0, 0);              }            }                    @keyframes slideLeft {                0% {                    opacity: 0;                    transform: translateX(-30px);                }                100% {                    opacity: 1;                    transform: translateX(0);                }            }        </style><g id="freepik--background-simple--inject-133" class="animable" style="transform-origin: 247.34px 219.834px;"><path d="M85.46,103.38c27.92-59.45,127.06-51.06,165.31-9.26s50.7,68.6,85.21,53,78.52-11.44,81,38.16S379.11,293.53,314.94,310.88s-64.17,78.76-149.1,66.37C119.53,370.5,118.47,320.39,125,279S53.08,172.32,85.46,103.38Z" style="fill: rgb(20, 162, 184); transform-origin: 247.34px 219.834px;" id="el2gw477tmi43" class="animable"></path><g id="elyhf0tdzwcv"><path d="M85.46,103.38c27.92-59.45,127.06-51.06,165.31-9.26s50.7,68.6,85.21,53,78.52-11.44,81,38.16S379.11,293.53,314.94,310.88s-64.17,78.76-149.1,66.37C119.53,370.5,118.47,320.39,125,279S53.08,172.32,85.46,103.38Z" style="fill: rgb(255, 255, 255); opacity: 0.9; transform-origin: 247.34px 219.834px;" class="animable"></path></g></g><g id="freepik--Shadow--inject-133" class="animable" style="transform-origin: 250px 416.24px;"><ellipse id="freepik--path--inject-133" cx="250" cy="416.24" rx="193.89" ry="11.32" style="fill: rgb(245, 245, 245); transform-origin: 250px 416.24px;" class="animable"></ellipse></g><g id="freepik--Device--inject-133" class="animable" style="transform-origin: 172.42px 259.205px;"><rect x="85.62" y="103.08" width="173.6" height="312.25" rx="10.4" style="fill: rgb(38, 50, 56); transform-origin: 172.42px 259.205px;" id="elgdti9odi49l" class="animable"></rect><path d="M253.36,113.55V404.31a4.25,4.25,0,0,1-4.31,4.25H95.33a3.8,3.8,0,0,1-3.85-3.9V113.2a3.43,3.43,0,0,1,3.3-3.57h38.43a2.68,2.68,0,0,1,2.47,1.73l1.6,3.91a2.68,2.68,0,0,0,2.47,1.72h65.43a2.68,2.68,0,0,0,2.47-1.69l1.59-3.93a2.71,2.71,0,0,1,2.48-1.74h37.87A3.88,3.88,0,0,1,253.36,113.55Z" style="fill: rgb(20, 162, 184); transform-origin: 172.419px 259.095px;" id="elv9izouv7khi" class="animable"></path><g id="elq2yeb9zq23"><rect x="91.48" y="127.79" width="161.89" height="264.42" style="fill: rgb(255, 255, 255); opacity: 0.5; isolation: isolate; transform-origin: 172.425px 260px;" class="animable"></rect></g><g id="elgzbkt76nt97"><rect x="109.32" y="118.68" width="2" height="2.67" style="fill: rgb(255, 255, 255); opacity: 0.6; isolation: isolate; transform-origin: 110.32px 120.015px; transform: rotate(180deg);" class="animable"></rect></g><g id="el0ut3sfcwv2z"><rect x="106.06" y="117.79" width="2" height="3.56" style="fill: rgb(255, 255, 255); opacity: 0.6; isolation: isolate; transform-origin: 107.06px 119.57px; transform: rotate(180deg);" class="animable"></rect></g><g id="elwijexi9a3c"><rect x="102.8" y="116.9" width="2" height="4.44" style="fill: rgb(255, 255, 255); opacity: 0.6; isolation: isolate; transform-origin: 103.8px 119.12px; transform: rotate(180deg);" class="animable"></rect></g><g id="elb0823wunf7b"><rect x="99.54" y="116.01" width="2" height="5.33" style="fill: rgb(255, 255, 255); opacity: 0.6; isolation: isolate; transform-origin: 100.54px 118.675px; transform: rotate(180deg);" class="animable"></rect></g><g id="el4ipixz2pjjm"><rect x="233.86" y="117.71" width="1.19" height="2.67" style="fill: rgb(255, 255, 255); opacity: 0.6; isolation: isolate; transform-origin: 234.455px 119.045px;" class="animable"></rect></g><g id="eluof9wqdsku"><rect x="235.86" y="116.73" width="9.44" height="4.61" style="fill: rgb(255, 255, 255); opacity: 0.6; isolation: isolate; transform-origin: 240.58px 119.035px; transform: rotate(180deg);" class="animable"></rect></g><g id="el5ie867ut25i"><path d="M172.39,110a2.22,2.22,0,1,1-2.22-2.22A2.21,2.21,0,0,1,172.39,110Z" style="fill: rgb(255, 255, 255); opacity: 0.6; isolation: isolate; transform-origin: 170.17px 110px;" class="animable"></path></g><g id="elleasnc5fbl"><path d="M176.89,110a1.42,1.42,0,1,1-1.42-1.42A1.42,1.42,0,0,1,176.89,110Z" style="fill: rgb(255, 255, 255); opacity: 0.6; isolation: isolate; transform-origin: 175.47px 110px;" class="animable"></path></g><rect x="99.54" y="142.96" width="125.13" height="15.38" rx="7.69" style="fill: rgb(255, 255, 255); transform-origin: 162.105px 150.65px;" id="eljzpg95xd7in" class="animable"></rect><path d="M214,153.75a3.86,3.86,0,1,1,2.74-6.59h0a3.86,3.86,0,0,1-2.74,6.59Zm0-6.72a2.87,2.87,0,0,0-2,4.89,2.86,2.86,0,1,0,2-4.89Z" style="fill: rgb(20, 162, 184); transform-origin: 214.011px 149.89px;" id="elcxmn40u6oz5" class="animable"></path><path d="M218.86,155.26a.54.54,0,0,1-.36-.14l-2.49-2.5a.48.48,0,0,1,0-.7.5.5,0,0,1,.71,0l2.49,2.49a.5.5,0,0,1,0,.71A.54.54,0,0,1,218.86,155.26Z" style="fill: rgb(20, 162, 184); transform-origin: 217.608px 153.516px;" id="elgd8tyraooru" class="animable"></path><g id="ellr397gdw2vf"><rect x="229.42" y="142.96" width="15.38" height="15.38" rx="2.27" style="opacity: 0.2; isolation: isolate; transform-origin: 237.11px 150.65px;" class="animable"></rect></g><path d="M234.49,147a1,1,0,1,1-1-1A1,1,0,0,1,234.49,147Z" style="fill: rgb(255, 255, 255); transform-origin: 233.49px 147px;" id="elh3fuboi4qe" class="animable"></path><circle cx="241.09" cy="150.65" r="1.02" style="fill: rgb(255, 255, 255); transform-origin: 241.09px 150.65px;" id="el5m4bzyib2v8" class="animable"></circle><circle cx="233.86" cy="154.76" r="1.02" style="fill: rgb(255, 255, 255); transform-origin: 233.86px 154.76px;" id="elvc7d895m27" class="animable"></circle><polygon points="233.98 154.98 233.73 154.55 240.55 150.66 233.36 147.17 233.58 146.72 241.62 150.63 233.98 154.98" style="fill: rgb(255, 255, 255); transform-origin: 237.49px 150.85px;" id="el3o6t02j6qwj" class="animable"></polygon><g id="el4vjtscnuhyp"><rect x="91.48" y="171.93" width="161.89" height="220.28" style="fill: rgb(255, 255, 255); opacity: 0.6; isolation: isolate; transform-origin: 172.425px 282.07px;" class="animable"></rect></g><g id="elor1l65z922"><rect x="163.76" y="202.96" width="16.09" height="16.09" style="fill: rgb(255, 255, 255); opacity: 0.2; isolation: isolate; transform-origin: 171.805px 211.005px; transform: rotate(135deg);" class="animable"></rect></g><g id="el4my161tpwro"><rect x="105.32" y="192.8" width="36.4" height="36.4" rx="4.69" style="opacity: 0.2; isolation: isolate; transform-origin: 123.52px 211px; transform: rotate(180deg);" class="animable"></rect></g><g id="elcquzorpy6b9"><path d="M107.28,239.9h32.48a2,2,0,0,0,2-2h0a2,2,0,0,0-2-2H107.28a2,2,0,0,0-2,2h0A2,2,0,0,0,107.28,239.9Z" style="opacity: 0.2; isolation: isolate; transform-origin: 123.52px 237.9px;" class="animable"></path></g><g id="eldzwbzd5w58"><rect x="153.61" y="260.8" width="36.4" height="36.4" rx="4.69" style="opacity: 0.2; isolation: isolate; transform-origin: 171.81px 279px; transform: rotate(180deg);" class="animable"></rect></g><g id="elxec9v0vbdua"><path d="M155.57,307.9H188a2,2,0,0,0,2-2h0a2,2,0,0,0-2-2H155.57a2,2,0,0,0-2,2h0A2,2,0,0,0,155.57,307.9Z" style="opacity: 0.2; isolation: isolate; transform-origin: 171.785px 305.9px;" class="animable"></path></g><g id="eliwmlhzcmndl"><rect x="105.32" y="260.8" width="36.4" height="36.4" rx="4.69" style="opacity: 0.2; isolation: isolate; transform-origin: 123.52px 279px; transform: rotate(180deg);" class="animable"></rect></g><g id="el0y8mqgl2ccy"><path d="M107.28,307.9h32.48a2,2,0,0,0,2-2h0a2,2,0,0,0-2-2H107.28a2,2,0,0,0-2,2h0A2,2,0,0,0,107.28,307.9Z" style="opacity: 0.2; isolation: isolate; transform-origin: 123.52px 305.9px;" class="animable"></path></g><g id="elf4zttgzjfaa"><polygon points="117.59 268.74 129.45 268.74 135.37 279 129.45 289.27 117.59 289.27 111.67 279 117.59 268.74" style="fill: rgb(255, 255, 255); opacity: 0.2; isolation: isolate; transform-origin: 123.52px 279.005px;" class="animable"></polygon></g><g id="elwor4sqk9moq"><polygon points="181.35 272.23 181.35 286.8 162.26 286.8 181.35 272.23" style="fill: rgb(255, 255, 255); opacity: 0.2; isolation: isolate; transform-origin: 171.805px 279.515px;" class="animable"></polygon></g><g id="el69i1yitlggf"><rect x="201.89" y="192.8" width="36.4" height="36.4" rx="4.69" style="opacity: 0.2; isolation: isolate; transform-origin: 220.09px 211px; transform: rotate(180deg);" class="animable"></rect></g><g id="elrf7wnikdv4i"><path d="M203.86,239.9h32.47a2,2,0,0,0,2-2h0a2,2,0,0,0-2-2H203.86a2,2,0,0,0-2,2h0A2,2,0,0,0,203.86,239.9Z" style="opacity: 0.2; isolation: isolate; transform-origin: 220.095px 237.9px;" class="animable"></path></g><g id="el40rbsdqrlsu"><circle cx="220.67" cy="210.53" r="10.21" style="fill: rgb(255, 255, 255); opacity: 0.2; isolation: isolate; transform-origin: 220.67px 210.53px; transform: rotate(-13.28deg);" class="animable"></circle></g><g id="elnljkanbw5r"><path d="M119.11,200.32s14,15.82,13.56,15.82-18.31,3.7-18.31,3.7Z" style="fill: rgb(255, 255, 255); opacity: 0.2; isolation: isolate; transform-origin: 123.52px 210.08px;" class="animable"></path></g><g id="eln3fmcs83x7"><rect x="153.61" y="192.8" width="36.4" height="36.4" rx="4.69" style="opacity: 0.2; isolation: isolate; transform-origin: 171.81px 211px; transform: rotate(180deg);" class="animable"></rect></g><g id="elz7yq7qi2mif"><path d="M155.57,239.9H188a2,2,0,0,0,2-2h0a2,2,0,0,0-2-2H155.57a2,2,0,0,0-2,2h0A2,2,0,0,0,155.57,239.9Z" style="opacity: 0.2; isolation: isolate; transform-origin: 171.785px 237.9px;" class="animable"></path></g><g id="elcpoc78zg3wq"><g style="opacity: 0.2; isolation: isolate; transform-origin: 128.225px 150.58px;" class="animable"><path d="M111.27,150.67v1.68h-.39v-1.64a.81.81,0,0,0-.87-.93,1,1,0,0,0-1,1.05v1.52h-.4v-4.09h.4V150a1.2,1.2,0,0,1,1.08-.53A1.11,1.11,0,0,1,111.27,150.67Z" id="elepe7dyj5f0d" class="animable" style="transform-origin: 109.942px 150.305px;"></path><path d="M113.86,152.17a.9.9,0,0,1-.61.21.77.77,0,0,1-.85-.84v-1.76h-.51v-.33h.51v-.63h.39v.63h.89v.33h-.89v1.73a.47.47,0,0,0,.51.53.64.64,0,0,0,.43-.15Z" id="eltn3kdtwjwc" class="animable" style="transform-origin: 112.875px 150.602px;"></path><path d="M116,152.17a1,1,0,0,1-.62.21.76.76,0,0,1-.84-.84v-1.76h-.52v-.33h.52v-.63H115v.63h.88v.33H115v1.73a.46.46,0,0,0,.5.53.64.64,0,0,0,.43-.15Z" id="ely3n44vt02p" class="animable" style="transform-origin: 115.01px 150.602px;"></path><path d="M119.67,150.9a1.4,1.4,0,0,1-1.44,1.48,1.27,1.27,0,0,1-1.1-.57v1.61h-.39v-4h.37V150a1.26,1.26,0,0,1,1.12-.6A1.4,1.4,0,0,1,119.67,150.9Zm-.39,0A1.08,1.08,0,1,0,118.2,152,1.07,1.07,0,0,0,119.28,150.9Z" id="eloem5lv9zsz" class="animable" style="transform-origin: 118.207px 151.41px;"></path><path d="M120.07,152l.18-.31a1.75,1.75,0,0,0,1,.33c.55,0,.78-.19.78-.48,0-.75-1.88-.16-1.88-1.3,0-.48.41-.83,1.14-.83a2,2,0,0,1,1,.27l-.17.32a1.47,1.47,0,0,0-.86-.25c-.52,0-.75.2-.75.48,0,.78,1.88.19,1.88,1.3,0,.5-.44.83-1.2.83A2,2,0,0,1,120.07,152Z" id="eldav1yus46n6" class="animable" style="transform-origin: 121.23px 150.885px;"></path><path d="M122.92,149.73a.29.29,0,0,1,.29-.3.3.3,0,0,1,0,.6A.29.29,0,0,1,122.92,149.73Zm0,2.35a.29.29,0,0,1,.29-.3.29.29,0,0,1,.3.3.3.3,0,0,1-.3.3A.29.29,0,0,1,122.92,152.08Z" id="elj2z7v7ecrv" class="animable" style="transform-origin: 123.215px 150.905px;"></path><path d="M125.73,147.71h.35l-1.81,5.19h-.36Z" id="el5zuewa7mesa" class="animable" style="transform-origin: 124.995px 150.305px;"></path><path d="M127.21,147.71h.36l-1.82,5.19h-.35Z" id="el3jp7sy660q5" class="animable" style="transform-origin: 126.485px 150.305px;"></path><path d="M132.33,150.67v1.68h-.39v-1.64c0-.61-.31-.93-.83-.93a.93.93,0,0,0-1,1.05v1.52h-.39v-1.64c0-.61-.31-.93-.84-.93a.94.94,0,0,0-1,1.05v1.52h-.39v-2.9h.38V150a1.15,1.15,0,0,1,1.06-.55,1,1,0,0,1,1,.61,1.26,1.26,0,0,1,1.14-.61A1.09,1.09,0,0,1,132.33,150.67Z" id="el40elbgdhq9k" class="animable" style="transform-origin: 129.915px 150.893px;"></path><path d="M135.78,149.45l-1.45,3.25c-.24.57-.55.75-1,.75a1,1,0,0,1-.71-.27l.19-.29a.71.71,0,0,0,.52.22c.26,0,.44-.12.6-.48l.13-.28-1.29-2.9h.4l1.1,2.47,1.09-2.47Z" id="elqplvcpi4oqo" class="animable" style="transform-origin: 134.2px 151.45px;"></path><path d="M136.34,148.26h.39v4.09h-.39Z" id="elbw66gnrcco7" class="animable" style="transform-origin: 136.535px 150.305px;"></path><path d="M137.73,148.54a.29.29,0,0,1,.29-.28.27.27,0,0,1,.28.27.28.28,0,0,1-.28.29A.29.29,0,0,1,137.73,148.54Zm.09.91h.39v2.9h-.39Z" id="ellqaqebrayvs" class="animable" style="transform-origin: 138.015px 150.305px;"></path><path d="M142,150.67v1.68h-.39v-1.64a.81.81,0,0,0-.87-.93,1,1,0,0,0-1,1.05v1.52h-.39v-2.9h.38V150a1.2,1.2,0,0,1,1.1-.56A1.11,1.11,0,0,1,142,150.67Z" id="elb7cm38p4pjd" class="animable" style="transform-origin: 140.678px 150.894px;"></path><path d="M144.11,150.9l-.68.62v.83H143v-4.09h.4V151l1.73-1.58h.48l-1.24,1.19,1.36,1.71h-.48Z" id="elmbuiv72wgys" class="animable" style="transform-origin: 144.365px 150.305px;"></path><path d="M147.48,147.71h.36L146,152.9h-.35Z" id="elg5d94os0v5m" class="animable" style="transform-origin: 146.745px 150.305px;"></path></g></g></g><g id="freepik--Window--inject-133" class="animable" style="transform-origin: 203.84px 227.565px;"><g id="elmvkt3x2f38k"><path d="M284.15,189.56v84a4.81,4.81,0,0,1-4.81,4.81h-158a4.81,4.81,0,0,1-4.81-4.81v-84a4.8,4.8,0,0,1,4.81-4.8h158A4.8,4.8,0,0,1,284.15,189.56Z" style="opacity: 0.2; isolation: isolate; transform-origin: 200.34px 231.565px;" class="animable"></path></g><path d="M291.15,181.56v84a4.81,4.81,0,0,1-4.81,4.81h-158a4.81,4.81,0,0,1-4.81-4.81v-84a4.8,4.8,0,0,1,4.81-4.8h158A4.8,4.8,0,0,1,291.15,181.56Z" style="fill: rgb(20, 162, 184); transform-origin: 207.34px 223.565px;" id="elmoc7ydqdf6" class="animable"></path><g id="elsq2ypjuqcc"><path d="M291.15,193v72.62a4.81,4.81,0,0,1-4.81,4.81h-158a4.81,4.81,0,0,1-4.81-4.81V193Z" style="fill: rgb(255, 255, 255); opacity: 0.5; isolation: isolate; transform-origin: 207.34px 231.715px;" class="animable"></path></g><rect x="133.64" y="205.93" width="113.73" height="19.54" style="fill: rgb(255, 255, 255); transform-origin: 190.505px 215.7px;" id="el0aspvbrc4vu4" class="animable"></rect><path d="M145.44,215.45v2.79h-.88v-2.69c0-1-.47-1.42-1.3-1.42a1.44,1.44,0,0,0-1.54,1.61v2.5h-.88v-6.79h.88v2.63a2.1,2.1,0,0,1,1.71-.73A1.87,1.87,0,0,1,145.44,215.45Z" style="fill: rgb(38, 50, 56); transform-origin: 143.147px 214.845px;" id="el1xc0i02ja6f" class="animable"></path><path d="M149.79,218a1.62,1.62,0,0,1-1.06.34,1.38,1.38,0,0,1-1.53-1.52v-2.66h-.83v-.72h.83v-1.06h.87v1.06h1.39v.72h-1.39v2.63a.71.71,0,0,0,.76.81,1.08,1.08,0,0,0,.69-.23Z" style="fill: rgb(38, 50, 56); transform-origin: 148.08px 215.365px;" id="elm1w8z3q6ssl" class="animable"></path><path d="M153.46,218a1.66,1.66,0,0,1-1.06.34,1.39,1.39,0,0,1-1.54-1.52v-2.66H150v-.72h.82v-1.06h.88v1.06h1.39v.72h-1.39v2.63a.71.71,0,0,0,.76.81,1.1,1.1,0,0,0,.69-.23Z" style="fill: rgb(38, 50, 56); transform-origin: 151.73px 215.364px;" id="el0sielb5av5a" class="animable"></path><path d="M159.54,215.81a2.35,2.35,0,0,1-2.45,2.48,2,2,0,0,1-1.69-.79V220h-.88v-6.62h.84v.77a2.06,2.06,0,0,1,1.73-.81A2.34,2.34,0,0,1,159.54,215.81Zm-.89,0a1.63,1.63,0,1,0-1.63,1.71A1.6,1.6,0,0,0,158.65,215.81Z" style="fill: rgb(38, 50, 56); transform-origin: 157.032px 216.669px;" id="elaha1ufj3j5q" class="animable"></path><path d="M160.14,217.72l.37-.69a3.13,3.13,0,0,0,1.7.5c.81,0,1.15-.24,1.15-.66,0-1.08-3.06-.14-3.06-2.07,0-.87.78-1.45,2-1.45a3.55,3.55,0,0,1,1.76.43l-.37.7a2.55,2.55,0,0,0-1.4-.38c-.77,0-1.14.28-1.14.66,0,1.15,3.07.21,3.07,2.1,0,.87-.81,1.43-2.09,1.43A3.53,3.53,0,0,1,160.14,217.72Z" style="fill: rgb(38, 50, 56); transform-origin: 162.18px 215.82px;" id="elbenwaw4r2g" class="animable"></path><path d="M164.93,214a.6.6,0,0,1,.62-.62.59.59,0,0,1,.6.62.61.61,0,0,1-.6.63A.62.62,0,0,1,164.93,214Zm0,3.69a.6.6,0,0,1,.62-.62.59.59,0,0,1,.6.62.6.6,0,0,1-.6.63A.61.61,0,0,1,164.93,217.66Z" style="fill: rgb(38, 50, 56); transform-origin: 165.539px 215.85px;" id="elu8cu8q12ftq" class="animable"></path><path d="M169.78,210.54h.79l-3,8.61h-.8Z" style="fill: rgb(38, 50, 56); transform-origin: 168.67px 214.845px;" id="eleh9zcaqsfg7" class="animable"></path><path d="M172.38,210.54h.79l-3,8.61h-.79Z" style="fill: rgb(38, 50, 56); transform-origin: 171.275px 214.845px;" id="el4021i8h3ibt" class="animable"></path><path d="M179.73,218.24v-4.67l-2.32,3.89H177l-2.31-3.86v4.64h-.88v-6.4h.75l2.67,4.5,2.63-4.5h.75v6.4Z" style="fill: rgb(38, 50, 56); transform-origin: 177.21px 215.04px;" id="el2ih7jdhydy4" class="animable"></path><path d="M185,216v2.22h-.91V216l-2.54-4.17h1l2,3.37,2.06-3.37h.91Z" style="fill: rgb(38, 50, 56); transform-origin: 184.535px 215.025px;" id="elv2s8bljcohh" class="animable"></path><path d="M188.33,211.84h.92v5.6h3.46v.8h-4.38Z" style="fill: rgb(38, 50, 56); transform-origin: 190.52px 215.04px;" id="elqd7kzavcpt" class="animable"></path><path d="M193.76,211.84h.92v6.4h-.92Z" style="fill: rgb(38, 50, 56); transform-origin: 194.22px 215.04px;" id="elp1kv8byj2rn" class="animable"></path><path d="M202.1,211.84v6.4h-.75l-3.84-4.78v4.78h-.91v-6.4h.75l3.83,4.77v-4.77Z" style="fill: rgb(38, 50, 56); transform-origin: 199.35px 215.04px;" id="eltjrkiaeiygs" class="animable"></path><path d="M206.1,215.39l-1.17,1.19v1.66H204v-6.4h.91v3.57l3.48-3.57h1l-2.73,2.88,2.9,3.52h-1.07Z" style="fill: rgb(38, 50, 56); transform-origin: 206.78px 215.04px;" id="elzwoio8gb3x" class="animable"></path><path d="M212.46,210.54h.79l-3,8.61h-.8Z" style="fill: rgb(38, 50, 56); transform-origin: 211.35px 214.845px;" id="eldd5n0cmji1" class="animable"></path><path d="M137.24,185.9h.54v2a2.9,2.9,0,0,1-1.94.67,2.68,2.68,0,1,1,0-5.35,2.58,2.58,0,0,1,2,.76l-.35.35a2.12,2.12,0,0,0-1.58-.62,2.19,2.19,0,1,0,0,4.37,2.28,2.28,0,0,0,1.37-.41Z" style="fill: rgb(255, 255, 255); transform-origin: 135.418px 185.895px;" id="ele2qs9x22xct" class="animable"></path><path d="M142.68,186.72h-3.31a1.47,1.47,0,0,0,1.56,1.38,1.55,1.55,0,0,0,1.21-.52l.3.35a2.1,2.1,0,0,1-3.61-1.37,1.93,1.93,0,1,1,3.86,0S142.68,186.66,142.68,186.72Zm-3.31-.39h2.8a1.4,1.4,0,0,0-2.8,0Z" style="fill: rgb(255, 255, 255); transform-origin: 140.76px 186.601px;" id="el6fqrkasbzbj" class="animable"></path><path d="M145.86,188.3a1.32,1.32,0,0,1-.84.27,1.05,1.05,0,0,1-1.16-1.15V185h-.7v-.45h.7v-.87h.54v.87h1.2V185h-1.2v2.36a.64.64,0,0,0,.68.73.87.87,0,0,0,.59-.21Z" style="fill: rgb(255, 255, 255); transform-origin: 144.51px 186.128px;" id="el46auys68949" class="animable"></path><path d="M148.91,183.27h.55v4.79h2.95v.48h-3.5Z" style="fill: rgb(255, 255, 255); transform-origin: 150.66px 185.905px;" id="eltq2abibrdk" class="animable"></path><path d="M153.1,183.33a.38.38,0,0,1,.39-.37.37.37,0,0,1,.39.36.39.39,0,0,1-.78,0Zm.12,1.25h.53v4h-.53Z" style="fill: rgb(255, 255, 255); transform-origin: 153.49px 185.77px;" id="elwp5xiwlojm8" class="animable"></path><path d="M158.88,186.24v2.3h-.53v-2.25a1.11,1.11,0,0,0-1.19-1.26,1.3,1.3,0,0,0-1.38,1.43v2.08h-.54v-4h.51v.73a1.67,1.67,0,0,1,1.51-.76A1.51,1.51,0,0,1,158.88,186.24Z" style="fill: rgb(255, 255, 255); transform-origin: 157.068px 186.522px;" id="el1ezak3meshx" class="animable"></path><path d="M161.8,186.55l-.94.86v1.13h-.53V183h.53v3.78l2.37-2.16h.66l-1.69,1.62,1.85,2.34h-.66Z" style="fill: rgb(255, 255, 255); transform-origin: 162.19px 185.79px;" id="el6z52sdnogh9" class="animable"></path><path d="M254.09,215.6a2.65,2.65,0,0,1,2.77-2.68,2.56,2.56,0,0,1,1.92.77l-.35.36a2.09,2.09,0,0,0-1.56-.63,2.18,2.18,0,1,0,0,4.36,2.05,2.05,0,0,0,1.56-.63l.35.36a2.57,2.57,0,0,1-1.93.77A2.64,2.64,0,0,1,254.09,215.6Z" style="fill: rgb(255, 255, 255); transform-origin: 256.435px 215.6px;" id="elot2l1tg7ms" class="animable"></path><path d="M259.39,215.6a2.77,2.77,0,1,1,2.76,2.68A2.65,2.65,0,0,1,259.39,215.6Zm5,0a2.21,2.21,0,1,0-2.21,2.18A2.14,2.14,0,0,0,264.36,215.6Z" style="fill: rgb(255, 255, 255); transform-origin: 262.159px 215.511px;" id="el2lis0nxt1xx" class="animable"></path><path d="M270.28,214.78c0,1.12-.81,1.79-2.15,1.79h-1.42v1.67h-.55V213h2C269.47,213,270.28,213.65,270.28,214.78Zm-.56,0c0-.85-.55-1.33-1.61-1.33h-1.4v2.63h1.4C269.17,216.08,269.72,215.6,269.72,214.78Z" style="fill: rgb(255, 255, 255); transform-origin: 268.22px 215.62px;" id="els8nl5nqi9ur" class="animable"></path><path d="M273.29,216.42v1.82h-.55v-1.82L270.63,213h.59l1.81,3,1.81-3h.55Z" style="fill: rgb(255, 255, 255); transform-origin: 273.01px 215.62px;" id="el5zf2vdhbhe5" class="animable"></path><path d="M280.07,206.93v17.54H248.36V206.93h31.71m1-1H247.36v19.54h33.71V205.93Z" style="fill: rgb(255, 255, 255); transform-origin: 264.215px 215.7px;" id="elbjtxrqwfgy" class="animable"></path><rect x="218.86" y="240.25" width="62.21" height="19.79" rx="4.31" style="fill: rgb(20, 162, 184); transform-origin: 249.965px 250.145px;" id="elruxhcyzp7be" class="animable"></rect><path d="M233.85,252.15l.35-.73a3.32,3.32,0,0,0,2.15.75c1.13,0,1.61-.43,1.61-1,0-1.6-4-.59-4-3,0-1,.78-1.87,2.5-1.87a3.91,3.91,0,0,1,2.1.58l-.31.74a3.4,3.4,0,0,0-1.79-.53c-1.11,0-1.59.47-1.59,1,0,1.59,4,.59,4,3,0,1-.81,1.86-2.53,1.86A3.9,3.9,0,0,1,233.85,252.15Z" style="fill: rgb(255, 255, 255); transform-origin: 236.36px 249.626px;" id="eli293pis326" class="animable"></path><path d="M245.85,246.37v6.52h-.93V250h-3.75v2.91h-.93v-6.52h.93v2.8h3.75v-2.8Z" style="fill: rgb(255, 255, 255); transform-origin: 243.045px 249.64px;" id="el36fmc1k4h1p" class="animable"></path><path d="M252,251.26H248.5l-.72,1.63h-1l3-6.52h.92l3,6.52h-1Zm-.33-.75-1.4-3.19-1.41,3.19Z" style="fill: rgb(255, 255, 255); transform-origin: 250.24px 249.63px;" id="elu5xrzwa1q6" class="animable"></path><path d="M259,252.89l-1.41-2-.41,0h-1.61v2h-.93v-6.52h2.54c1.7,0,2.73.85,2.73,2.27a2.07,2.07,0,0,1-1.44,2.06l1.55,2.19Zm0-4.25c0-.93-.62-1.46-1.81-1.46h-1.59v2.93h1.59C258.35,250.11,259,249.57,259,248.64Z" style="fill: rgb(255, 255, 255); transform-origin: 257.33px 249.63px;" id="elt5fi708hyue" class="animable"></path><path d="M266.15,252.08v.81h-4.73v-6.52H266v.81h-3.67v2h3.27V250h-3.27v2.11Z" style="fill: rgb(255, 255, 255); transform-origin: 263.785px 249.63px;" id="elpoyidii7hu7" class="animable"></path></g><g id="freepik--speech-bubble--inject-133" class="animable" style="transform-origin: 340.015px 188.52px;"><rect x="328.72" y="175.14" width="22.59" height="22.59" rx="3.05" style="fill: rgb(20, 162, 184); transform-origin: 340.015px 186.435px;" id="el3upw8w4a5ik" class="animable"></rect><circle cx="334.81" cy="181.09" r="1.4" style="fill: rgb(255, 255, 255); transform-origin: 334.81px 181.09px;" id="el9klaojrgpvo" class="animable"></circle><circle cx="345.23" cy="186.15" r="1.4" style="fill: rgb(255, 255, 255); transform-origin: 345.23px 186.15px;" id="el6o97vk4i1sr" class="animable"></circle><path d="M336.74,191.78a1.4,1.4,0,1,1-1.4-1.4A1.4,1.4,0,0,1,336.74,191.78Z" style="fill: rgb(255, 255, 255); transform-origin: 335.34px 191.78px;" id="ely439usxw4fh" class="animable"></path><polygon points="335.46 192 335.21 191.57 344.69 186.17 334.7 181.31 334.92 180.86 345.76 186.13 335.46 192" style="fill: rgb(255, 255, 255); transform-origin: 340.23px 186.43px;" id="elxyl8buf6s2b" class="animable"></polygon><path d="M340.59,195s0,4.7,2.68,6.9c0,0-3.72-.64-5.43-6.1Z" style="fill: rgb(20, 162, 184); transform-origin: 340.555px 198.45px;" id="ellu7pr1cuuz" class="animable"></path></g><g id="freepik--Character--inject-133" class="animable" style="transform-origin: 345.855px 311.968px;"><g id="eli0akt909879"><rect x="340.6" y="339.09" width="7.29" height="76.25" style="fill: rgb(20, 162, 184); transform-origin: 344.245px 377.215px; transform: rotate(180deg);" class="animable"></rect></g><g id="elilyq8aywkz"><rect x="340.6" y="339.09" width="7.29" height="76.25" style="opacity: 0.2; isolation: isolate; transform-origin: 344.245px 377.215px; transform: rotate(180deg);" class="animable"></rect></g><g id="el5ewt4uktadg"><rect x="288.41" y="339.09" width="7.29" height="76.25" style="fill: rgb(20, 162, 184); transform-origin: 292.055px 377.215px; transform: rotate(180deg);" class="animable"></rect></g><g id="elut2bn9k94on"><rect x="288.41" y="339.09" width="7.29" height="76.25" style="opacity: 0.2; isolation: isolate; transform-origin: 292.055px 377.215px; transform: rotate(180deg);" class="animable"></rect></g><g id="elvdz4y0w716a"><rect x="350.19" y="339.09" width="7.29" height="76.25" style="fill: rgb(20, 162, 184); transform-origin: 353.835px 377.215px; transform: rotate(180deg);" class="animable"></rect></g><g id="el4tahqgc4uf8"><rect x="402.38" y="339.09" width="7.29" height="76.25" style="fill: rgb(20, 162, 184); transform-origin: 406.025px 377.215px; transform: rotate(180deg);" class="animable"></rect></g><path d="M273.48,336.26v5.64a1.64,1.64,0,0,0,1.64,1.65H416.58a1.65,1.65,0,0,0,1.65-1.65v-5.64a1.65,1.65,0,0,0-1.65-1.64H275.12A1.64,1.64,0,0,0,273.48,336.26Z" style="fill: rgb(20, 162, 184); transform-origin: 345.855px 339.085px;" id="elsswb3nfor5o" class="animable"></path><g id="elrnu29uhl98r"><path d="M273.48,336.26v5.64a1.64,1.64,0,0,0,1.64,1.65H416.58a1.65,1.65,0,0,0,1.65-1.65v-5.64a1.65,1.65,0,0,0-1.65-1.64H275.12A1.64,1.64,0,0,0,273.48,336.26Z" style="fill: rgb(255, 255, 255); opacity: 0.2; isolation: isolate; transform-origin: 345.855px 339.085px;" class="animable"></path></g><g id="eltiwk1phwwza"><path d="M361.35,336.26v5.64a1.65,1.65,0,0,0,1.65,1.65h53.58a1.65,1.65,0,0,0,1.65-1.65v-5.64a1.65,1.65,0,0,0-1.65-1.64H363A1.65,1.65,0,0,0,361.35,336.26Z" style="fill: rgb(255, 255, 255); opacity: 0.3; isolation: isolate; transform-origin: 389.79px 339.085px;" class="animable"></path></g><g id="freepik--group--inject-133" class="animable" style="transform-origin: 337.355px 311.868px;"><path d="M360.27,209a10.92,10.92,0,0,1,8,10.74c0,4.86.14,4.8,2.91,6.58s-1.78,5-1.78,5a2.78,2.78,0,0,1-.33,3.34c-1.45,1.61,1.38,2.14,1.38,2.14s-1.18,2.55-2.7,1.17c0,0,.16,2.75-4.3,2.94s-11.62,2.08-13.32-.29-7.11-9.23-7.11-9.23-4.75-1.87-3.36-8.35,6.4-11.17,11.08-11S360.27,209,360.27,209Z" style="fill: rgb(38, 50, 56); transform-origin: 355.74px 225.402px;" id="elxq2x93jni88" class="animable"></path><path d="M328.36,248.2s-3.74.75-3.73,1.44,1.46,6.08,2.13,6.74a11.76,11.76,0,0,0,2.26,1.47l-.95,8.72,5.11,1.32.07-9.3s1.8-2.73.51-5.42S328.36,248.2,328.36,248.2Z" style="fill: rgb(228, 137, 123); transform-origin: 329.428px 258.045px;" id="elhkn9eq4g17h" class="animable"></path><g id="elmnvhmjqm03"><path d="M328.36,248.2s-3.74.75-3.73,1.44,1.46,6.08,2.13,6.74a11.76,11.76,0,0,0,2.26,1.47l-.95,8.72,5.11,1.32.07-9.3s1.8-2.73.51-5.42S328.36,248.2,328.36,248.2Z" style="opacity: 0.2; isolation: isolate; transform-origin: 329.428px 258.045px;" class="animable"></path></g><path d="M341.94,249.22c-3.38,2.42-4.66,15.8-6,17.74s-1.87-3.7-1.87-3.7l-6.8-.32s-.93,7.95,3,13.61,11.17,1.45,15.28-7.62S341.94,249.22,341.94,249.22Z" style="fill: rgb(38, 50, 56); transform-origin: 336.965px 264.169px;" id="eli782tyz8s9m" class="animable"></path><g id="eliy0t28cpf8"><path d="M330.27,276.55a5.69,5.69,0,0,0,3.08,2.38c3.95,1.13,9-3,12.19-10a14.48,14.48,0,0,0,1.17-6.93c-.44-6.81-4.77-12.78-4.77-12.78-3.37,2.42-4.66,15.8-6,17.74s-1.86-3.7-1.86-3.7l-6.81-.33S326.34,270.9,330.27,276.55Z" style="fill: rgb(255, 255, 255); opacity: 0.2; isolation: isolate; transform-origin: 336.964px 264.168px;" class="animable"></path></g><path d="M341.84,249.35c-1.73.22-6.15,14.82-6.15,14.82L346.75,269l2.93-8.61Z" style="fill: rgb(20, 162, 184); transform-origin: 342.685px 259.175px;" id="elhs6rvjmsz8p" class="animable"></path><g id="eltdc05ypb8vl"><path d="M349.68,260.35,346.75,269l-2.85-1.23-8.21-3.56s4.42-14.6,6.15-14.82l3.26,4.57Z" style="fill: rgb(255, 255, 255); opacity: 0.5; isolation: isolate; transform-origin: 342.685px 259.195px;" class="animable"></path></g><g id="elu1qh3kx4t"><path d="M349.68,260.35,346.75,269l-2.85-1.23a14,14,0,0,1,1.2-13.81Z" style="opacity: 0.2; isolation: isolate; transform-origin: 346.149px 261.48px;" class="animable"></path></g><polygon points="297.5 406.88 290.75 405.03 291.96 388.57 298.69 390.43 297.5 406.88" style="fill: rgb(228, 137, 123); transform-origin: 294.72px 397.725px;" id="el5aaz76ys8zc" class="animable"></polygon><path d="M290.34,404.13l7.83.55a.48.48,0,0,1,.48.5h0l0,6.22a1.22,1.22,0,0,1-1.3,1.15c-2.73-.23-4-.48-7.46-.75a65,65,0,0,1-9.16-.91c-2.85-.66-2.12-3.47-.86-3.44a19.2,19.2,0,0,0,9.3-3A2,2,0,0,1,290.34,404.13Z" style="fill: rgb(38, 50, 56); transform-origin: 288.704px 408.341px;" id="eld7pmp3wrqp8" class="animable"></path><path d="M286.5,404.71a.86.86,0,0,1-.13-.92.6.6,0,0,1,.4-.43c.88-.27,2.76,1.21,3,1.38a.21.21,0,0,1,.05.17.18.18,0,0,1-.13.12,8.45,8.45,0,0,1-1.88.12A1.89,1.89,0,0,1,286.5,404.71Zm.37-1a.28.28,0,0,0-.2.21.62.62,0,0,0,.07.59c.31.34,1.22.45,2.49.29-.78-.57-1.89-1.24-2.36-1.09Z" style="fill: rgb(20, 162, 184); transform-origin: 288.057px 404.243px;" id="ell2ipqhht7lg" class="animable"></path><path d="M289.54,405c-.66-.46-1.6-2-1.39-2.74a.62.62,0,0,1,.62-.45.82.82,0,0,1,.68.27c.65.73.35,2.75.35,2.81a.2.2,0,0,1-.1.12.08.08,0,0,1-.07,0A.14.14,0,0,1,289.54,405Zm-.76-2.84c-.23,0-.3.12-.32.21a3.45,3.45,0,0,0,1,2.2,3.51,3.51,0,0,0-.3-2.24.44.44,0,0,0-.34-.17Z" style="fill: rgb(20, 162, 184); transform-origin: 288.995px 403.413px;" id="eliuurrg21gec" class="animable"></path><g id="el0z5q0c8goxae"><polygon points="298.69 390.43 291.96 388.58 291.27 397.99 298.04 399.5 298.69 390.43" style="opacity: 0.2; isolation: isolate; transform-origin: 294.98px 394.04px;" class="animable"></polygon></g><polygon points="306.31 406.64 312.68 409.54 314.3 402.7 316.48 393.5 310.13 390.59 307.94 399.78 306.31 406.64" style="fill: rgb(228, 137, 123); transform-origin: 311.395px 400.065px;" id="elewvbjhzqb6o" class="animable"></polygon><g id="el8zfvuj8qsj"><polygon points="307.94 399.78 314.3 402.7 316.48 393.5 310.13 390.59 307.94 399.78" style="opacity: 0.2; isolation: isolate; transform-origin: 312.21px 396.645px;" class="animable"></polygon></g><path d="M306.05,405.69l7.64,1.78a.5.5,0,0,1,.4.58h0l-1,6.14a1.22,1.22,0,0,1-1.46.92c-2.66-.66-3.89-1.11-7.25-1.93a64.07,64.07,0,0,1-8.9-2.36c-2.71-1.11-1.54-3.76-.29-3.53a19.25,19.25,0,0,0,9.65-1.49A2,2,0,0,1,306.05,405.69Z" style="fill: rgb(38, 50, 56); transform-origin: 303.965px 410.391px;" id="el2fxmzmw179o" class="animable"></path><path d="M302.17,405.65a.85.85,0,0,1,0-.93.61.61,0,0,1,.47-.36c.91-.13,2.53,1.63,2.72,1.84a.2.2,0,0,1,0,.17.15.15,0,0,1-.15.09,9,9,0,0,1-1.87-.17A1.85,1.85,0,0,1,302.17,405.65Zm.52-.94a.28.28,0,0,0-.23.18.59.59,0,0,0,0,.59c.25.39,1.13.64,2.41.68-.68-.69-1.68-1.52-2.16-1.45Z" style="fill: rgb(20, 162, 184); transform-origin: 303.705px 405.407px;" id="elp3j28jf485k" class="animable"></path><path d="M305.12,406.44c-.59-.55-1.27-2.22-.94-2.92a.63.63,0,0,1,.69-.35.88.88,0,0,1,.62.38c.53.83-.09,2.77-.1,2.83a.25.25,0,0,1-.12.11.11.11,0,0,1-.07,0A.08.08,0,0,1,305.12,406.44Zm-.3-2.92c-.23,0-.32.07-.35.16a3.44,3.44,0,0,0,.68,2.34,3.66,3.66,0,0,0,.06-2.26.48.48,0,0,0-.31-.23Z" style="fill: rgb(20, 162, 184); transform-origin: 304.899px 404.827px;" id="elj5zt7vnml2p" class="animable"></path><path d="M353.52,313.19l2.06-22.74,38,.89S398,323,394.77,328.85c-5.83,10.39-44.1,4.49-53,5.37C338.06,336.17,318.5,401,318.5,401l-10.95-4.42s11.78-54.72,14.46-65C325.74,317.23,341,317.48,353.52,313.19Z" style="fill: rgb(38, 50, 56); transform-origin: 351.75px 345.725px;" id="elynpkdfcra5" class="animable"></path><path d="M290.6,395.46l9.66.89S312.11,336,313,335.77c1.65-.47,6.45-1,9-1.68,17.92-4.66,62.07-13.24,62.07-13.24l-16.28-15.69S294,314,292.4,331.35C291.61,339.68,290.6,395.46,290.6,395.46Z" style="fill: rgb(38, 50, 56); transform-origin: 337.335px 350.755px;" id="el83fz9n1wwds" class="animable"></path><g id="elfp1wogh2pq"><path d="M315.64,335.81c1.65-.47,3.84-1.05,6.42-1.72-.72.38,1.36-9,3.43-11.45,4.1-4.84,20.59-7.45,26.51-8.4,4.94-.79,21.54-2.26,21.54-2.26s-29.3-2.53-51.38,3.53C311.25,318.51,313.19,329.16,315.64,335.81Z" style="opacity: 0.2; isolation: isolate; transform-origin: 343.637px 323.633px;" class="animable"></path></g><path d="M335.67,251.19a.58.58,0,0,1-.49.73l-6.45.9a.76.76,0,0,1-.82-.54l-3.23-12.53a.66.66,0,0,1,.48-.82l6.45-.9a.84.84,0,0,1,.84.63Z" style="fill: rgb(38, 50, 56); transform-origin: 330.173px 245.428px;" id="el5jhb9x3gpz2" class="animable"></path><g id="elxsgz3fgbxfn"><path d="M331.72,238.68,335,251.33a.5.5,0,0,1-.42.68l-5.47.76c-.37,0-1.07-.05-1.16-.41l-3.27-12.69c-.09-.36.5-.74.86-.79l5.47-.77A.68.68,0,0,1,331.72,238.68Z" style="fill: rgb(255, 255, 255); opacity: 0.5; transform-origin: 329.853px 245.439px;" class="animable"></path></g><polygon points="306.71 394.04 306.31 397.73 318.98 402.19 320.17 399.5 306.71 394.04" style="fill: rgb(20, 162, 184); transform-origin: 313.24px 398.115px;" id="el7p67izhjq2t" class="animable"></polygon><polygon points="288.59 392.21 288.98 395.89 301.04 397.27 301.55 394.38 288.59 392.21" style="fill: rgb(20, 162, 184); transform-origin: 295.07px 394.74px;" id="elnp6llwcj68" class="animable"></polygon><path d="M354.71,295.09c-2.22-12.73-5.95-29.78-12.87-45.74a82,82,0,0,1,11.2-3.8A151,151,0,0,1,370,242a75.13,75.13,0,0,1,11.9-.32s8.56,16,12.9,53.42Z" style="fill: rgb(20, 162, 184); transform-origin: 368.32px 268.338px;" id="el7ii7c810zgi" class="animable"></path><g id="el2hdnrah76f6"><path d="M394.79,295.09H354.71c-2.22-12.73-5.95-29.78-12.87-45.74a80.68,80.68,0,0,1,11.2-3.8A151,151,0,0,1,370,242a75.13,75.13,0,0,1,11.9-.32,47.82,47.82,0,0,1,2.08,4.74,140,140,0,0,1,5.4,17.58A252.91,252.91,0,0,1,394.79,295.09Z" style="fill: rgb(255, 255, 255); opacity: 0.6; isolation: isolate; transform-origin: 368.315px 268.333px;" class="animable"></path></g><g id="elucohzpsnnw"><path d="M389.37,264c-6.49,4.83-15.93-2-15.93-2L384,246.41A140,140,0,0,1,389.37,264Z" style="opacity: 0.2; isolation: isolate; transform-origin: 381.405px 256.069px;" class="animable"></path></g><path d="M360.83,252.24c6.32,1.4,11.22-7.71,11.22-7.71s0-2.41-9.58-1.21S351.93,250.27,360.83,252.24Z" style="fill: rgb(38, 50, 56); transform-origin: 363.368px 247.686px;" id="elfqej9e5dun" class="animable"></path><g id="elfphey9uej6d"><path d="M360.83,252.24c6.32,1.4,11.22-7.71,11.22-7.71s0-2.41-9.58-1.21S351.93,250.27,360.83,252.24Z" style="fill: rgb(255, 255, 255); opacity: 0.2; isolation: isolate; transform-origin: 363.368px 247.686px;" class="animable"></path></g><g id="elbcoyntx2e7u"><polygon points="354.46 264.8 370.33 263.09 374.17 281.39 358.79 282.6 354.46 264.8" style="fill: rgb(255, 255, 255); opacity: 0.5; isolation: isolate; transform-origin: 364.315px 272.845px;" class="animable"></polygon></g><g id="el9ydec5xln"><polygon points="354.46 264.8 374.17 281.39 370.33 263.09 354.46 264.8" style="opacity: 0.2; isolation: isolate; transform-origin: 364.315px 272.24px;" class="animable"></polygon></g><path d="M346.34,258.05l-5.76-3.78s-2.45-7.37-3-8.1-6.63.93-7.3,1,1.11,7.6,1.92,8.25,3.46.73,3.46.73L342.2,262Z" style="fill: rgb(228, 137, 123); transform-origin: 338.236px 253.992px;" id="elubufj6gg46d" class="animable"></path><path d="M380.93,241.68c-3.84.89-13.07,16.85-18,19.79S344.35,255,344.35,255l-4.67,5.81s11.05,9.74,20.72,10,23.38-13.45,25.42-18.46S385.61,240.6,380.93,241.68Z" style="fill: rgb(38, 50, 56); transform-origin: 363.127px 256.189px;" id="elr9rr58f188" class="animable"></path><g id="el66wdv3z7coc"><path d="M380.93,241.68c-3.84.89-13.07,16.85-18,19.79S344.35,255,344.35,255l-4.67,5.81s11.05,9.74,20.72,10,23.38-13.45,25.42-18.46S385.61,240.6,380.93,241.68Z" style="fill: rgb(255, 255, 255); opacity: 0.2; isolation: isolate; transform-origin: 363.127px 256.189px;" class="animable"></path></g><path d="M360.55,227.7c1.51,5.47,5.11,15.09,10.26,16.67,0,0-3.79,6.21-9.47,6.73-3.61.33-5.61-3.75-5.61-3.75,3.68-.69,2.27-3.39-.63-6.77Z" style="fill: rgb(228, 137, 123); transform-origin: 362.955px 239.409px;" id="el8cmhlkmkyd8" class="animable"></path><g id="el2egjdv7w5i8"><path d="M358.33,233l-3.22,7.62a20.54,20.54,0,0,1,1.85,2.51c3.62.28,6.22-5.46,5.33-7.8C362,234.32,359,233.73,358.33,233Z" style="opacity: 0.2; isolation: isolate; transform-origin: 358.788px 238.07px;" class="animable"></path></g><path d="M348,219c3.45,1.43,2.79,5.2-2.93,12.06-3.53-3-5.44-9.94-3.59-12.16S345,217.74,348,219Z" style="fill: rgb(38, 50, 56); transform-origin: 345.434px 224.335px;" id="elgrqz6yqgz0i" class="animable"></path><path d="M362.23,221.92c1.2,7.47,2.28,11.77-.59,16.39-4.31,6.94-14.16,5.61-17.58-1.35-3.05-6.25-4.51-17.42,2-22a10.32,10.32,0,0,1,16.13,6.92Z" style="fill: rgb(228, 137, 123); transform-origin: 352.469px 227.993px;" id="elx3483ym2wli" class="animable"></path><path d="M351.68,226.41c.14.6-.07,1.16-.47,1.24s-.81-.32-.94-.92.07-1.15.45-1.25S351.51,225.83,351.68,226.41Z" style="fill: rgb(38, 50, 56); transform-origin: 350.977px 226.563px;" id="ellc8xkusuuw" class="animable"></path><path d="M344.87,228c.13.6-.08,1.16-.47,1.24s-.82-.32-1-.92.08-1.16.47-1.25S344.73,227.35,344.87,228Z" style="fill: rgb(38, 50, 56); transform-origin: 344.125px 228.153px;" id="el1bx5xuaeqkp" class="animable"></path><path d="M347.16,227.73a21.82,21.82,0,0,1-1.72,5.77,3.54,3.54,0,0,0,3-.11Z" style="fill: rgb(222, 87, 83); transform-origin: 346.94px 230.756px;" id="eln4lyw95v6c" class="animable"></path><path d="M353.06,223.84a.28.28,0,0,0,.21-.1.36.36,0,0,0,0-.51,3.61,3.61,0,0,0-3.2-.81.37.37,0,0,0-.25.43v0a.37.37,0,0,0,.45.24h0a2.87,2.87,0,0,1,2.51.67A.36.36,0,0,0,353.06,223.84Z" style="fill: rgb(38, 50, 56); transform-origin: 351.594px 223.085px;" id="el9wvxutm9aks" class="animable"></path><path d="M341.25,226.35a.38.38,0,0,0,.28-.27,2.85,2.85,0,0,1,1.62-2,.37.37,0,0,0-.24-.69,3.6,3.6,0,0,0-2.08,2.56.35.35,0,0,0,.26.43h0A.43.43,0,0,0,341.25,226.35Z" style="fill: rgb(38, 50, 56); transform-origin: 342.081px 224.882px;" id="elvw6nj9bdfnl" class="animable"></path><path d="M357.83,216.05c-3.18,2-1.93,5.57,4.82,11.43,3-3.56,3.78-10.69,1.6-12.58S360.6,214.35,357.83,216.05Z" style="fill: rgb(38, 50, 56); transform-origin: 360.829px 220.73px;" id="elsuwrabfq6fh" class="animable"></path><path d="M367.06,227a7.2,7.2,0,0,1-2.39,4.95c-1.9,1.66-3.93.22-4.31-2.13-.35-2.13.23-5.55,2.57-6.3A3.2,3.2,0,0,1,367.06,227Z" style="fill: rgb(228, 137, 123); transform-origin: 363.677px 228.02px;" id="el8q73hge0e6r" class="animable"></path><path d="M349.68,235a19.84,19.84,0,0,1,1.36,2.35l.46-.14c2.07-.65,2.82-1.63,3-2.52a3.13,3.13,0,0,0-.34-2,10.22,10.22,0,0,1-3.8,2.11Z" style="fill: rgb(38, 50, 56); transform-origin: 352.11px 235.02px;" id="elc1b6b8ug5ql" class="animable"></path><path d="M350.38,234.79l.42.68c1.95-.61,3.24-1.31,3.66-2.09a2.89,2.89,0,0,0-.28-.7A10.22,10.22,0,0,1,350.38,234.79Z" style="fill: rgb(255, 255, 255); transform-origin: 352.42px 234.075px;" id="el5oroyxb1f7j" class="animable"></path><path d="M351.5,237.23c2.07-.65,2.82-1.63,3-2.52a6.84,6.84,0,0,0-2.16,1.17A2.58,2.58,0,0,0,351.5,237.23Z" style="fill: rgb(162, 78, 63); transform-origin: 353px 235.97px;" id="elnil81z8xys" class="animable"></path><path d="M364.21,216s1.84-3-2.11-6-8.74,0-8.74,0-.81-.78-3.68-1.35-6.77,3.5-9.14,4.47-4.81,3.54-3.56,6.64-2.51,10.23,3.1,9.43a2.21,2.21,0,0,1-1.06-2.85c.66-2.1,3-2.16,3.08-6.51s4.19-1.6,4.19-1.6,1.3-2,3.08-1.83,4.88,1.54,5.31,7,4.64,6.85,8.27,3.63,4.36-3.16,5-1.54c0,0,1.38-2.36-1.59-3.14S363.09,217.59,364.21,216Z" style="fill: rgb(38, 50, 56); transform-origin: 352.456px 218.924px;" id="elerjzkj898p" class="animable"></path><path d="M369.09,251.55l12.53,9.33s8.93-10,3.79-17.79S369.09,251.55,369.09,251.55Z" style="fill: rgb(20, 162, 184); transform-origin: 378.047px 250.928px;" id="elo7tunlniyb" class="animable"></path><g id="elpc9krucrlxh"><path d="M369.09,251.55l12.53,9.33s8.93-10,3.79-17.79S369.09,251.55,369.09,251.55Z" style="fill: rgb(255, 255, 255); opacity: 0.5; isolation: isolate; transform-origin: 378.047px 250.928px;" class="animable"></path></g></g></g><defs>     <filter id="active" height="200%">         <feMorphology in="SourceAlpha" result="DILATED" operator="dilate" radius="2"></feMorphology>                <feFlood flood-color="#32DFEC" flood-opacity="1" result="PINK"></feFlood>        <feComposite in="PINK" in2="DILATED" operator="in" result="OUTLINE"></feComposite>        <feMerge>            <feMergeNode in="OUTLINE"></feMergeNode>            <feMergeNode in="SourceGraphic"></feMergeNode>        </feMerge>    </filter>    <filter id="hover" height="200%">        <feMorphology in="SourceAlpha" result="DILATED" operator="dilate" radius="2"></feMorphology>                <feFlood flood-color="#ff0000" flood-opacity="0.5" result="PINK"></feFlood>        <feComposite in="PINK" in2="DILATED" operator="in" result="OUTLINE"></feComposite>        <feMerge>            <feMergeNode in="OUTLINE"></feMergeNode>            <feMergeNode in="SourceGraphic"></feMergeNode>        </feMerge>            <feColorMatrix type="matrix" values="0   0   0   0   0                0   1   0   0   0                0   0   0   0   0                0   0   0   1   0 "></feColorMatrix>    </filter></defs></svg>