<svg xmlns="http://www.w3.org/2000/svg" viewBox="0 0 750 500"><g id="freepik--Device--inject-46"><path d="M627.37,55.15H147.79a15,15,0,0,0-15,15V408.86a15,15,0,0,0,15,15H331.85s11.71,36.2-24.58,54.94h172.1s-41-14-30.44-54.94H627.37a15,15,0,0,0,15-15V70.12A15,15,0,0,0,627.37,55.15Z" style="fill:#263238"></path><path d="M394,388.2c6.53,9.33-3.68,19.54-13,13a3.62,3.62,0,0,1-.8-.81c-6.5-9.32,3.69-19.52,13-13A3.38,3.38,0,0,1,394,388.2Z" style="fill:#455a64"></path><path d="M150.78,61.36H624.39a9.7,9.7,0,0,1,9.7,9.7v290.8a0,0,0,0,1,0,0h-493a0,0,0,0,1,0,0V71.06A9.7,9.7,0,0,1,150.78,61.36Z" style="fill:#fff"></path><path d="M150.23,61.36H626.57a7.52,7.52,0,0,1,7.52,7.52V86.33a0,0,0,0,1,0,0h-493a0,0,0,0,1,0,0V70.51a9.15,9.15,0,0,1,9.15-9.15Z" style="fill:#ebebeb"></path><path d="M160.24,74.37a3.46,3.46,0,1,1-3.46-3.46A3.46,3.46,0,0,1,160.24,74.37Z" style="fill:#263238"></path><path d="M170.57,74.37a3.47,3.47,0,1,1-3.46-3.46A3.46,3.46,0,0,1,170.57,74.37Z" style="fill:#263238"></path><path d="M180.39,74.37a3.47,3.47,0,1,1-3.47-3.46A3.46,3.46,0,0,1,180.39,74.37Z" style="fill:#263238"></path><path d="M541.63,423.88c0,.16-68.24.28-152.41.28S236.8,424,236.8,423.88s68.23-.29,152.42-.29S541.63,423.72,541.63,423.88Z" style="fill:#455a64"></path><path d="M485.19,243.74l-.14,0-.4-.16-1.53-.64-5.59-2.39-18.38-8-.64-.28h.13l-18,7.71-5.45,2.29-1.48.6a3,3,0,0,1-.53.19l.5-.25,1.46-.66,5.41-2.39,18-7.79.07,0,.07,0,.63.28,18.35,8.09,5.54,2.49,1.5.7.39.18C485.15,243.71,485.19,243.73,485.19,243.74Z" style="fill:#e0e0e0"></path><rect x="395.8" y="241.1" width="218.07" height="88.4" style="fill:#e0e0e0"></rect><rect x="399.92" y="245.21" width="110.25" height="80.66" style="fill:#fafafa"></rect><path d="M424.28,280.45s.11,13.54.8,17.67l17-.8s-1.49-13.31-.92-16.87Z" style="fill:#e0e0e0"></path><path d="M432.64,282.36h.25a3.83,3.83,0,0,1,.7,0,3.49,3.49,0,0,1,2.26,1.25,3.64,3.64,0,0,1,.63,3.73,6.13,6.13,0,0,1-.47,1.05,10.56,10.56,0,0,0-.55,1.06,9,9,0,0,0-.68,2.41v.05h0L433,292l-1.76,0h-.06v-.06a4.93,4.93,0,0,0-.81-2.32c-.2-.35-.43-.68-.64-1a9.65,9.65,0,0,1-.59-1,3.23,3.23,0,0,1-.27-2.07,4.34,4.34,0,0,1,.66-1.69,3.31,3.31,0,0,1,1.1-1,4.32,4.32,0,0,1,1.74-.51h.18l-.18,0a6.33,6.33,0,0,0-.68.13,4.56,4.56,0,0,0-1,.42,3.17,3.17,0,0,0-1.06,1,4.17,4.17,0,0,0-.63,1.66,3.14,3.14,0,0,0,.27,2,9.94,9.94,0,0,0,.59,1c.21.32.44.65.64,1a5.11,5.11,0,0,1,.84,2.39l-.06-.07,1.76,0,1.67,0-.06.06a9.53,9.53,0,0,1,.7-2.45,10.74,10.74,0,0,1,.55-1.07,5.62,5.62,0,0,0,.48-1,3.8,3.8,0,0,0,.18-2,3.87,3.87,0,0,0-.78-1.6,3.53,3.53,0,0,0-1.14-.92,3.84,3.84,0,0,0-1.05-.34,5.93,5.93,0,0,0-.7-.06h-.25Z" style="fill:#fff"></path><path d="M433.51,291.8a.28.28,0,0,0,0-.06l0-.15c0-.14-.06-.35-.1-.61-.07-.53-.19-1.29-.26-2.24,0-.24,0-.49-.05-.75s0-.53,0-.81a2.37,2.37,0,0,1,.19-.85,1.33,1.33,0,0,1,.65-.65.85.85,0,0,1,.92.18.63.63,0,0,1,.2.46.85.85,0,0,1-.17.49,1.2,1.2,0,0,1-.41.33,2.18,2.18,0,0,1-.51.17,6.15,6.15,0,0,1-1.07.12,6.51,6.51,0,0,1-1.08-.05,1.86,1.86,0,0,1-.51-.15,1.15,1.15,0,0,1-.42-.3,1,1,0,0,1-.25-.46.78.78,0,0,1,.06-.5.68.68,0,0,1,.35-.34.6.6,0,0,1,.49,0,.9.9,0,0,1,.36.31,1.22,1.22,0,0,1,.18.42,4.3,4.3,0,0,1,.08.86q0,.84.09,1.56c0,.95.08,1.72.11,2.25,0,.27,0,.47,0,.61v.16s0-.09,0-.15l0-.62c0-.53-.08-1.3-.13-2.25,0-.47-.06-1-.09-1.55a5.13,5.13,0,0,0-.09-.86,1.05,1.05,0,0,0-.17-.41,1,1,0,0,0-.34-.29.58.58,0,0,0-.45,0,.68.68,0,0,0-.33.32.76.76,0,0,0,0,.47.9.9,0,0,0,.23.43,1.54,1.54,0,0,0,.91.44,6.34,6.34,0,0,0,1.07.05,6.14,6.14,0,0,0,1.06-.12,2.27,2.27,0,0,0,.5-.17,1.07,1.07,0,0,0,.39-.31.76.76,0,0,0,.16-.46.6.6,0,0,0-.18-.42.81.81,0,0,0-.87-.17,1.27,1.27,0,0,0-.63.62,2.5,2.5,0,0,0-.19.83c0,.28,0,.55,0,.81s0,.51,0,.75c.07.95.17,1.71.24,2.24l.09.6,0,.16Z" style="fill:#fff"></path><path d="M431.28,291.89a5.49,5.49,0,0,1,0,.56c0,.41.05.9.08,1.47l0,0,1.15,1.31-.06,0,1.32-.08-.06,0,.66-.8.33-.4,0,.05c0-.78,0-1.51-.05-2.18l.08.07-2.47,0h-1s.07,0,.23,0l.7,0,2.51-.1h.07v.07c0,.67,0,1.4.07,2.17v0l0,0-.33.4-.66.8,0,0h0l-1.33.06h0l0,0L431.29,294h0v0c0-.59,0-1.09,0-1.51A4.14,4.14,0,0,1,431.28,291.89Z" style="fill:#fff"></path><path d="M434.69,293.8l-.13-.05a2.54,2.54,0,0,0-.34-.14,3.31,3.31,0,0,0-1.19-.18,3.24,3.24,0,0,0-1.18.25c-.15.06-.26.12-.34.16l-.12.06.11-.08a2.44,2.44,0,0,1,.33-.17,3.12,3.12,0,0,1,1.19-.27,2.94,2.94,0,0,1,1.21.2,2.37,2.37,0,0,1,.34.15Z" style="fill:#fff"></path><path d="M434.69,293.27l-.13,0a2.54,2.54,0,0,0-.34-.14,3.55,3.55,0,0,0-1.19-.18,3.24,3.24,0,0,0-1.18.25c-.15.06-.26.12-.34.16l-.12.06.11-.08c.08,0,.19-.11.33-.17a3.12,3.12,0,0,1,1.19-.27,2.94,2.94,0,0,1,1.21.2,2.37,2.37,0,0,1,.34.15Z" style="fill:#fff"></path><path d="M434.66,292.77l-.13-.06-.34-.13a3.4,3.4,0,0,0-2.38.07l-.33.16-.12.06.11-.08a2,2,0,0,1,.33-.17,3.12,3.12,0,0,1,2.4-.08,2.23,2.23,0,0,1,.34.16Z" style="fill:#fff"></path><path d="M405.36,258.31s.12,13.54.81,17.68l17-.81s-1.49-13.31-.92-16.87Z" style="fill:#ebebeb"></path><path d="M419.67,264a98.72,98.72,0,0,1-11.39.69,49.39,49.39,0,0,1,5.68-.51A49.93,49.93,0,0,1,419.67,264Z" style="fill:#fff"></path><path d="M419.68,266.87a98.72,98.72,0,0,1-11.4.69,46.88,46.88,0,0,1,5.69-.51A49.89,49.89,0,0,1,419.68,266.87Z" style="fill:#fff"></path><path d="M416.79,269.69a16.49,16.49,0,0,1-3.24.36,16.87,16.87,0,0,1-3.25,0,15,15,0,0,1,3.23-.37A15.61,15.61,0,0,1,416.79,269.69Z" style="fill:#fff"></path><path d="M404.56,298.15s.11,13.54.8,17.67l17-.8s-1.49-13.31-.91-16.87Z" style="fill:#ebebeb"></path><path d="M418.87,303.84a49.73,49.73,0,0,1-5.69.51,48.44,48.44,0,0,1-5.71.17,49.73,49.73,0,0,1,5.69-.51A51.18,51.18,0,0,1,418.87,303.84Z" style="fill:#fff"></path><path d="M418.87,306.71a48.23,48.23,0,0,1-5.69.5,49.75,49.75,0,0,1-5.7.18,49.39,49.39,0,0,1,5.68-.51A46,46,0,0,1,418.87,306.71Z" style="fill:#fff"></path><path d="M416,309.52a15.75,15.75,0,0,1-3.24.36,16.1,16.1,0,0,1-3.26,0,16.62,16.62,0,0,1,3.24-.36A16.1,16.1,0,0,1,416,309.52Z" style="fill:#fff"></path><polygon points="450.97 261.9 452.65 300.96 501.4 301.55 499.22 262.42 450.97 261.9" style="fill:#ebebeb"></polygon><rect x="450.4" y="261.62" width="48.43" height="36.57" style="fill:#f5f5f5"></rect><path d="M498.83,298.19s0-.23,0-.68,0-1.1,0-1.95c0-1.71,0-4.21,0-7.4,0-6.37,0-15.5-.07-26.54l.13.14-48.42,0h0l.17-.17c0,13.15,0,25.61,0,36.57l-.15-.15,34.94.08,9.93,0H498l-2.61,0-9.9,0-35,.07h-.15v-.15c0-11,0-23.42,0-36.57v-.16h.17l48.42,0H499v.13c0,11.08-.05,20.23-.07,26.63,0,3.17,0,5.66,0,7.37,0,.83,0,1.48,0,1.92S498.83,298.19,498.83,298.19Z" style="fill:#e0e0e0"></path><rect x="456.25" y="269.37" width="19.63" height="24.71" style="fill:#f5f5f5"></rect><path d="M475.88,294.08a.89.89,0,0,1,0-.13v-.35c0-.32,0-.77,0-1.35,0-1.19,0-2.91,0-5.07,0-4.35,0-10.5-.07-17.81l.15.15-19.63,0s.31-.32.16-.17h0v13.12c0,4.15,0,8,0,11.57l-.14-.14,14.21.07,4,0h1.06l.37,0h-.34l-1,0-3.95,0-14.3.08h-.14v-.14c0-3.53,0-7.42,0-11.57,0-2.08,0-4.22,0-6.41v-6.71h0l.17-.17,19.63,0H476v.15c0,7.35-.06,13.54-.08,17.91,0,2.15,0,3.85,0,5,0,.57,0,1,0,1.32V294A.87.87,0,0,0,475.88,294.08Z" style="fill:#e0e0e0"></path><rect x="457" y="263.72" width="37.62" height="3.56" style="fill:#f5f5f5"></rect><path d="M494.62,267.28s0-.09,0-.25,0-.4,0-.69c0-.62,0-1.49,0-2.62l.06.06c-6.34.06-20.81.1-37.62.1h0c.33-.33.09-.09.17-.16h0v1.79c0,.59,0,1.18,0,1.75l-.16-.17,26.67.07,8,.05,2.18,0,.57,0h-.53l-2.14,0-8,.05-26.79.07h-.17v-3.7h0l.17-.17h0c16.81,0,31.28,0,37.62.1h.07v.07c0,1.14,0,2,0,2.66,0,.28,0,.51,0,.68A.89.89,0,0,1,494.62,267.28Z" style="fill:#e0e0e0"></path><rect x="478.28" y="269.37" width="16.34" height="14.89" style="fill:#f5f5f5"></rect><path d="M494.62,284.26s0-.1,0-.29,0-.47,0-.8c0-.73,0-1.75,0-3,0-2.62,0-6.32-.07-10.76l.14.14-16.34,0,.17-.17h0v4c0,1.31,0,2.59,0,3.84,0,2.5,0,4.87,0,7.05l-.15-.14,11.79.07,3.34,0h.89l.32,0a1.32,1.32,0,0,1-.28,0l-.87,0-3.31,0-11.88.08h-.14v-.15c0-2.18,0-4.55,0-7.05v-7.83h0c-.15.15.2-.2.16-.17l16.34,0h.15v.14c0,4.48-.05,8.21-.07,10.85,0,1.27,0,2.28,0,3V284A1.1,1.1,0,0,1,494.62,284.26Z" style="fill:#e0e0e0"></path><rect x="478.28" y="286.6" width="16.34" height="7.48" style="fill:#f5f5f5"></rect><path d="M494.62,294.08s0-.2,0-.55,0-.87,0-1.5c0-1.32,0-3.17-.07-5.43l.12.12-16.34,0c-.15.15.2-.2.17-.16h0v3.84c0,1.25,0,2.47,0,3.63l-.16-.16L490,294l3.4.05.92,0a1.25,1.25,0,0,1,.33,0l-.29,0-.89,0-3.37,0-11.79.08h-.16v-7.63h0s.31-.32.16-.17l16.34,0h.12v.13c0,2.29-.05,4.17-.06,5.51q0,.92,0,1.47A2.9,2.9,0,0,1,494.62,294.08Z" style="fill:#e0e0e0"></path><path d="M475.39,269.41c-6.07,8.4-13.07,16.27-19.14,24.67" style="fill:#fff"></path><path d="M456.25,294.08s0-.1.16-.28l.51-.75c.45-.65,1.12-1.58,2-2.71,1.68-2.27,4.1-5.34,6.8-8.7s5.14-6.4,6.88-8.63l2.05-2.65.56-.71a1.76,1.76,0,0,1,.21-.24s0,.1-.16.28l-.51.75c-.45.65-1.12,1.58-2,2.71-1.68,2.27-4.1,5.34-6.8,8.7s-5.14,6.4-6.88,8.63L457,293.13l-.56.71A1.76,1.76,0,0,1,456.25,294.08Z" style="fill:#e0e0e0"></path><line x1="456.25" y1="269.37" x2="475.88" y2="294.08" style="fill:#fff"></line><path d="M475.88,294.08c-.07.05-4.53-5.43-9.95-12.25s-9.76-12.4-9.68-12.46,4.52,5.43,9.94,12.25S476,294,475.88,294.08Z" style="fill:#e0e0e0"></path><circle cx="449.58" cy="269.42" r="3.07" style="fill:#e0e0e0"></circle><path d="M502.88,262a3.07,3.07,0,1,1-3.07-3.07A3.07,3.07,0,0,1,502.88,262Z" style="fill:#e0e0e0"></path><rect x="157.91" y="292.64" width="31.3" height="62.05" style="fill:#f5f5f5"></rect><rect x="190.41" y="292.64" width="33.82" height="62.05" style="fill:#f5f5f5"></rect><polygon points="228.57 291.56 264.19 291.56 264.19 236.52 265.39 236.52 265.39 291.56 294.38 291.56 294.38 235.3 228.57 235.3 228.57 291.56" style="fill:#f5f5f5"></polygon><rect x="265.39" y="292.64" width="28.99" height="62.05" style="fill:#f5f5f5"></rect><polygon points="189.21 291.56 189.21 236.52 190.41 236.52 190.41 291.56 224.24 291.56 224.24 235.3 157.91 235.3 157.91 291.56 189.21 291.56" style="fill:#f5f5f5"></polygon><rect x="228.57" y="292.64" width="35.62" height="62.05" style="fill:#f5f5f5"></rect><rect x="299.39" y="292.64" width="31.3" height="62.05" style="fill:#f5f5f5"></rect><rect x="331.89" y="292.64" width="33.82" height="62.05" style="fill:#f5f5f5"></rect><polygon points="330.69 291.56 330.69 236.52 331.89 236.52 331.89 291.56 365.71 291.56 365.71 235.3 299.39 235.3 299.39 291.56 330.69 291.56" style="fill:#f5f5f5"></polygon><rect x="588.49" y="103.68" width="5.07" height="25.24" transform="translate(-0.61 3.16) rotate(-0.31)" style="fill:#e0e0e0"></rect><rect x="544.52" y="103.77" width="13.13" height="13.93" transform="matrix(1, -0.01, 0.01, 1, -0.58, 2.95)" style="fill:#ebebeb"></rect><rect x="557.59" y="103.7" width="13.13" height="13.93" transform="translate(-0.58 3.02) rotate(-0.31)" style="fill:#f5f5f5"></rect><path d="M544.5,107.65q13.1.1,26.21-.12c.18,0,.17-.28,0-.28-8.72,0-17.47,0-26.2.16a.12.12,0,0,0,0,.24Z" style="fill:#e0e0e0"></path><rect x="536.32" y="117.5" width="23.86" height="11.35" transform="translate(-0.65 2.94) rotate(-0.31)" style="fill:#ebebeb"></rect><rect x="560.07" y="117.37" width="23.86" height="11.35" transform="translate(-0.65 3.07) rotate(-0.31)" style="fill:#f5f5f5"></rect><path d="M536.31,120.72c15.85.18,31.76,0,47.61-.24a.14.14,0,0,0,0-.28c-15.86-.08-31.76-.07-47.61.28a.12.12,0,0,0,0,.24Z" style="fill:#e0e0e0"></path><rect x="527.38" y="128.91" width="92.45" height="4.07" style="fill:#e0e0e0"></rect><rect x="542.52" y="130.87" width="3.75" height="13.88" style="fill:#e0e0e0"></rect><rect x="598.55" y="130.87" width="3.75" height="13.88" style="fill:#e0e0e0"></rect><rect x="593.46" y="94.27" width="5.07" height="34.71" transform="translate(-0.59 3.19) rotate(-0.31)" style="fill:#ebebeb"></rect><rect x="598.56" y="100.74" width="7.88" height="28.13" transform="translate(-0.61 3.24) rotate(-0.31)" style="fill:#f5f5f5"></rect><path d="M606.31,106.13a55.51,55.51,0,0,1-7.88,0,59.77,59.77,0,0,1,7.88,0Z" style="fill:#e0e0e0"></path><path d="M606.31,105a55.51,55.51,0,0,1-7.88,0,59.77,59.77,0,0,1,7.88,0Z" style="fill:#e0e0e0"></path><path d="M606.31,124.61a55.51,55.51,0,0,1-7.88,0,59.77,59.77,0,0,1,7.88,0Z" style="fill:#e0e0e0"></path><path d="M606.31,123.43a55.51,55.51,0,0,1-7.88,0,55.51,55.51,0,0,1,7.88,0Z" style="fill:#e0e0e0"></path><path d="M602.5,120.85c-.08,0-.14-2.84-.14-6.34s.06-6.33.14-6.33.13,2.83.13,6.33S602.57,120.85,602.5,120.85Z" style="fill:#e0e0e0"></path><rect x="606.4" y="107.62" width="8.58" height="21.23" style="fill:#ebebeb"></rect><path d="M597.29,100.18a1.46,1.46,0,1,1-1.46-1.46A1.46,1.46,0,0,1,597.29,100.18Z" style="fill:#e0e0e0"></path><rect x="595.38" y="104.19" width="0.9" height="20.65" style="fill:#e0e0e0"></rect><rect x="161.31" y="114.05" width="65.1" height="58.24" style="fill:#fafafa"></rect><path d="M226.41,172.29s0-.37,0-1.08,0-1.76,0-3.12c0-2.73,0-6.73,0-11.82,0-10.18,0-24.72-.08-42.22l.15.15-65.1,0h0l.17-.17c0,21.19,0,41.13,0,58.24l-.15-.15,47.09.08,13.28,0,3.51,0h0l-3.49,0-13.25,0-47.18.08h-.15v-.16c0-17.11,0-37,0-58.24v-.17h.18l65.1,0h.15v.15c0,17.54-.06,32.11-.08,42.31,0,5.08,0,9.07,0,11.79,0,1.35,0,2.39,0,3.09S226.41,172.29,226.41,172.29Z" style="fill:#e0e0e0"></path><path d="M186.27,124.4c0,.09-3.43.17-7.65.17s-7.66-.08-7.66-.17,3.43-.18,7.66-.18S186.27,124.3,186.27,124.4Z" style="fill:#e0e0e0"></path><path d="M213.86,128.77c0,.1-9.42.18-21,.18s-21-.08-21-.18,9.41-.17,21-.17S213.86,128.68,213.86,128.77Z" style="fill:#e0e0e0"></path><rect x="171.08" y="136.18" width="2.74" height="2.74" style="fill:#e0e0e0"></rect><rect x="177.83" y="136.18" width="2.74" height="2.74" style="fill:#e0e0e0"></rect><rect x="184.7" y="136.05" width="2.74" height="2.74" style="fill:#e0e0e0"></rect><rect x="191.33" y="136.18" width="2.74" height="2.74" style="fill:#e0e0e0"></rect><rect x="198.08" y="136.18" width="2.74" height="2.74" style="fill:#e0e0e0"></rect><rect x="204.83" y="136.18" width="2.74" height="2.74" style="fill:#e0e0e0"></rect><rect x="211.59" y="136.18" width="2.74" height="2.74" style="fill:#ebebeb"></rect><rect x="171.08" y="142.01" width="2.74" height="2.74" style="fill:#ebebeb"></rect><rect x="177.83" y="142.01" width="2.74" height="2.74" style="fill:#e0e0e0"></rect><rect x="184.58" y="142.01" width="2.74" height="2.74" style="fill:#ebebeb"></rect><rect x="191.33" y="142.01" width="2.74" height="2.74" style="fill:#e0e0e0"></rect><rect x="198.08" y="142.01" width="2.74" height="2.74" style="fill:#e0e0e0"></rect><rect x="204.96" y="141.89" width="2.74" height="2.74" style="fill:#e0e0e0"></rect><rect x="211.59" y="142.01" width="2.74" height="2.74" style="fill:#e0e0e0"></rect><rect x="171.08" y="147.84" width="2.74" height="2.74" style="fill:#e0e0e0"></rect><rect x="177.95" y="147.72" width="2.74" height="2.74" style="fill:#e0e0e0"></rect><rect x="184.58" y="147.84" width="2.74" height="2.74" style="fill:#e0e0e0"></rect><rect x="191.33" y="147.84" width="2.74" height="2.74" style="fill:#ebebeb"></rect><rect x="198.08" y="147.84" width="2.74" height="2.74" style="fill:#e0e0e0"></rect><rect x="204.83" y="147.84" width="2.74" height="2.74" style="fill:#e0e0e0"></rect><rect x="211.59" y="147.84" width="2.74" height="2.74" style="fill:#e0e0e0"></rect><rect x="171.08" y="153.67" width="2.74" height="2.74" style="fill:#e0e0e0"></rect><rect x="177.83" y="153.67" width="2.74" height="2.74" style="fill:#e0e0e0"></rect><rect x="184.58" y="153.67" width="2.74" height="2.74" style="fill:#e0e0e0"></rect><rect x="191.46" y="153.55" width="2.74" height="2.74" style="fill:#e0e0e0"></rect><rect x="198.08" y="153.67" width="2.74" height="2.74" style="fill:#e0e0e0"></rect><rect x="204.83" y="153.67" width="2.74" height="2.74" style="fill:#ebebeb"></rect><rect x="211.59" y="153.67" width="2.74" height="2.74" style="fill:#e0e0e0"></rect><rect x="171.08" y="159.5" width="2.74" height="2.74" style="fill:#e0e0e0"></rect><rect x="177.83" y="159.5" width="2.74" height="2.74" style="fill:#ebebeb"></rect><rect x="184.58" y="159.5" width="2.74" height="2.74" style="fill:#e0e0e0"></rect><rect x="191.33" y="159.5" width="2.74" height="2.74" style="fill:#e0e0e0"></rect><rect x="198.08" y="159.5" width="2.74" height="2.74" style="fill:#e0e0e0"></rect><rect x="204.96" y="159.38" width="2.74" height="2.74" style="fill:#e0e0e0"></rect><rect x="211.59" y="159.5" width="2.74" height="2.74" style="fill:#e0e0e0"></rect><rect x="331" y="141.99" width="32.55" height="8.61" style="fill:#f5f5f5"></rect><path d="M349.79,159.68a.46.46,0,0,1,0-.16v-.44c0-.41,0-1,0-1.7,0-1.48,0-3.62-.05-6.32l.1.11-32.56.06.17-.17h0v8.6l-.17-.17,23.2.08,6.85,0,1.85,0h0l-1.82,0-6.81,0-23.31.08h-.16v-8.76h0l.16-.16,32.56.06h.1v.1c0,2.72-.05,4.88-.06,6.38,0,.72,0,1.28,0,1.68v.42C349.79,159.63,349.79,159.68,349.79,159.68Z" style="fill:#e0e0e0"></path><rect x="163.35" y="192.54" width="32.55" height="8.61" style="fill:#ebebeb"></rect><path d="M377.54,116.75a1.33,1.33,0,0,1,0-.17c0-.12,0-.27,0-.46,0-.43,0-1,0-1.78,0-1.56,0-3.81-.06-6.64l.11.11-34.19.06.17-.17h0v9l-.17-.18,24.36.08,7.2,0,1.94,0h.51c.12,0,.18,0,.18,0h-.65l-1.9,0-7.16,0-24.48.08h-.17v-.17c0-1.46,0-2.94,0-4.45v-4.57h0c.35-.35.1-.1.18-.17l34.19.06h.11v.11c0,2.86,0,5.12-.06,6.7,0,.75,0,1.34,0,1.76,0,.18,0,.33,0,.44A.85.85,0,0,1,377.54,116.75Z" style="fill:#e0e0e0"></path><path d="M382.18,107.7s0-.06,0-.17,0-.29,0-.48c0-.45,0-1,0-1.82,0-1.58,0-3.82-.07-6.58l.13.13-20.55,0,.18-.18h0v1.17c0,.39,0,.78,0,1.17v6.69l-.17-.17,14.7.08,4.28,0,1.15,0,.42,0-.38,0-1.12,0-4.24.05-14.81.08h-.16v-.17c0-1.41,0-2.87,0-4.39V98.67h0l.17-.17,20.55,0h.12v.12c0,2.79-.05,5.06-.07,6.66,0,.75,0,1.35,0,1.79S382.18,107.71,382.18,107.7Z" style="fill:#e0e0e0"></path><path d="M377.54,210.44a1.08,1.08,0,0,1,0-.16c0-.12,0-.28,0-.47,0-.42,0-1,0-1.78,0-1.56,0-3.8-.06-6.63l.11.1-34.19.07c.08-.08-.18.17.17-.17h0v9l-.17-.17,24.36.08,7.2.05,1.94,0h0l-1.9,0-7.16,0-24.48.08h-.17v-.17c0-1.45,0-2.94,0-4.45v-4.58h0l.18-.18,34.19.07h.11v.11c0,2.85,0,5.12-.06,6.7,0,.75,0,1.33,0,1.75,0,.19,0,.33,0,.45A.55.55,0,0,1,377.54,210.44Z" style="fill:#e0e0e0"></path><path d="M382.18,201.4a.83.83,0,0,1,0-.18c0-.13,0-.28,0-.48,0-.44,0-1.05,0-1.81,0-1.58,0-3.82-.07-6.58l.13.13-20.55.05c-.15.15.21-.22.18-.18h0v1.16c0,.4,0,.79,0,1.18v6.69l-.17-.17,14.7.08,4.28.05,1.15,0a2.08,2.08,0,0,1,.42,0l-.38,0-1.12,0-4.24,0-14.81.08h-.16v-.16c0-1.41,0-2.88,0-4.39v-4.64h0l.17-.17,20.55,0h.12v.12c0,2.79-.05,5.05-.07,6.66,0,.75,0,1.34,0,1.78S382.18,201.41,382.18,201.4Z" style="fill:#e0e0e0"></path><rect x="396.56" y="104.14" width="53.61" height="53.61" style="fill:#ebebeb"></rect><rect x="398.14" y="105.72" width="50.45" height="50.45" style="fill:#fff"></rect><rect x="416.12" y="123.7" width="14.49" height="14.49" style="fill:#e0e0e0"></rect><rect x="450.17" y="104.16" width="2.26" height="53.59" style="fill:#e0e0e0"></rect><polyline points="625.93 295.02 601.27 264.2 600.99 264.61 599.12 267.34 625.85 301.1" style="fill:#e0e0e0"></polyline><polygon points="601.82 258.07 603.59 255.71 601.66 254.05 599.79 256.42 601.82 258.07" style="fill:#ebebeb"></polygon><path d="M604.5,259.7l-6.74-5.49-7.21,7.73c-11.81,1.23-16.94,8.32-16.94,8.32l20,17.23c7.62-7.53,4.86-19,4.86-19Z" style="fill:#ebebeb"></path><path d="M598.51,268.45a33.65,33.65,0,0,1-4.1-3.1,33.21,33.21,0,0,1-3.86-3.41,34.94,34.94,0,0,1,4.11,3.1A33.64,33.64,0,0,1,598.51,268.45Z" style="fill:#e0e0e0"></path><path d="M386.29,361.68c-.15,0-.26-61.55-.26-137.46s.11-137.47.26-137.47.26,61.54.26,137.47S386.43,361.68,386.29,361.68Z" style="fill:#263238"></path><path d="M634.64,224.91c0,.15-110.62.26-247,.26s-247.07-.11-247.07-.26,110.6-.26,247.07-.26S634.64,224.77,634.64,224.91Z" style="fill:#263238"></path><path d="M634.08,361.86c0-1.44-.07-88.46-.18-231.37q0-26.79,0-56.06V70.76a14.87,14.87,0,0,0-.22-3.61A7.38,7.38,0,0,0,629,62a8,8,0,0,0-1.76-.4c-.6,0-1.23,0-1.86,0H583.11L449,61.6H151.75a10.76,10.76,0,0,0-4.88.8,9.33,9.33,0,0,0-3.8,3.1A9.46,9.46,0,0,0,141.39,70c-.1,1.59,0,3.27,0,4.89V218.62c0,49.65,0,97.57,0,143.24l-.24-.24,493,.24-493,.24h-.24v-.24c0-45.67,0-93.59,0-143.24q0-37.25,0-75.71V74.84c0-1.65,0-3.25.05-4.94a9.9,9.9,0,0,1,1.78-4.68,9.79,9.79,0,0,1,4-3.28,11.21,11.21,0,0,1,5.09-.84h149l148.25,0,134.16,0h42.28c.63,0,1.25,0,1.9,0a8,8,0,0,1,1.86.43,7.73,7.73,0,0,1,4.9,5.43,15.11,15.11,0,0,1,.23,3.72v3.66q0,29.28,0,56.12C634.15,273.42,634.08,360.42,634.08,361.86Z" style="fill:#263238"></path><path d="M161.22,101.2a4.4,4.4,0,1,1-4.4-4.39A4.4,4.4,0,0,1,161.22,101.2Z" style="fill:#455a64"></path><path d="M187.82,102c0,.12-5.48.22-12.24.22s-12.24-.1-12.24-.22,5.48-.23,12.24-.23S187.82,101.87,187.82,102Z" style="fill:#455a64"></path><path d="M411.25,101.2a4.4,4.4,0,1,1-4.39-4.39A4.4,4.4,0,0,1,411.25,101.2Z" style="fill:#455a64"></path><path d="M437.86,102c0,.12-5.48.22-12.24.22s-12.25-.1-12.25-.22,5.48-.23,12.25-.23S437.86,101.87,437.86,102Z" style="fill:#455a64"></path><path d="M411.33,245.3a4.4,4.4,0,1,1-4.39-4.39A4.4,4.4,0,0,1,411.33,245.3Z" style="fill:#455a64"></path><path d="M437.94,246.09c0,.13-5.48.23-12.24.23s-12.25-.1-12.25-.23,5.48-.22,12.25-.22S437.94,246,437.94,246.09Z" style="fill:#455a64"></path><path d="M161.57,245.3a4.4,4.4,0,1,1-4.4-4.39A4.4,4.4,0,0,1,161.57,245.3Z" style="fill:#455a64"></path><path d="M188.17,246.09c0,.13-5.48.23-12.24.23s-12.24-.1-12.24-.23,5.48-.22,12.24-.22S188.17,246,188.17,246.09Z" style="fill:#455a64"></path><path d="M616.5,110.35h0a9.15,9.15,0,0,1-9.15-9.15h0a9.15,9.15,0,0,1,9.15-9.14h0a9.15,9.15,0,0,1,9.15,9.14h0A9.15,9.15,0,0,1,616.5,110.35Z" style="fill:#14A2B8"></path><path d="M616.18,101.27a1.47,1.47,0,1,0-.88,0,2.56,2.56,0,0,0-2.14,2.51h5.09A2.54,2.54,0,0,0,616.18,101.27Z" style="fill:#fff"></path><path d="M619,101.71a.22.22,0,0,1-.21-.21V99.15a.22.22,0,0,1,.21-.21.21.21,0,0,1,.21.21v2.35A.21.21,0,0,1,619,101.71Z" style="fill:#fff"></path><path d="M620.21,100.54h-2.35a.22.22,0,0,1-.21-.21.21.21,0,0,1,.21-.21h2.35a.21.21,0,0,1,.21.21A.22.22,0,0,1,620.21,100.54Z" style="fill:#fff"></path><polygon points="141.08 339.9 141.08 361.94 166.78 361.94 231.5 361.94 634.08 361.94 634.08 339.9 141.08 339.9" style="fill:#455a64"></polygon><circle cx="404.56" cy="350.49" r="6.85" style="fill:#fff"></circle><rect x="402.1" y="348.94" width="3.42" height="3.42" rx="1.28" style="fill:#14A2B8"></rect><path d="M405.83,351.26V350.1l.86-.93a.19.19,0,0,1,.33.13v2.63a.19.19,0,0,1-.32.14Z" style="fill:#14A2B8"></path><path d="M371.36,350a6.41,6.41,0,1,1-6.41-6.41A6.41,6.41,0,0,1,371.36,350Z" style="fill:#fff"></path><path d="M362.91,350.65a.63.63,0,1,1,.63-.63A.63.63,0,0,1,362.91,350.65Z" style="fill:#14A2B8"></path><path d="M364.88,350.65a.63.63,0,1,1,.63-.63A.63.63,0,0,1,364.88,350.65Z" style="fill:#14A2B8"></path><path d="M367,350.65a.63.63,0,0,1,0-1.26.63.63,0,1,1,0,1.26Z" style="fill:#14A2B8"></path><circle cx="385.36" cy="350.92" r="9.74" style="fill:#fff"></circle><path d="M381.54,352.61l1.74-.41a.48.48,0,0,0,.36-.47v-.35s-.07-.61.5-.65,3,0,3,0,.69,0,.67.53v.52a.41.41,0,0,0,.29.39l1.89.57a.4.4,0,0,0,.49-.24l.24-.58a.75.75,0,0,0,.06-.33,1.61,1.61,0,0,0-.32-.87c-.38-.48-2.14-1.61-5.5-1.45-3.19.15-3.89,1.5-4.08,1.82a1.4,1.4,0,0,0-.05.9l.13.34A.49.49,0,0,0,381.54,352.61Z" style="fill:#14A2B8"></path></g><g id="freepik--character-4--inject-46"><path d="M549.8,276.76c-2.18-2.22-6.06-2.81-8.47-.84l-10.46,13.93a12.53,12.53,0,0,0,3.11,6.2,8,8,0,0,0,6.32,2.51,12.62,12.62,0,0,0,8.1-4.44c2-2.41,3.78-4.72,4.44-9.09A9.89,9.89,0,0,0,549.8,276.76Z" style="fill:#263238"></path><path d="M548.91,290.34c-.1,0,0-.76-.2-1.91a7.86,7.86,0,0,0-1.91-4,8,8,0,0,0-3.83-2.28c-1.13-.29-1.88-.27-1.89-.37a3.42,3.42,0,0,1,2-.06,7.35,7.35,0,0,1,4.21,2.29,7.46,7.46,0,0,1,1.89,4.4A3.39,3.39,0,0,1,548.91,290.34Z" style="fill:#455a64"></path><path d="M550.51,279.34c-.06.19-2-.5-4.41-.46s-4.33.8-4.4.61a7.3,7.3,0,0,1,4.39-1.24A7.4,7.4,0,0,1,550.51,279.34Z" style="fill:#455a64"></path><path d="M542.74,263.93c-1.37-6.53-7.92-13.26-14.18-15.56s-11.95-2.23-18.56-1.31a21.41,21.41,0,0,0-16.48,12.74c-2.86,6.84-2.18,13.36-1.61,20.76.43,5.62,2,12.31,4.1,14.35s1.88,1,4.54,2.15c5.3,2.34,11.12,1.63,16.91,1.42s12.62-1.4,16.71-5.49c3.45-3.47,4.5-5.91,6.2-10.41C542.28,277.55,543.85,269.19,542.74,263.93Z" style="fill:#263238"></path><path d="M532.8,271.2a18.79,18.79,0,0,0-19.19-19.06,19.34,19.34,0,0,0-18.89,18.43c-.43,8.77-.66,17.6-.29,20.77,1.11,9.53,7.19,12.65,9.61,13.53a12.72,12.72,0,0,0,2.62.36h0s.07,0,.06.06l-1,11.19c-.24,7.28,4.51,13.26,11.92,13.54s12.58-5.82,13-13.12Z" style="fill:#ffd6bd"></path><path d="M496.34,275.32c.15.17,1.4.09,3,.64s2.6,1.4,2.8,1.35,0-.28-.47-.66a6.92,6.92,0,0,0-2.2-1.22,6.14,6.14,0,0,0-2.41-.37C496.48,275.1,496.26,275.24,496.34,275.32Z" style="fill:#263238"></path><path d="M514,278c.24,0,1.24-.84,2.92-1.48s3.11-.71,3.25-.87-.21-.18-.83-.16a8.67,8.67,0,0,0-2.65.58,7.79,7.79,0,0,0-2.28,1.3C514,277.76,513.87,278,514,278Z" style="fill:#263238"></path><path d="M507,285.8a10.91,10.91,0,0,0-2.69-.59c-.43-.06-.83-.16-.89-.45a2.25,2.25,0,0,1,.34-1.23c.45-1,.91-2,1.4-3.14,1.95-4.47,3.38-8.16,3.2-8.23s-1.91,3.49-3.86,8l-1.35,3.17a2.39,2.39,0,0,0-.29,1.63,1,1,0,0,0,.67.64,3.06,3.06,0,0,0,.72.13A11.58,11.58,0,0,0,507,285.8Z" style="fill:#263238"></path><path d="M506.73,305.23s6.42.77,14.7-3.69c0,0-2.91,8.28-15,6.7Z" style="fill:#ffb394"></path><path d="M507.57,289.78a3.06,3.06,0,0,1,2.75-1,2.75,2.75,0,0,1,1.85,1.08,1.68,1.68,0,0,1,.05,2,2.07,2.07,0,0,1-2.21.46,6.4,6.4,0,0,1-2.08-1.34,1.68,1.68,0,0,1-.46-.5.54.54,0,0,1,0-.61" style="fill:#14A2B8"></path><path d="M511.9,287.12c-.27,0-.35,1.76-1.95,3s-3.53.93-3.56,1.18.42.37,1.23.42a4.55,4.55,0,0,0,3-.89,3.85,3.85,0,0,0,1.53-2.48C512.21,287.57,512,287.12,511.9,287.12Z" style="fill:#263238"></path><path d="M514,268.79c.17.43,1.59.1,3.29.2s3.11.5,3.3.08c.09-.2-.18-.6-.77-1a5,5,0,0,0-2.5-.76,4.93,4.93,0,0,0-2.52.55C514.16,268.21,513.88,268.59,514,268.79Z" style="fill:#263238"></path><path d="M496.36,268c.32.44,1.65.05,3.24.09s2.9.39,3.23,0c.14-.21-.05-.64-.62-1.07a4.52,4.52,0,0,0-2.59-.8A4.45,4.45,0,0,0,497,267C496.43,267.38,496.23,267.82,496.36,268Z" style="fill:#263238"></path><path d="M509.37,248.34c-2.27,4.82.35,9.67,5.06,12.18,2,1.08,4.62,1.67,5.64,3.74.79,1.6.34,3.66,1.35,5.13s2.82,1.77,4.19,2.76c1.86,1.37,2.61,3.8,2.81,6.1s0,4.64.43,6.91,1.8,4.55,4,5.23c1.39-6.53,2.66-13.17,2.3-19.84s2.28-14.18-2.36-19-17.19-5.6-23.43-3.23" style="fill:#263238"></path><path d="M542.86,274.15a4.56,4.56,0,0,0-.36-1.62,5,5,0,0,0-3.49-2.6,22.2,22.2,0,0,0-3.14-.47,12.81,12.81,0,0,1-3.67-.81,6.15,6.15,0,0,1-3.05-2.87c-.72-1.26-1.21-2.65-2-3.86a5.82,5.82,0,0,0-3.27-2.43,22.18,22.18,0,0,0-4-.71,18.08,18.08,0,0,1-3.67-.73,11.75,11.75,0,0,1-2.92-1.48,11.43,11.43,0,0,1-3.24-3.39,7.91,7.91,0,0,1-.59-1.13c-.12-.27-.16-.41-.14-.42s.31.52.93,1.41a12.35,12.35,0,0,0,3.29,3.16,11.5,11.5,0,0,0,2.84,1.35,17.86,17.86,0,0,0,3.57.65,22.27,22.27,0,0,1,4.07.7,6.45,6.45,0,0,1,3.61,2.67c.85,1.31,1.34,2.71,2,3.91a5.65,5.65,0,0,0,2.74,2.64c2.32,1,4.77.77,6.69,1.39a5.21,5.21,0,0,1,3.61,2.92,3,3,0,0,1,.22,1.28A1.09,1.09,0,0,1,542.86,274.15Z" style="fill:#455a64"></path><path d="M542.92,271.34a3.2,3.2,0,0,1,0,1.09,26.41,26.41,0,0,1-.44,2.94,59,59,0,0,1-2.69,9.4,23.75,23.75,0,0,1-5.21,8.29,16.64,16.64,0,0,1-2.27,1.92,3.18,3.18,0,0,1-.95.54c-.07-.09,1.23-.94,2.9-2.77a25.93,25.93,0,0,0,4.94-8.21,77.9,77.9,0,0,0,2.84-9.27C542.62,272.86,542.83,271.33,542.92,271.34Z" style="fill:#455a64"></path><path d="M569.48,339.9c-4.05-13.24-1.9-7.43-3.9-12.94-2.68-7.4-15.5-11.22-16.24-11.22l-1.6,6.55,2.35,17.57" style="fill:#14A2B8"></path><path d="M531.8,309.74c-5.16,10.41-21.14,10.41-26.28,2.7l-18.59,10.81a17.22,17.22,0,0,0-7.2,7.43,31.63,31.63,0,0,0-3.07,9.22l78.06,0-3.3-23.45Z" style="fill:#14A2B8"></path></g><g id="freepik--character-3--inject-46"><path d="M546.55,163.6c0,.17-5.39.54-12.06.83s-12.09.39-12.1.22,5.4-.53,12.07-.83S546.54,163.43,546.55,163.6Z" style="fill:#fff"></path><path d="M487.58,120.59c1.06-5.8,2.45-11.76,6-16.45s9.9-7.77,15.49-5.88l6.88,4a210.31,210.31,0,0,1-9.71,47.15,10.25,10.25,0,0,1-2.15,4.17c-2.23,2.26-5.89,14.7-9.05,14.33-3.81-.44-9.59,4.92-11.22,1.45-.79-1.68.63-22.49.75-24.33A210.79,210.79,0,0,1,487.58,120.59Z" style="fill:#263238"></path><path d="M526.33,110.28l-21.22-7c-6.87-1.24-12.09,7-13,13.86-1.05,7.69-2,17.11-1.53,22.94,1,11.71,9.76,13.83,9.76,13.83a28.55,28.55,0,0,0-.69,8.82c.55,8,5.7,10,9.91,10.33h0c6.65.71,13.59-1.4,14.35-8l5.8-50.3A4.08,4.08,0,0,0,526.33,110.28Z" style="fill:#ffbe9d"></path><path d="M496.16,126.18a1.5,1.5,0,0,0,1.32,1.61,1.43,1.43,0,0,0,1.63-1.23,1.5,1.5,0,0,0-1.32-1.61A1.43,1.43,0,0,0,496.16,126.18Z" style="fill:#263238"></path><path d="M494.36,123.14c.17.21,1.36-.54,2.95-.42s2.72,1,2.9.82-.07-.44-.55-.85a4.1,4.1,0,0,0-2.3-.9,3.9,3.9,0,0,0-2.37.58C494.47,122.71,494.28,123.05,494.36,123.14Z" style="fill:#263238"></path><path d="M511.05,127.61a1.48,1.48,0,0,0,1.32,1.6A1.42,1.42,0,0,0,514,128a1.49,1.49,0,0,0-1.32-1.61A1.43,1.43,0,0,0,511.05,127.61Z" style="fill:#263238"></path><path d="M510.33,124.76c.18.2,1.36-.55,3-.43s2.71,1,2.9.83-.07-.45-.56-.86a4,4,0,0,0-2.3-.89A3.91,3.91,0,0,0,511,124C510.44,124.33,510.25,124.66,510.33,124.76Z" style="fill:#263238"></path><path d="M503.45,135.09a10.49,10.49,0,0,0-2.56-.66c-.41-.07-.79-.18-.84-.46a2.12,2.12,0,0,1,.36-1.19l1.44-3c2-4.31,3.48-7.86,3.3-7.93s-1.93,3.34-3.93,7.64c-.49,1.06-1,2.08-1.39,3a2.4,2.4,0,0,0-.33,1.59,1.07,1.07,0,0,0,.63.65,2.91,2.91,0,0,0,.69.14A10.33,10.33,0,0,0,503.45,135.09Z" style="fill:#263238"></path><path d="M500.3,153.87a31.35,31.35,0,0,0,16.48-3s-5.17,7.81-16.69,5.88Z" style="fill:#eb996e"></path><path d="M509.56,119.84c.13.44,1.74.35,3.6.71s3.34,1,3.61.62c.13-.18-.11-.61-.69-1.07a6,6,0,0,0-2.63-1.15,6.12,6.12,0,0,0-2.86.13C509.88,119.31,509.51,119.62,509.56,119.84Z" style="fill:#263238"></path><path d="M494.27,118.38c.32.38,1.71.11,3.36.21s3,.46,3.36.11c.15-.18,0-.56-.62-.94a5.53,5.53,0,0,0-2.69-.8,5.44,5.44,0,0,0-2.73.54C494.35,117.83,494.13,118.19,494.27,118.38Z" style="fill:#263238"></path><path d="M503,106.09a18.42,18.42,0,0,0,3.3,3.92l5.84,5.75a45.63,45.63,0,0,0,4.31,3.92,47.42,47.42,0,0,0,4.33,2.84c1.54.93,2.33,3.33,3.87,4.26.35.21,1.48.08,1.85.35-.08,2.59-.12,10.85-.14,14.13-.05,5.19-1.9,19-1.9,19h4.41c3.46-.53,8.33,7,10.18,4,2-3.28-.44-17.34-.54-20-.32-7.84-1.86-15.82-2.3-22.56a27.57,27.57,0,0,0-1.32-8c-1.36-3.61-4.15-6.5-7.16-8.92A29.39,29.39,0,0,0,516,98.71a16.51,16.51,0,0,0-12.78,2,2.78,2.78,0,0,0-1.3,1.53C501.36,103.85,502.13,104.6,503,106.09Zm23.59,21.13c.17.32,0,1.12,0,0Z" style="fill:#263238"></path><path d="M525.79,130.34a3.38,3.38,0,0,1,5.14-2.52c1.13.76,1.93,2.19,1.64,4.8-.78,6.95-7.61,4.73-7.6,4.53S525.44,133.22,525.79,130.34Z" style="fill:#ffbe9d"></path><path d="M527.39,134.76s.12.09.31.21a1.2,1.2,0,0,0,.9.12,3,3,0,0,0,1.69-2.53,4,4,0,0,0-.14-1.78,1.43,1.43,0,0,0-.81-1,.62.62,0,0,0-.75.25c-.12.19-.09.33-.13.34s-.13-.14,0-.42a.73.73,0,0,1,.32-.4.89.89,0,0,1,.69-.1,1.68,1.68,0,0,1,1.14,1.22,4,4,0,0,1,.21,2c-.21,1.4-1.07,2.63-2.11,2.81a1.33,1.33,0,0,1-1.09-.31C527.39,134.93,527.37,134.77,527.39,134.76Z" style="fill:#eb996e"></path><path d="M529.54,138a1.37,1.37,0,1,1-1.27-1.47A1.38,1.38,0,0,1,529.54,138Z" style="fill:#e0e0e0"></path><path d="M507.6,138.32a3.2,3.2,0,0,1-1.94,4.86,1.89,1.89,0,0,1-1.2-.07,2.67,2.67,0,0,1-1.16-1.74l-.54-1.71a.76.76,0,0,1,0-.59c.1-.19.34-.24.56-.28l4.19-.7" style="fill:#eb996e"></path><path d="M504.56,142.92a3.77,3.77,0,0,0,1.89-.11,3,3,0,0,0,1.74-1.21,2.27,2.27,0,0,0,.34-1.26,3.72,3.72,0,0,0-.24-1.34,3.5,3.5,0,0,0-.69-1.13l-.11-.1-.14,0c-2.79.77-5,1.11-5,1.23a16.8,16.8,0,0,0,5.08-.76l-.24-.07a3.19,3.19,0,0,1,.59,1,2.72,2.72,0,0,1,0,2.19,2.76,2.76,0,0,1-1.45,1.12C505.29,142.82,504.55,142.82,504.56,142.92Z" style="fill:#263238"></path><path d="M519.57,110.32A40.79,40.79,0,0,1,530.5,122l-3.76,6.37c-6.39-.6-7.15-1.25-11.65-5.82s-13.44-13.68-13.94-20.08C507.19,104.15,514.46,106.67,519.57,110.32Z" style="fill:#263238"></path><path d="M529.67,160a4.3,4.3,0,0,1,.31-.67c.22-.42.54-1.06.93-1.88a48.55,48.55,0,0,0,2.75-7.18,46.85,46.85,0,0,0,1.83-11.22,30.37,30.37,0,0,0-.35-6.68,11.66,11.66,0,0,0-3.08-6.28,22.32,22.32,0,0,0-6-3.86,45.26,45.26,0,0,1-5.91-3.36,43.55,43.55,0,0,1-8.52-7.69,48.06,48.06,0,0,1-4.55-6.27c-.47-.77-.82-1.39-1-1.82a4.46,4.46,0,0,1-.33-.66,3.45,3.45,0,0,1,.42.61c.25.4.63,1,1.13,1.76a55.71,55.71,0,0,0,4.67,6.12,44.36,44.36,0,0,0,8.51,7.54,45.89,45.89,0,0,0,5.86,3.29,22.86,22.86,0,0,1,6.16,4,12.21,12.21,0,0,1,3.22,6.57,30.94,30.94,0,0,1,.33,6.8,46,46,0,0,1-2,11.31,43.57,43.57,0,0,1-2.93,7.17c-.42.81-.77,1.43-1,1.84A3.18,3.18,0,0,1,529.67,160Z" style="fill:#455a64"></path><path d="M534.62,123.67a11.59,11.59,0,0,0-2.21-4.85A16.41,16.41,0,0,0,528,115a59,59,0,0,0-6.42-3.24,43.69,43.69,0,0,1-11.06-7.14,38,38,0,0,1-2.84-2.81,6.36,6.36,0,0,1-.92-1.14,8.48,8.48,0,0,1,1.07,1c.68.65,1.66,1.59,2.95,2.66a47.38,47.38,0,0,0,11,6.94,54.77,54.77,0,0,1,6.46,3.31,15.9,15.9,0,0,1,4.4,4,10,10,0,0,1,1.74,3.62,6,6,0,0,1,.17,1.08A1,1,0,0,1,534.62,123.67Z" style="fill:#455a64"></path><path d="M485.62,167.28a3.91,3.91,0,0,1,0-.75c0-.57,0-1.28.07-2.15.08-1.87.21-4.57.39-7.91.38-6.67,1-15.9,2.21-26a85.83,85.83,0,0,1,2.63-14.13,29,29,0,0,1,5-10.08,14.88,14.88,0,0,1,5.34-4.35,8.27,8.27,0,0,1,1.65-.58,2.23,2.23,0,0,1,.6-.09c0,.07-.81.23-2.18.92a15.66,15.66,0,0,0-5.14,4.44,29.11,29.11,0,0,0-4.82,10,87.52,87.52,0,0,0-2.55,14c-1.25,10.1-1.89,19.31-2.37,26-.23,3.26-.43,5.93-.57,7.89-.07.87-.13,1.58-.17,2.15A3.75,3.75,0,0,1,485.62,167.28Z" style="fill:#455a64"></path><path d="M468.4,188.52s1.25-10,6.09-15.05,25.08-11.3,25.08-11.3.83,7.15,5.68,8.88c5.14,1.83,11,1.14,14.71-3.22a23.65,23.65,0,0,0,4.71-9.66s24.17,2.23,28.11,8.86,9,32.3,9,32.3l-22.6,4.8L540.67,225l-55.54.33-1.72-18.43-16.34,2.34Z" style="fill:#455a64"></path><path d="M534.73,205.59a4.27,4.27,0,0,1-.08-1c0-.64,0-1.57,0-2.71,0-2.3,0-5.47.1-9s.17-6.67.27-9c0-1.15.09-2.07.14-2.72a3.34,3.34,0,0,1,.12-1,4.13,4.13,0,0,1,.08,1c0,.65,0,1.57,0,2.72,0,2.29,0,5.46-.1,9s-.17,6.67-.27,9c0,1.15-.09,2.08-.14,2.72A3.34,3.34,0,0,1,534.73,205.59Z" style="fill:#263238"></path><path d="M477.85,187.38c.13,0,1.55,4.44,3.15,10s2.78,10.12,2.65,10.16-1.55-4.45-3.15-10A102.4,102.4,0,0,1,477.85,187.38Z" style="fill:#263238"></path><path d="M550.25,165.43c0,.1-1.07.3-2.72.92a19.71,19.71,0,0,0-10.16,8.85c-.85,1.54-1.2,2.6-1.29,2.56s0-.28.17-.76a12.44,12.44,0,0,1,.79-2,17.66,17.66,0,0,1,4.29-5.55,17.85,17.85,0,0,1,6.08-3.47,11.81,11.81,0,0,1,2.06-.51A2.43,2.43,0,0,1,550.25,165.43Z" style="fill:#263238"></path><path d="M474.13,175.49a10.76,10.76,0,0,1,1.06,3.12,10.63,10.63,0,0,1,.55,3.24,20.48,20.48,0,0,1-1.61-6.36Z" style="fill:#263238"></path><path d="M535.26,180.25c0,.16-12.82,1.89-28.67,3.86s-28.72,3.43-28.74,3.27,12.81-1.9,28.67-3.87S535.24,180.08,535.26,180.25Z" style="fill:#fff"></path><path d="M556.85,179.5c0,.16-4.68,1.47-10.55,2.92s-10.65,2.5-10.69,2.34,4.68-1.47,10.55-2.93S556.81,179.33,556.85,179.5Z" style="fill:#fff"></path><path d="M560.51,193.48c0,.16-5.49,1.48-12.35,2.94s-12.44,2.52-12.47,2.36,5.49-1.48,12.35-2.95S560.47,193.31,560.51,193.48Z" style="fill:#fff"></path><path d="M499.41,167c0,.16-5.28,1.66-11.88,3.35s-12,2.93-12,2.77,5.27-1.66,11.87-3.35S499.37,166.87,499.41,167Z" style="fill:#fff"></path><path d="M534.36,201.39c0,.17-11.49,1-25.69,1.82S483,204.6,483,204.44s11.49-1,25.69-1.83S534.35,201.22,534.36,201.39Z" style="fill:#fff"></path><path d="M470.18,194.22c0-.17,2-.45,4.5-.77a21.73,21.73,0,0,1,4.56-.39c0,.17-2,.67-4.48,1S470.19,194.39,470.18,194.22Z" style="fill:#fff"></path><path d="M533.53,218.43a11,11,0,0,1-1.75.19l-4.78.31-15.75,1-15.74,1.23-4.77.38a9.76,9.76,0,0,1-1.76.06,10.53,10.53,0,0,1,1.73-.3c1.12-.15,2.75-.34,4.76-.56,4-.44,9.58-1,15.74-1.41s11.73-.73,15.77-.87c2-.08,3.66-.12,4.79-.13A8.66,8.66,0,0,1,533.53,218.43Z" style="fill:#fff"></path><path d="M483.41,206.85l-7.72,1L468.4,189l-11.8,4.77s6.5,22,9,30.95h24Z" style="fill:#ffbe9d"></path><path d="M484.24,221.54a43.68,43.68,0,0,1-4-4.88,34.4,34.4,0,0,1-2.57-4.44c-.64-1.32-1.07-2.42-1.37-3.19a6.57,6.57,0,0,0-.49-1.18,5.29,5.29,0,0,0,.3,1.25,29.3,29.3,0,0,0,1.23,3.28,30.4,30.4,0,0,0,2.5,4.55,40.15,40.15,0,0,0,4,5,16,16,0,0,1,2.42,3.13l.61,0A17.46,17.46,0,0,0,484.24,221.54Z" style="fill:#eb996e"></path><path d="M468.4,189s0-8.24-.68-10.56l-5.5-12.82s-1.59-.81-1.88,1.63a10.32,10.32,0,0,0,.9,5.12l.18,3.41-2.36-1.92-4.53-8.49s-3.12-6.19-3.93-5.2-.55,3,.8,5.63l3.06,6.06s.46,1.07-1.15-.49-5.09-9.11-5.81-10.05-1.71-3.71-3.27-3.09.44,4,.44,4l5,11.2s-2.9-4.24-3.42-5-1.73-3.14-2.68-4.38-2-1.72-2.68-1.42a1.4,1.4,0,0,0-.86,1.71l5.33,9.26s2.67,4.15,2.67,4.47-2.33-1.38-2.33-1.38l-2.24-2.85s-2.42-4.27-3.69-4-1,1.18-1,1.18l4.5,7.78,6.52,8.39,7,6.93,4-1.3Z" style="fill:#ffbe9d"></path><path d="M455.57,187.64A17.44,17.44,0,0,0,456,185a8.24,8.24,0,0,1,2.68-5.33,4.37,4.37,0,0,1,2.71-1h.33l0-.36c-.1-1.6-.05-3.12-.11-4.13s-.14-1.65-.22-1.63a8.76,8.76,0,0,0-.16,1.62c0,1-.2,2.43-.13,4.23l.31-.36a5,5,0,0,0-3.13,1.14,6.68,6.68,0,0,0-2.1,2.94,10.79,10.79,0,0,0-.63,2.85A7.78,7.78,0,0,0,455.57,187.64Z" style="fill:#eb996e"></path><path d="M536.92,204.62,535,224.75h19.18c.77-2.94,3.63-24.56,3.63-24.56Z" style="fill:#ffbe9d"></path></g><g id="freepik--character-2--inject-46"><path d="M249.21,271.19a5.47,5.47,0,0,1-2.83-3.36,5.5,5.5,0,0,0,4.26-5.13,15.1,15.1,0,0,0-1.07-4.48,5.8,5.8,0,0,1,.07-4.5c1.27-2.26,4.08-2.92,5.71-4.94a12.09,12.09,0,0,0,2.14-5.17,10,10,0,0,1,10-7.45c2,.13,4,.87,5.95.64,2.73-.31,4.94-2.36,7.58-3.11a8.33,8.33,0,0,1,7.53,1.63c1.46,1.23,2.46,3,4,4.08s3.81,1.62,5.75,2.36,3.92,2.1,4.29,4.14c.39,2.21-1.21,4.58-.32,6.63.42,1,2.05,2.6,2.38,3.59,1.55,4.54-1.93,7.58-1.36,9.37,3,9.46-.67,13.54-3.79,13.9l-39-.83A11,11,0,0,1,245.87,272,6.41,6.41,0,0,0,249.21,271.19Z" style="fill:#e0e0e0"></path><path d="M259.23,271.84c-.2-.09-8.16-2.57-8,5.6s8.29,6.37,8.3,6.13S259.23,271.84,259.23,271.84Z" style="fill:#ffbe9d"></path><path d="M257,280.51s-.14.1-.38.22a1.43,1.43,0,0,1-1.06,0c-.87-.31-1.61-1.67-1.68-3.14a4.79,4.79,0,0,1,.37-2,1.63,1.63,0,0,1,1.06-1.11.71.71,0,0,1,.84.38c.12.23.07.39.11.4s.17-.14.1-.47a.82.82,0,0,0-.33-.51,1.07,1.07,0,0,0-.79-.2,2,2,0,0,0-1.46,1.29,4.71,4.71,0,0,0-.46,2.28c.07,1.65.94,3.18,2.12,3.5a1.55,1.55,0,0,0,1.3-.23C256.94,280.71,257,280.53,257,280.51Z" style="fill:#eb996e"></path><path d="M300.6,288.51c.17-5.76-.44-17.66-1.12-28.42a22.26,22.26,0,0,0-21.82-20.85l-1.15,0c-12.44.51-18.95,11.35-18.1,23.77l1.08,41,21.29,13.2,7.5-5.87V302.1S300.24,300.45,300.6,288.51Z" style="fill:#ffbe9d"></path><path d="M288.28,302.09a27.77,27.77,0,0,1-15.49-4.7s3.45,8.79,15.38,7.93Z" style="fill:#eb996e"></path><path d="M294.23,269.74a1.7,1.7,0,0,1-1.67,1.7,1.63,1.63,0,0,1-1.73-1.57,1.7,1.7,0,0,1,1.67-1.69A1.62,1.62,0,0,1,294.23,269.74Z" style="fill:#263238"></path><path d="M276.2,269.19a1.7,1.7,0,0,1-1.67,1.69,1.64,1.64,0,0,1-1.73-1.57,1.7,1.7,0,0,1,1.67-1.69A1.62,1.62,0,0,1,276.2,269.19Z" style="fill:#263238"></path><path d="M296.38,265.46c-.22.22-1.49-.76-3.33-.79s-3.19.87-3.39.64.13-.5.72-.91a4.7,4.7,0,0,1,2.72-.79,4.48,4.48,0,0,1,2.64.9C296.3,265,296.49,265.36,296.38,265.46Z" style="fill:#263238"></path><path d="M277.58,265.35c-.23.21-1.44-.85-3.27-1s-3.24.67-3.42.43.15-.49.78-.87a4.61,4.61,0,0,1,2.76-.61,4.47,4.47,0,0,1,2.58,1.07C277.53,264.84,277.69,265.26,277.58,265.35Z" style="fill:#263238"></path><path d="M285.19,279.63a12.36,12.36,0,0,1,3-.48c.47,0,.91-.13,1-.45a2.4,2.4,0,0,0-.29-1.39l-1.32-3.59c-1.84-5.12-3.16-9.32-2.95-9.39s1.86,4,3.69,9.13c.45,1.26.87,2.46,1.27,3.61a2.69,2.69,0,0,1,.21,1.84,1.15,1.15,0,0,1-.78.67,3.06,3.06,0,0,1-.8.1A12,12,0,0,1,285.19,279.63Z" style="fill:#263238"></path><path d="M277.89,258.94c-.23.48-2,.06-4.2.1s-4,.45-4.2,0c-.1-.23.25-.66,1-1.07a7,7,0,0,1,3.2-.77,6.92,6.92,0,0,1,3.2.71C277.64,258.29,278,258.72,277.89,258.94Z" style="fill:#e0e0e0"></path><path d="M296.62,259.49c-.33.41-1.58,0-3.1-.09s-2.82.23-3.1-.21c-.13-.21.08-.63.65-1a4.5,4.5,0,0,1,5,.24C296.6,258.86,296.77,259.29,296.62,259.49Z" style="fill:#e0e0e0"></path><path d="M286.89,237.7c-4.49-2-9.13-1.18-14-.64a21.94,21.94,0,0,0-10.44,3.73c-5,3.43-7.66,9.1-8.14,15.17s.44,11.39,1.76,17.33h0a8.46,8.46,0,0,0-.23,4.48c.47,1.44,2.08,2.62,3.49,2.06,1.64-.65,1.77-2.88,1.69-4.65a127,127,0,0,1,.57-17.87c.42-4.44,3.15-9.8,6.69-11.78,8-4.42,13.86,0,16.54,1.08,4.41-3.51,9.12-1.25,11.62,2C295.66,243.81,291.38,239.65,286.89,237.7Z" style="fill:#e0e0e0"></path><path d="M251.58,251.87c0,.27.51.61,1.56.78a10.52,10.52,0,0,0,4.42-.5,23.61,23.61,0,0,0,5.72-2.85c2-1.27,3.92-2.74,6-3.93a13.25,13.25,0,0,1,6-1.93,12.23,12.23,0,0,1,5.09.87c2.87,1.11,4.33,2.69,4.84,2.32.12-.08.16-.27.11-.56a3.66,3.66,0,0,0-.45-1.15,9.6,9.6,0,0,0-3.1-3.22,12.69,12.69,0,0,0-6.47-2.12,13,13,0,0,0-4.11.48,18.14,18.14,0,0,0-3.93,1.67,50.28,50.28,0,0,0-6.18,4.43,39.21,39.21,0,0,1-4.64,3.27A24.41,24.41,0,0,1,253,251C252.13,251.35,251.59,251.57,251.58,251.87Z" style="fill:#f5f5f5"></path><path d="M251.26,259.05a4.24,4.24,0,0,0,1.68.36,10.67,10.67,0,0,0,4.11-.5,10.54,10.54,0,0,0,3.61-2,4.49,4.49,0,0,0,1.15-1.27,15.91,15.91,0,0,0-1.33,1,12.74,12.74,0,0,1-3.56,1.85,12.54,12.54,0,0,1-4,.59C251.92,259.1,251.28,259,251.26,259.05Z" style="fill:#fff"></path><path d="M247.39,267.87a1.88,1.88,0,0,0,.67-.15,18.13,18.13,0,0,0,1.76-.64,27.36,27.36,0,0,0,5.41-3,27.88,27.88,0,0,0,4.62-4.11c.53-.6.93-1.09,1.19-1.45a2.24,2.24,0,0,0,.37-.59c-.06,0-.68.71-1.78,1.83a33.39,33.39,0,0,1-4.64,4,34.5,34.5,0,0,1-5.29,3.06C248.28,267.47,247.36,267.81,247.39,267.87Z" style="fill:#fff"></path><path d="M278.1,235.92c0,.06.74.32,1.91.87a11.94,11.94,0,0,1,4,2.91,7.15,7.15,0,0,1,1.7,4.54,9,9,0,0,1-.34,2s.14-.16.29-.5a4.74,4.74,0,0,0,.35-1.53,7,7,0,0,0-1.68-4.82,10.89,10.89,0,0,0-4.22-2.91A6.74,6.74,0,0,0,278.1,235.92Z" style="fill:#fff"></path><path d="M282.87,233.12c0,.06.67.48,1.57,1.42a9.5,9.5,0,0,1,2.38,4.4,9.4,9.4,0,0,1-.29,5c-.41,1.24-.88,1.92-.82,2s.16-.14.37-.45a7.58,7.58,0,0,0,.73-1.4,8.85,8.85,0,0,0-2.16-9.7,7.92,7.92,0,0,0-1.26-1A1.57,1.57,0,0,0,282.87,233.12Z" style="fill:#fff"></path><path d="M256.05,275.19a4.84,4.84,0,0,0,2.92-1,4.75,4.75,0,0,0,2-2.29,23.92,23.92,0,0,1-2.28,1.94C257.36,274.78,256,275.06,256.05,275.19Z" style="fill:#fff"></path><path d="M255.52,276.87a5.06,5.06,0,0,0,3.28-.7,5,5,0,0,0,2.42-2.3,18.88,18.88,0,0,1-2.62,1.93A18.09,18.09,0,0,1,255.52,276.87Z" style="fill:#fff"></path><path d="M297.45,250.59a2.21,2.21,0,0,0,1.16-.4,5.86,5.86,0,0,0,2.9-5,2.26,2.26,0,0,0-.23-1.22c-.06,0,0,.48-.07,1.2a6.64,6.64,0,0,1-.85,2.68,6.85,6.85,0,0,1-1.9,2.08C297.86,250.35,297.42,250.53,297.45,250.59Z" style="fill:#fff"></path><path d="M296.14,248a8,8,0,0,0,2-2.56,8.08,8.08,0,0,0,1.18-3.06c-.12,0-.66,1.31-1.55,2.85S296,248,296.14,248Z" style="fill:#fff"></path><path d="M267.44,266c-.05.08.5.51,1.29.81a2.71,2.71,0,0,0,1.49.28,5.84,5.84,0,0,0-1.37-.58A6,6,0,0,0,267.44,266Z" style="fill:#eb996e"></path><path d="M266.15,267.83a5.1,5.1,0,0,0,1.79.05,5.2,5.2,0,0,0,1.76-.28,5.05,5.05,0,0,0-1.78-.05A5,5,0,0,0,266.15,267.83Z" style="fill:#eb996e"></path><path d="M297.22,269.08c0,.09.43.16,1,.17s1-.06,1-.15-.44-.17-1-.18S297.22,269,297.22,269.08Z" style="fill:#eb996e"></path><path d="M297.68,268.15c0,.08.42-.06.83-.31s.72-.52.67-.59-.42.06-.84.31S297.63,268.08,297.68,268.15Z" style="fill:#eb996e"></path><path d="M278.82,251.89c0,.05.58.18,1.47.54s2.08.95,3.44,1.54a9.37,9.37,0,0,0,3.71.87,4.52,4.52,0,0,0,1.15-.14c.27-.07.4-.13.4-.15s-.6.11-1.55.06a10.52,10.52,0,0,1-3.58-.94c-1.35-.58-2.56-1.17-3.49-1.46A4.52,4.52,0,0,0,278.82,251.89Z" style="fill:#eb996e"></path><path d="M281.24,251.62a10.75,10.75,0,0,0,7.46,1.09,37.4,37.4,0,0,1-3.78-.19C282.85,252.23,281.28,251.52,281.24,251.62Z" style="fill:#eb996e"></path><path d="M277.47,281.26c.08.05.36-.66,1.14-1a3.4,3.4,0,0,1,1.49-.08s-.12-.18-.42-.27a1.75,1.75,0,0,0-1.19,0,1.82,1.82,0,0,0-.91.79C277.44,281.06,277.43,281.25,277.47,281.26Z" style="fill:#eb996e"></path><path d="M275.92,280.89c.09,0,.27-.75,1.05-1.24a3.83,3.83,0,0,1,1.56-.45s-.18-.14-.51-.16a2,2,0,0,0-1.23.34,2.06,2.06,0,0,0-.82,1C275.86,280.68,275.88,280.89,275.92,280.89Z" style="fill:#eb996e"></path><path d="M273.25,311.16s.14,0,.34-.13a1.66,1.66,0,0,0,.59-.82,6.91,6.91,0,0,0,.29-1.44,1.9,1.9,0,0,1,.74-1.39,16.46,16.46,0,0,0,1.61-.74,2.38,2.38,0,0,0,.85-1.24,1.69,1.69,0,0,0-.07-1.35,4,4,0,0,1-.15,1.28,2.35,2.35,0,0,1-.81,1.07c-.4.31-1,.35-1.61.7a1.65,1.65,0,0,0-.64.77,3.51,3.51,0,0,0-.22.86,7.15,7.15,0,0,1-.21,1.41A1.83,1.83,0,0,1,273.25,311.16Z" style="fill:#eb996e"></path><path d="M270.48,310.28a2,2,0,0,0,1.17-.76,3.09,3.09,0,0,0,.69-1.38,2.86,2.86,0,0,0,.06-.93c0-.32-.1-.63-.12-.93a1.75,1.75,0,0,1,.79-1.42,7.83,7.83,0,0,0,.58-.57,1.7,1.7,0,0,0,.35-.66,1.14,1.14,0,0,0-.11-1c-.18-.2-.34-.21-.34-.2s.12.09.23.27a1.07,1.07,0,0,1,0,.9,1.58,1.58,0,0,1-.33.55c-.16.17-.37.34-.58.52a3.42,3.42,0,0,0-.64.67,1.63,1.63,0,0,0-.27,1c0,.35.09.66.12,1a2.88,2.88,0,0,1,0,.83,3,3,0,0,1-.58,1.29A5.35,5.35,0,0,1,270.48,310.28Z" style="fill:#eb996e"></path><path d="M286.7,284.11c-2.26,7.36-8.85.78-4.82-2.15,1.76.28,3.39,1.31,5.09,1.88" style="fill:#eb996e"></path><path d="M285.05,287.51c-2.4.55-5.63-2.24-3.57-5.11,1-.29,3,1.15,4,1.32,2.87,1.09,3,.85.2-.48-1.25-.42-2.85-1.73-4.33-1.66C278.09,284,281.86,289.53,285.05,287.51Z" style="fill:#263238"></path><path d="M187.65,339.9l-.18-4a2.27,2.27,0,0,0-.18-.81l-2.13-5.1s8.65-9.85,9.11-11.07.18-2.5-2-1.6-9.11,7.32-9.11,7.32l-2.68-4.75s6.26-6.68,6.88-7.4.26-4.46-2.06-3.21-8.21,6.61-8.21,6.61l-1.61-1.61,4.64-7.14s1.61-2.5-.35-3.22-2.86.72-4.29,2.32a53.09,53.09,0,0,0-3.63,5.09l-1.38-.11-2.13-.51.16-2.48s2.87-4.14,3.35-5.06c.39-.75,1.61-2.53,0-3.24s-2.66-.86-3.51.6a9,9,0,0,1-1.76,1.89,12.11,12.11,0,0,0-2.86-2c-1.27-.39-2.77,1.07-1.29,5.14.24.67,1.7,8.17,1.7,8.17l.36,3.93,1.71,3.51,7.67,13.43v5.28" style="fill:#ffbe9d"></path><path d="M174,323.61a13.77,13.77,0,0,0,.52-2l.61-2.2c.11-.42.23-.86.33-1.33a1.49,1.49,0,0,0,.05-.22.56.56,0,0,0,0-.18s0,0,0-.06a.39.39,0,0,0-.34-.18.33.33,0,0,0-.25.1l0,0-.05.07,0,.09,0,.11a.58.58,0,0,0,0,.24v0a.41.41,0,0,0,.25.28.38.38,0,0,0,.3,0l0,0,.09-.08,0-.06,0-.06.09-.16a4.42,4.42,0,0,1,.37-.55,33.12,33.12,0,0,1,3.65-3.44c1-.84,1.58-1.41,1.51-1.5a6.67,6.67,0,0,0-1.84,1.08,20.61,20.61,0,0,0-3.91,3.39,5.16,5.16,0,0,0-.44.67l-.09.17h0a1.33,1.33,0,0,0,.2.13c.08,0,.08.11.13.09.48.07.3.05.34,0l0,0h0l-.2-.1c-.07,0-.12-.09-.14-.07s-.09,0-.26,0h-.08v0l0,.08c-.09.44-.19.87-.28,1.31-.19.84-.36,1.61-.46,2.26C173.78,322.78,173.88,323.62,174,323.61Z" style="fill:#eb996e"></path><path d="M169.77,318.9c.22,0-.29-2.15.62-4.52s2.36-3.93,2.16-4.09-1.89,1.25-2.87,3.83a7.26,7.26,0,0,0-.4,3.43C169.41,318.44,169.69,318.92,169.77,318.9Z" style="fill:#eb996e"></path><path d="M182.27,333.29c.16.14,1.76-1.45,3.58-3.55s3.18-3.92,3-4.05-1.76,1.45-3.58,3.55S182.12,333.15,182.27,333.29Z" style="fill:#eb996e"></path><path d="M179.11,328.8c.16.15,1.77-1.19,3.6-3s3.2-3.36,3.06-3.52-1.74,1.18-3.59,3S179,328.66,179.11,328.8Z" style="fill:#eb996e"></path><path d="M187.91,336.17a6.39,6.39,0,0,0-.73-2.66c-.39-.74-.8-1.33-1.1-1.85-.61-1-.67-1.77-.78-1.77s-.23.84.31,2,1.51,2.53,1.54,4.31a5.38,5.38,0,0,1-.9,3.7h.81C187.9,339,188,338.16,187.91,336.17Z" style="fill:#eb996e"></path><path d="M168.54,312.45c.16,0,.3-1.62.35-3.9l-.06.2a18.35,18.35,0,0,0,1.1-1.69c.82-1.42,1.43-2.75,1.92-3.68s.79-1.53.7-1.59-.55.42-1.15,1.31-1.32,2.2-2.12,3.59c-.35.59-.7,1.15-1,1.66l-.07.1v.1C168.24,310.83,168.38,312.45,168.54,312.45Z" style="fill:#eb996e"></path><path d="M164.74,318.12c.07,0-.12-.58-.18-1.58a39.06,39.06,0,0,1-.06-4.08v-.08c-.22-1.22-.46-2.51-.7-3.86,0-.1,0-.2-.05-.29v0c-.06-1.11.78-2.11,1.42-3l1.72-2.43a10.52,10.52,0,0,0,1.43-2.34c-.09-.07-.78.71-1.85,2l-1.85,2.33a15.09,15.09,0,0,0-1.05,1.47,3.56,3.56,0,0,0-.57,2v.05c0,.09,0,.19.05.29.27,1.35.52,2.63.76,3.85v-.07a23.26,23.26,0,0,0,.34,4.16C164.33,317.62,164.67,318.16,164.74,318.12Z" style="fill:#eb996e"></path><path d="M179.88,325.86c.21-.06-.07-1.42.12-3.07s.73-2.92.54-3-1.09,1.11-1.28,2.94S179.7,325.94,179.88,325.86Z" style="fill:#eb996e"></path><path d="M174.16,320.6c.22,0,.25-1.48.73-3.19s1.19-3,1-3.12-1.23,1.06-1.73,2.92S174,320.63,174.16,320.6Z" style="fill:#eb996e"></path><path d="M205.35,339.9s12.58-19,15.13-20.38,28.28-10.4,28.28-10.4l11-7.56L258,317.16l3.49,22.74" style="fill:#263238"></path><polygon points="288.28 303.69 277.91 314.15 259.45 302.54 254.17 312.93 258.45 339.9 298.2 339.67 298.38 321.65 288.28 303.69" style="fill:#f5f5f5"></polygon><path d="M287,339.9c-1-3.77-5.3-14-5.3-14l2.57-4.11c-.18-5.65-5.14-6.16-7.71-5.82s-3.16,5.82-3.16,5.82l3.33,4.8-4,13.27Z" style="fill:#14A2B8"></path><path d="M334.74,339.9,330.22,327a8,8,0,0,0-5-5.3l-25.66-9.2-11.53-9.22,6.2,14.21,0,22.62Z" style="fill:#263238"></path><path d="M228.58,339.67a18.92,18.92,0,0,1-.51-2.55,41.17,41.17,0,0,0-1.64-6,38.6,38.6,0,0,0-2.59-5.67,20.7,20.7,0,0,1-1.26-2.28,9.39,9.39,0,0,1,1.57,2.09,29.22,29.22,0,0,1,2.77,5.68,30.08,30.08,0,0,1,1.51,6.14A10.12,10.12,0,0,1,228.58,339.67Z" style="fill:#455a64"></path><path d="M320.5,338.69a10.61,10.61,0,0,1,.41-2.35,54.06,54.06,0,0,1,1.6-5.52,31.27,31.27,0,0,1,2.34-5.26,7.8,7.8,0,0,1,1.38-1.95,20.16,20.16,0,0,1-1.06,2.13A46,46,0,0,0,323,331C321.55,335.2,320.67,338.73,320.5,338.69Z" style="fill:#455a64"></path><path d="M304.82,339.44a9.09,9.09,0,0,1,.44-1.61c.36-1.11.83-2.56,1.38-4.29l0,.19-1.88-2.34c-.34-.42-.69-.85-1.06-1.29l-.56-.66-.29-.32-.25-.25-.23-.23.13-.15a10,10,0,0,1,3.93-2.59c.51-.21,1-.38,1.51-.53l-.15.38c-2.21-3.78-4.5-7-6-9.36-.75-1.19-1.33-2.17-1.71-2.85a5.24,5.24,0,0,1-.53-1.09,5.69,5.69,0,0,1,.7,1c.48.73,1.1,1.65,1.84,2.76,1.56,2.33,3.9,5.48,6.14,9.29l.16.29-.31.09a15,15,0,0,0-1.46.51,9.62,9.62,0,0,0-3.73,2.42l-.1-.39a2,2,0,0,1,.41.37l.3.34.57.67,1,1.31,1.84,2.39.07.08,0,.11c-.63,1.7-1.15,3.12-1.55,4.22A9.07,9.07,0,0,1,304.82,339.44Z" style="fill:#455a64"></path><path d="M245.41,339.9a7.55,7.55,0,0,1-.37-1.17c-.25-.85-.56-1.94-.93-3.25a38,38,0,0,1-1.11-5,3.89,3.89,0,0,1,.06-1.55,5.88,5.88,0,0,1,.64-1.49,4,4,0,0,1,2.76-2V326l-2.56-.29L242,325.5a.26.26,0,0,1-.22-.29.14.14,0,0,1,0-.07c1.89-4.3,3.59-8.1,4.84-10.82l1.49-3.2a6.71,6.71,0,0,1,.61-1.14,6.4,6.4,0,0,1-.43,1.21c-.35.86-.81,1.95-1.35,3.27-1.16,2.76-2.81,6.59-4.69,10.88l-.21-.36,1.89.21,2.55.29a.26.26,0,0,1,.23.29.27.27,0,0,1-.22.23,3.54,3.54,0,0,0-2.41,1.72,5.58,5.58,0,0,0-.6,1.35,3.38,3.38,0,0,0-.07,1.38,44,44,0,0,0,1,4.95A30.31,30.31,0,0,1,245.41,339.9Z" style="fill:#455a64"></path></g><g id="freepik--character-1--inject-46"><path d="M256.48,132.9l-.56,44.56c-.09,7.58,1.32,18.74,13.31,18.34h0c10.38-1.13,13.13-11,13.21-18,0-3.35.08-6.15.1-6.49,0,0,11.36-.93,12.32-12.15.46-5.42.51-16.66.43-26.84a21,21,0,0,0-19.45-20.74l-1.08-.08C263,111.3,256.32,121.16,256.48,132.9Z" style="fill:#936760"></path><path d="M282.54,171.28a27.26,27.26,0,0,1-14.3-5.39s3,8.46,14.24,8.27Z" style="fill:#6f4c47"></path><path d="M276.11,136.89c-.22.23-1.52-.82-3.4-.87s-3.28.88-3.48.63c-.1-.1.14-.52.75-1a4.68,4.68,0,0,1,2.79-.79,4.53,4.53,0,0,1,2.7,1C276,136.36,276.22,136.79,276.11,136.89Z" style="fill:#263238"></path><path d="M274.19,140.75a1.52,1.52,0,0,1-1.57,1.43,1.45,1.45,0,0,1-1.46-1.48,1.52,1.52,0,0,1,1.57-1.43A1.45,1.45,0,0,1,274.19,140.75Z" style="fill:#263238"></path><path d="M280.82,150a12.3,12.3,0,0,1,2.84-.3c.44,0,.87-.07,1-.36a2.21,2.21,0,0,0-.2-1.33c-.33-1.1-.69-2.25-1.05-3.45-1.47-4.91-2.49-8.93-2.29-9s1.54,3.88,3,8.79l1,3.46a2.58,2.58,0,0,1,.1,1.75,1.15,1.15,0,0,1-.77.59,3.49,3.49,0,0,1-.76,0A11.28,11.28,0,0,1,280.82,150Z" style="fill:#263238"></path><path d="M275.31,129.82c-.18.42-1.69.11-3.49.2s-3.28.49-3.49.09c-.09-.19.19-.58.8-1a5.67,5.67,0,0,1,2.64-.74,5.56,5.56,0,0,1,2.68.52C275.08,129.26,275.39,129.62,275.31,129.82Z" style="fill:#263238"></path><path d="M293.16,133.31c-.2.34-1.66,0-3.44-.1s-3.25.18-3.44-.18c-.08-.17.21-.47.83-.74a6.2,6.2,0,0,1,2.63-.44,6.42,6.42,0,0,1,2.61.65C293,132.82,293.25,133.14,293.16,133.31Z" style="fill:#263238"></path><path d="M256.79,141.28c-.19-.1-7.55-2.85-7.87,4.85s7.48,6.42,7.5,6.2S256.79,141.28,256.79,141.28Z" style="fill:#936760"></path><path d="M254.19,149.32s-.14.09-.37.18a1.28,1.28,0,0,1-1,0c-.8-.33-1.43-1.65-1.41-3a4.3,4.3,0,0,1,.45-1.91,1.58,1.58,0,0,1,1-1,.7.7,0,0,1,.78.4c.09.22,0,.37.08.39s.17-.12.12-.44a.87.87,0,0,0-.29-.5,1,1,0,0,0-.73-.22,1.89,1.89,0,0,0-1.45,1.13,4.58,4.58,0,0,0-.55,2.13c0,1.55.72,3,1.82,3.4a1.45,1.45,0,0,0,1.23-.15C254.17,149.51,254.22,149.34,254.19,149.32Z" style="fill:#6f4c47"></path><path d="M279,155.29c.09-.19-1.42-.64-2.48-2.06a8,8,0,0,1-1.06-2c-.23-.56-.4-.91-.48-.88s-.06.4.06,1a5.69,5.69,0,0,0,1,2.25,4.63,4.63,0,0,0,2,1.51C278.59,155.34,279,155.36,279,155.29Z" style="fill:#263238"></path><path d="M310.19,122.22a1.82,1.82,0,0,0-.85-1.06,5.63,5.63,0,0,0-2.87-.47,16.13,16.13,0,0,1-8.44-2.56,37.21,37.21,0,0,0-3.93-4.76c-3.4-3.5-6.19-5.89-9.09-7.06-3.74-1.5-10-2.11-13.91-1.09s-7.41,4.19-8,8.19c-2.19-1.85-5.47-1.83-8.14-.76l-.07,0c-3,1.06-4.65,4.19-5.53,7.22s-1.25,6.27-2.85,9c-.34.57-.74,1.25-.44,1.84a1.24,1.24,0,0,0,1.31.57,3.65,3.65,0,0,0,1.38-.62l-1,2.37a6.94,6.94,0,0,0,3.23-.21,68.61,68.61,0,0,0,2.11,8,4.58,4.58,0,0,1,3.14.78c1,.93,1.51,2.69,3.23,2,.88-.34,1.69-2.18,2-3.08a43.9,43.9,0,0,0,1.9-18.53,14.19,14.19,0,0,1,4.34-3.14l-.13.12c3.13-1.09,6.68-2.16,9.66-.69,2.3,1.14,3.66,3.54,5.39,5.45A17.13,17.13,0,0,0,295,129.47c.16,3.16.1,7.63.27,10.79l2.65-5.06v0c.21-.37.39-.75.57-1.12l.06-.12h0a18.75,18.75,0,0,1,.89-1.8l0,0a2,2,0,0,0,2.88-2.64,4.8,4.8,0,0,0-.95-1,3.09,3.09,0,0,0,3,.77,2.43,2.43,0,0,0,1.73-2.42,2.08,2.08,0,0,0-1.24-1.67,7.05,7.05,0,0,0,4-.88C309.68,124,310.46,123.22,310.19,122.22Z" style="fill:#263238"></path><path d="M266.68,114.7a9.68,9.68,0,0,0-1.12,1,8.11,8.11,0,0,0-1.73,3.72,14.75,14.75,0,0,0-.28,2.86c0,1,.08,2.14.16,3.3a31.74,31.74,0,0,1,.08,3.68,14.87,14.87,0,0,1-.25,2,4.11,4.11,0,0,1-.8,1.88,1.66,1.66,0,0,1-1.58.53,2.53,2.53,0,0,1-1.42-.8,5.82,5.82,0,0,1-1.09-2.86l.24,0a9.41,9.41,0,0,1-1.37,2.35,3.32,3.32,0,0,1-2.18,1.19,2.18,2.18,0,0,1-1.16-.2,1.83,1.83,0,0,1-.78-.78,1.86,1.86,0,0,1-.24-1,1.4,1.4,0,0,1,.36-.87l.12.1a7.2,7.2,0,0,1-2.41,1.81,5.36,5.36,0,0,1-.75.29l-.27.07a1,1,0,0,1,.26-.11c.16-.07.41-.17.72-.33a7.39,7.39,0,0,0,2.33-1.83l.12.1a1.45,1.45,0,0,0-.08,1.67,1.75,1.75,0,0,0,.71.69,2,2,0,0,0,1,.17,3.15,3.15,0,0,0,2-1.13,9.32,9.32,0,0,0,1.31-2.3l.16-.36.08.39a5.6,5.6,0,0,0,1,2.72,2.21,2.21,0,0,0,1.27.72,1.41,1.41,0,0,0,1.35-.45,3.84,3.84,0,0,0,.73-1.76,12.37,12.37,0,0,0,.25-1.9,29.26,29.26,0,0,0-.07-3.65c-.07-1.17-.14-2.28-.13-3.33a14.18,14.18,0,0,1,.32-2.88,8.07,8.07,0,0,1,1.83-3.76A4.64,4.64,0,0,1,266.68,114.7Z" style="fill:#455a64"></path><path d="M301.4,125.62l-.09.08-.28.2a3.13,3.13,0,0,1-.48.3,4.26,4.26,0,0,1-.68.36,9.9,9.9,0,0,1-4.8.87,12.72,12.72,0,0,1-6.77-2.5,22,22,0,0,1-5.82-6.71c-.82-1.36-1.49-2.75-2.22-4a14.48,14.48,0,0,0-2.51-3.41,7.6,7.6,0,0,0-3.23-2,5.29,5.29,0,0,0-1.71-.19,6.08,6.08,0,0,0-1.56.3,6.37,6.37,0,0,0-3.6,3,7.76,7.76,0,0,0-.58,1.68s0,0,0-.12,0-.2.05-.34a5.07,5.07,0,0,1,.43-1.27,6.22,6.22,0,0,1,1.25-1.7,6.72,6.72,0,0,1,2.38-1.48,6.39,6.39,0,0,1,1.61-.33,5.75,5.75,0,0,1,1.78.19,7.91,7.91,0,0,1,3.34,2,15,15,0,0,1,2.56,3.46c.75,1.3,1.41,2.69,2.22,4a22.08,22.08,0,0,0,5.74,6.64,12.6,12.6,0,0,0,6.64,2.51,10,10,0,0,0,4.75-.77A16.14,16.14,0,0,0,301.4,125.62Z" style="fill:#455a64"></path><path d="M302.42,120.69a2,2,0,0,1-.4.28,8.56,8.56,0,0,1-1.19.6,11.64,11.64,0,0,1-1.89.62,12.65,12.65,0,0,1-2.41.32,12.51,12.51,0,0,1-2.43-.16,11.78,11.78,0,0,1-1.92-.5,7.4,7.4,0,0,1-1.23-.53,2.16,2.16,0,0,1-.42-.25s.64.27,1.7.6a13.63,13.63,0,0,0,1.91.44,14.87,14.87,0,0,0,2.38.14,14.09,14.09,0,0,0,2.37-.29,15.21,15.21,0,0,0,1.87-.56C301.8,121,302.4,120.64,302.42,120.69Z" style="fill:#455a64"></path><path d="M293.25,137.6c-.23.22-1.52-.82-3.4-.87s-3.29.87-3.48.63.13-.52.74-1a4.73,4.73,0,0,1,2.8-.79,4.55,4.55,0,0,1,2.7,1C293.17,137.07,293.36,137.5,293.25,137.6Z" style="fill:#263238"></path><path d="M290.6,141.16a1.53,1.53,0,0,1-1.58,1.43,1.46,1.46,0,0,1-1.46-1.48,1.51,1.51,0,0,1,1.57-1.43A1.46,1.46,0,0,1,290.6,141.16Z" style="fill:#263238"></path><path d="M256.16,173.78l-13.44,5.61a46.35,46.35,0,0,0-20.64,16.68c-1.2,1.78-5,15.48-5.29,16.6-1.11,4.5-2.93,12.24-2.93,12.24H320.63s-3.15-30.51-10.76-36.4c-4.94-3.83-27.54-14.27-27.54-14.27a10,10,0,0,1-9.15,5.76A24.53,24.53,0,0,1,256.16,173.78Z" style="fill:#14A2B8"></path></g></svg>